<?xml version="1.0" standalone="no"?>
<!DOCTYPE svg PUBLIC "-//W3C//DTD SVG 20010904//EN"
 "http://www.w3.org/TR/2001/REC-SVG-20010904/DTD/svg10.dtd">
<svg version="1.0" xmlns="http://www.w3.org/2000/svg"
 width="512.000000pt" height="512.000000pt" viewBox="0 0 512.000000 512.000000"
 preserveAspectRatio="xMidYMid meet">
<metadata>
Created by potrace 1.14, written by Peter Selinger 2001-2017
</metadata>
<g transform="translate(0.000000,512.000000) scale(0.100000,-0.100000)"
fill="#000000" stroke="none">
<path d="M930 3565 l0 -1295 1154 0 1154 0 0 865 0 865 -864 0 -864 0 0 430 0
430 -290 0 -290 0 0 -1295z m1730 -430 l0 -285 -575 0 -575 0 0 285 0 285 575
0 575 0 0 -285z"/>
<path d="M3521 3135 l0 -865 290 0 289 0 0 865 0 865 -289 0 -290 0 0 -865z"/>
<path d="M935 1972 c-3 -3 -5 -392 -5 -864 l0 -858 290 0 290 0 0 575 0 575
145 0 145 0 0 -575 0 -575 285 0 285 0 0 575 0 575 145 0 145 0 0 -575 0 -575
289 0 289 0 -2 863 -1 862 -1147 1 c-631 1 -1150 -1 -1153 -4z"/>
<path d="M3521 1114 l0 -864 289 0 290 0 0 863 0 864 -289 0 -290 0 0 -863z"/>
</g>
</svg>
