<svg fill="none" xmlns="http://www.w3.org/2000/svg" viewBox="0 0 144 80"><path d="M3.93 72.34v-2.9h9.662v-3.721H3.93v-5.417h10.263v-3.72H0V72.12c0 3.939 1.692 6.62 5.622 7.167.11 0 .164.055.219.055h.054c.382.054.82.054 1.256.054h7.315v-3.72h-7.26c-1.256.11-3.276-.547-3.276-3.338ZM17.25 67.415v12.037h3.984V56.637H17.25v10.778ZM32.534 62.436c-4.968 0-8.734 3.447-8.734 8.755v.109c0 5.198 3.602 8.535 8.843 8.535 2.51 0 4.858-.711 6.987-2.954l-2.402-2.298c-1.255 1.258-2.456 1.915-4.53 1.915-2.948 0-4.913-1.696-5.023-4.323h12.992c.055-.656.055-1.367.055-1.367.054-4.651-3.22-8.372-8.188-8.372Zm-4.695 6.949c.164-2.025 2.238-3.611 4.695-3.611 2.347 0 4.203 1.641 4.203 3.61h-8.898ZM51.858 65.939c1.801 0 3.111.656 4.203 1.805l2.456-2.517c-1.91-2.024-4.203-2.845-6.66-2.845-5.021 0-9.06 3.72-9.06 8.809 0 5.088 4.039 8.809 9.06 8.809 2.457 0 4.75-.82 6.66-2.845l-2.456-2.517c-1.146 1.149-2.456 1.806-4.203 1.806-2.893 0-5.131-2.189-5.131-5.198 0-3.064 2.238-5.307 5.13-5.307ZM64.959 72.34v-5.8h3.602v-3.557H64.96v-6.292h-3.93v15.977c.108 3.72 1.8 6.237 5.622 6.784.109 0 .163.055.218.055h.055c.382.054.819.054 1.255.054h.437v-3.72h-.382c-1.256-.055-3.275-.712-3.275-3.502ZM75.82 65.391v-2.462h-3.93v16.524h3.93v-8.7c0-2.736 1.748-4.432 4.477-4.432.655 0 1.2.055 1.638.164V62.71c-.164-.055-.765-.11-1.201-.11-2.347 0-4.149 1.095-4.913 2.791ZM91.597 62.436c-5.022 0-9.062 3.776-9.062 8.755 0 4.924 3.985 8.754 9.062 8.754 5.022 0 9.061-3.83 9.061-8.754 0-4.925-4.094-8.755-9.061-8.755Zm0 13.952c-2.948 0-5.132-2.243-5.132-5.198 0-2.954 2.184-5.197 5.132-5.197 2.893 0 5.13 2.243 5.13 5.198 0 2.954-2.237 5.197-5.13 5.197ZM103.061 67.032v12.42h3.984V56.637h-3.984v10.395ZM121.292 72.558c0 2.626-1.529 3.72-3.603 3.72-2.074 0-3.603-1.094-3.603-3.72v-9.63h-3.984v9.958c0 4.706 3.439 7.004 7.587 7.004 4.149 0 7.642-2.298 7.642-7.059V62.983h-3.985v9.575h-.054ZM140.178 74.2l-2.456-3.502 3.057-4.159 2.675-3.61h-4.313l-3.602 4.978-3.603-4.979h-4.312l2.456 3.338 3.275 4.486-3.439 4.76-2.838 3.94h4.257l4.204-5.8 4.203 5.8H144l-3.822-5.253ZM44.188 52h52V0h-52v52Zm33.3-48.043c12.153 4.05 18.7 17.239 14.65 29.39a23.138 23.138 0 0 1-14.65 14.65V3.956Zm-7.3-1.178c1.648 0 3.297.188 4.898.518 0 11.775-11.398 21.478-23.173 21.478h-4.899C47.814 12.67 57.8 2.78 70.188 2.78ZM51.913 27.225c11.775 0 23.126 9.703 23.126 21.43-1.601.33-3.25.519-4.898.519-12.388 0-22.703-9.938-23.174-21.997h4.946v.048Z" fill="#002D62"/></svg>