<svg fill="none" xmlns="http://www.w3.org/2000/svg" viewBox="0 0 148 64"><path fill-rule="evenodd" clip-rule="evenodd" d="M134.922 58.07c-.337.286-.793.553-1.291.802-.825.427-1.722.865-2.538.865-.56 0-.965-.157-1.277-.424a2.158 2.158 0 0 1-.335-.373c-.069-.095-.132-.191-.197-.28-.214-.285-.428-.699-.635-1.217-1.298 1.33-3.615 2.455-6.986 2.455-2.85 0-5.105-.752-6.719-2.34-1.572-1.548-2.469-3.774-2.469-6.847V33.165c0-.744.145-1.247.656-1.646.528-.421 1.539-.563 2.827-.563 1.255 0 2.27.145 2.796.57.505.397.648.899.648 1.639v16.739c0 2.492.982 3.721 3.813 3.721 2.835 0 4.511-1.755 4.511-4.164V33.165c0-.744.143-1.247.654-1.646.526-.42 1.497-.563 2.788-.563 1.257 0 2.272.145 2.798.57.505.397.648.899.648 1.639v19.482c0 .644.097 1.217.214 1.679.112.45.244.788.318.981.23.48.438.949.438 1.575.001.527-.346.921-.662 1.188Zm-30.883-20.299v19.455c0 .744-.144 1.246-.656 1.646-.528.42-1.537.563-2.788.563-1.293 0-2.309-.144-2.835-.569-.507-.398-.649-.899-.649-1.64V38.292l-3.194.24c-2.857.215-2.968-2.307-2.968-3.71 0-2.772.983-3.765 2.752-3.766h13.767c1.349 0 2.367.446 2.768 2.45.444 2.23.262 3.781-2.138 3.96l-4.059.306Zm43.306 21.16c-.527.42-1.538.564-2.788.564-1.293 0-2.308-.144-2.834-.57-.507-.398-.649-.898-.649-1.639V33.165c0-.744.144-1.247.655-1.646.529-.421 1.541-.563 2.827-.563 1.256 0 2.271.145 2.796.57.507.396.648.899.648 1.639v24.12c.001.744-.142 1.248-.655 1.647ZM3.661 17.83h18.316c1.795 0 3.15.589 3.683 3.237.592 2.944.348 4.994-2.843 5.228l-5.751.426c4.231 27.765 28.979 36.816 42.453 6.912 2.23-4.95 2.959-5.85 5.402-5.221 3.311.852 3.764 2.62 2.187 7.611-11.65 36.866-50.803 40.56-58.485-8.67L3.95 27.7C.15 27.984 0 24.655 0 22.802c0-3.66 1.309-4.973 3.66-4.973ZM70.263 0c1.343 0 2.656.414 3.773 1.19a7.006 7.006 0 0 1 2.5 3.167 7.317 7.317 0 0 1 .387 4.078 7.148 7.148 0 0 1-1.858 3.613 6.714 6.714 0 0 1-3.477 1.932 6.552 6.552 0 0 1-3.923-.402 6.854 6.854 0 0 1-3.047-2.6 7.257 7.257 0 0 1-1.145-3.92c0-1.872.716-3.667 1.99-4.99A6.662 6.662 0 0 1 70.262 0Z" fill="#D40E14"/></svg>