<svg fill="none" xmlns="http://www.w3.org/2000/svg" viewBox="0 0 90 18"><path d="m9 0 2.02 6.219h6.54l-5.29 3.843 2.02 6.22L9 12.437 3.71 16.28l2.02-6.219L.44 6.22h6.54L9 0Zm18 0 2.02 6.219h6.54l-5.29 3.843 2.02 6.22L27 12.437l-5.29 3.843 2.02-6.219-5.29-3.843h6.54L27 0Zm18 0 2.02 6.219h6.54l-5.29 3.843 2.02 6.22L45 12.437l-5.29 3.843 2.02-6.219-5.29-3.843h6.54L45 0Zm18 0 2.02 6.219h6.54l-5.29 3.843 2.02 6.22L63 12.437l-5.29 3.843 2.02-6.219-5.29-3.843h6.54L63 0Zm18 0 2.02 6.219h6.54l-5.29 3.843 2.02 6.22L81 12.437l-5.29 3.843 2.02-6.219-5.29-3.843h6.54L81 0Z" fill="#E3D42F"/></svg>