<svg fill="none" xmlns="http://www.w3.org/2000/svg" viewBox="0 0 740 200"><g clip-path="url(#a)" stroke="#fff"><path d="M44.296 66.436v.5h.499l89.284.188v131.803H.5V1.007h43.796v65.43Zm45.296 88.531h.5v-43.882H44.296v43.882h45.296ZM157.477 199.115V67.125h43.795v131.99h-43.795ZM695.409 199.115V67.125h43.796v131.99h-43.796ZM269.158 111.274h-.5v87.841H224.67V67.125h446.767v131.99H627.45v-87.841H470.047v87.841H426.06v-87.841H269.158Z"/><path d="M85.306 21.288v-.5H72.862v-7.123h36.33v7.123H96.749v21.346H85.306V21.288ZM128.336 9.83h-11.252V2.52h11.252v7.312Zm0 32.304h-11.252v-28.47h11.252v28.47ZM149.893 20.788h-.5v.5c0 8.11-.383 12.207-1.128 14.97-.543 1.689-1.574 3.145-3.189 4.185-1.623 1.045-3.868 1.691-6.86 1.691h-3.137v-7.123h.074c.848 0 1.652-.21 2.296-.789.639-.573 1.057-1.45 1.26-2.65l.027-.16c.376-2.218.737-4.347.745-17.747h34.416v28.28h-11.252V20.788H149.893ZM207.324 41.945h-25.152v-28.28h11.252v7.556h13.9c4.321 0 7.549 1.112 9.686 2.862 2.129 1.744 3.215 4.15 3.215 6.839v.566c0 2.702-1.048 5.304-3.164 7.235-2.115 1.93-5.337 3.222-9.737 3.222Zm-2.563-6.178v-.206c1.198-.084 2.158-.47 2.846-1.076a3.44 3.44 0 0 0 1.174-2.619v-.189a3.44 3.44 0 0 0-1.174-2.618c-.781-.688-1.913-1.093-3.346-1.093h-10.646v7.8h11.146ZM240.035 28.873l-.858-.884V42.134h-11.252v-28.47h11.252V26.263l.851-.84 11.914-11.757h12.323L251.01 26.214l-.371.351.36.364 15.046 15.205h-13.139l-12.871-13.26ZM283.693 42.134h-11.738v-28.47h11.252V32.874l.851-.84 18.615-18.368h11.929v28.469h-11.443V22.925l-.851.84-18.615 18.369ZM354.463 21.288v-.5H342.02v-7.123h36.138v7.123h-12.443v21.346h-11.252V21.288ZM410.436 42.134h-24.769v-28.47h21.515c6.304 0 10.477.616 13.059 1.73 1.283.554 2.145 1.22 2.689 1.97.539.743.79 1.604.79 2.601v.567c0 1.46-.559 2.648-1.606 3.596-1.062.96-2.646 1.689-4.704 2.15v.976c2.071.464 4.002 1.198 5.405 2.27 1.389 1.061 2.245 2.436 2.245 4.231v.567c0 2.093-.915 4.013-3.165 5.433-2.279 1.44-5.951 2.379-11.459 2.379Zm-4.328-17.702v.19h.5c1.923 0 3.269-.187 4.145-.62.452-.222.797-.519 1.023-.901.225-.38.309-.806.309-1.247v-.189c0-.405-.089-.802-.326-1.159-.235-.354-.589-.627-1.046-.832-.893-.4-2.277-.587-4.297-.587h-9.497v5.345h9.189Zm-8.498 5.423h-.5v6.667h10.646c1.754 0 3.189-.238 4.203-.764 1.049-.545 1.658-1.41 1.658-2.57V33c0-.514-.132-.99-.41-1.408-.277-.414-.679-.744-1.181-.998-.989-.502-2.423-.739-4.27-.739H397.61ZM452.361 42.89c-8.54 0-13.761-2.06-16.844-4.875-3.077-2.81-4.097-6.44-4.097-9.738v-.944c0-3.303.974-6.881 4.024-9.641 3.057-2.768 8.276-4.783 16.917-4.783h4.02c9.031 0 14.193 2.019 17.101 4.775 2.899 2.748 3.649 6.318 3.649 9.649v.944c0 3.337-.705 6.955-3.582 9.748-2.883 2.8-8.042 4.865-17.168 4.865h-4.02Zm13.135-14.99v-.19c0-1.903-.613-3.9-2.377-5.409-1.751-1.5-4.566-2.458-8.844-2.458-4.277 0-7.092.959-8.844 2.458-1.763 1.51-2.376 3.506-2.376 5.41v.189c0 1.812.615 3.848 2.367 5.425 1.749 1.572 4.565 2.63 8.853 2.63 4.289 0 7.105-1.057 8.854-2.63 1.752-1.577 2.367-3.613 2.367-5.425ZM488.425 9.83h-6.466V2.52h6.466v7.312Zm7.275 32.304h-11.252v-28.47H495.7v28.47Zm1.914-32.303h-6.466V2.519h6.466v7.312ZM535.287 25.546l-.918-1.39V42.135h-10.486v-28.47h14.162L549 30.44l.411.63.422-.624 11.337-16.781h13.592v28.469H563.51V24.361l-.915 1.372-10.955 16.401h-5.398l-10.955-16.588ZM625.669 32.752c-.111 1.815-.851 4.175-3.361 6.16-2.77 2.192-7.761 3.977-16.608 3.977h-3.063c-7.874 0-13.006-1.826-16.163-4.509-3.147-2.674-4.394-6.254-4.394-9.914v-1.134c0-3.675 1.113-7.203 4.134-9.823 3.034-2.63 8.065-4.411 16.041-4.411h3.445c8.635 0 13.65 2.153 16.513 5.09 2.864 2.94 3.662 6.756 3.662 10.278v1.578h-32.669l.138.61c.41 1.822 1.396 3.36 3.2 4.429 1.783 1.055 4.325 1.628 7.816 1.628 4.171 0 6.665-.765 8.158-1.68 1.196-.732 1.731-1.55 1.964-2.104l11.187-.175Zm-32.123-8.782-.206.651h21.235l-.158-.623c-.418-1.65-1.42-2.993-3.146-3.908-1.705-.904-4.094-1.38-7.293-1.38-3.107 0-5.447.477-7.15 1.38-1.721.912-2.764 2.245-3.282 3.88ZM674.685 1.952c-.073 3.069-.837 5.234-2.565 6.672-1.847 1.537-4.904 2.34-9.755 2.34h-7.466c-4.618 0-7.862.66-9.957 2.147-2.139 1.519-2.986 3.829-2.986 6.854v1.673l.898-1.182c1.599-2.104 6.786-5.28 15.299-5.28h.383c3.213 0 7.521.561 11.008 2.465 3.453 1.886 6.104 5.084 6.104 10.447v1.133c0 2.79-.716 5.017-1.926 6.794-1.212 1.782-2.939 3.142-4.999 4.164-4.132 2.05-9.545 2.71-14.59 2.71h-1.148c-5.331 0-10.722-.754-14.767-3.232-4.002-2.45-6.748-6.626-6.748-13.647v-3.778c0-5.893 1.234-10.643 4.565-13.93 3.335-3.29 8.872-5.216 17.715-5.216h6.701c1.538 0 2.301-.18 2.84-.711l.01-.01c.088-.088.206-.204.3-.327.019-.025.04-.054.06-.086h11.024Zm-21.126 34.192h.014c3.411-.096 6.006-.866 7.763-2.097 1.771-1.241 2.678-2.946 2.678-4.825v-.567c0-2.149-.897-3.826-2.703-4.936-1.767-1.087-4.366-1.61-7.752-1.61-3.3 0-5.895.573-7.682 1.681-1.814 1.126-2.773 2.794-2.773 4.865v.566c0 1.965.899 3.72 2.678 4.967 1.763 1.236 4.365 1.956 7.777 1.956ZM694.909 20.788h-.5v.5c0 8.11-.383 12.207-1.128 14.97-.543 1.689-1.575 3.145-3.189 4.185-1.623 1.045-3.868 1.691-6.861 1.691h-3.137v-7.123h.075c.848 0 1.651-.21 2.296-.789.639-.573 1.057-1.45 1.26-2.65l.027-.16c.375-2.217.736-4.347.745-17.747h34.416v28.28h-11.252V20.788h-12.752ZM738.822 9.83H727.57V2.52h11.252v7.312Zm0 32.304H727.57v-28.47h11.252v28.47Z"/></g><defs><clipPath id="a"><path fill="#fff" transform="translate(0 .508)" d="M0 0h739.896v199.108H0z"/></clipPath></defs></svg>