<svg fill="none" xmlns="http://www.w3.org/2000/svg" viewBox="0 0 604 617"><g clip-path="url(#a)"><path d="M604 340.082c0-5.325 0-10.65-.296-15.828-.148-4.29-1.628-7.988-4.587-11.242-3.699-3.994-7.99-6.953-12.577-9.615-8.582-5.03-17.904-7.693-27.374-9.764-15.093-3.402-30.333-4.437-45.722-3.994-14.057.444-27.965 1.775-41.43 5.474-10.062 2.81-19.68 6.36-28.262 12.721-2.811 2.071-5.327 4.586-7.25 7.397-2.516 3.55-3.404 7.692-3.404 11.982.148 20.265.148 40.679.148 60.945 0 3.402 0 3.403-2.811 3.403h-51.788c-.74 0-1.776.295-2.368-.592.148-1.775 1.48-3.107 2.22-4.586 7.99-15.088 16.72-29.733 25.006-44.526 10.95-19.674 22.195-39.2 33.293-58.874 9.321-16.568 18.643-32.988 27.817-49.556.888-1.479 1.776-2.218 3.551-2.071 3.552.296 7.251.148 10.802.148 31.517 0 62.886 0 94.403.148h10.801c2.22 0 3.847-.739 4.883-2.81 1.332-2.515 2.664-5.03 4.143-7.544.592-1.036.592-1.924-.148-2.959-1.331-2.219-2.663-4.438-3.551-6.657-1.036-2.514-2.663-3.254-5.327-3.254-18.348.148-36.695 0-55.043 0H469.35c-2.515 0-3.995-.74-5.327-2.959-5.622-10.354-11.393-20.709-17.164-31.064a1435697.78 1435697.78 0 0 0-30.185-53.253c-.444-.74-1.036-1.628-.74-2.663.592-.444 1.184-.296 1.776-.296h102.837c1.627 0 2.811-.592 3.699-2.071a121.333 121.333 0 0 0 4.291-7.396c.74-1.48.592-2.811-.148-4.142-1.332-2.515-2.811-5.03-3.995-7.544-.592-1.184-1.332-1.628-2.664-1.776-2.811-.443-5.622.148-8.582.148H391.816c-1.924 0-2.812.592-3.7 2.22-4.882 9.467-9.765 18.786-14.648 28.105-2.368 4.438-4.735 9.024-7.103 13.462-.443.887-.739 1.923-1.923 2.07-.74-1.331-.444-2.662-.444-3.846V2.071c0-1.48-.592-2.071-2.072-2.071H195.76c-2.072 0-3.255.74-4.291 2.515-1.924 3.55-3.995 6.952-6.067 10.355-12.133 20.117-24.266 40.236-36.696 60.206-2.367 3.846-3.107 7.544-3.107 11.834.148 65.531.148 131.062.148 196.593v9.172c0 .887.148 1.923-1.036 2.367-2.367.887-5.77-.296-6.658-2.663-5.179-12.278-10.21-24.556-15.389-36.834-4.439-10.354-8.286-20.857-13.169-30.916-3.699-7.84-9.026-14.349-16.276-19.083-8.73-5.621-18.2-6.952-27.966-3.846-11.541 3.698-19.975 11.834-25.894 22.189-5.03 8.876-8.138 18.343-9.914 28.402-2.959 16.716-.444 32.692 6.067 48.076 4.291 10.059 8.582 20.118 12.873 30.029.888 1.923.592 3.254-.74 4.882-2.663 3.402-6.066 5.917-9.026 8.875-2.811 2.663-3.995 5.621-3.995 9.32v13.017c0 1.479.148 3.106 1.036 4.29 2.22 2.515 1.48 5.029.296 7.692-4.143 9.319-8.286 18.787-12.43 28.106-4.882 11.094-9.617 22.041-14.5 33.135-2.663 5.917-5.327 11.835-7.694 17.752-1.776 4.289-.296 7.988 3.847 10.059 3.551 1.775 7.398.443 9.618-3.403.74-1.331 1.48-2.662 2.071-3.994 3.847-8.875 7.842-17.899 11.542-26.774 1.331-3.107 3.107-5.77 5.77-7.84 3.7-3.107 7.399-6.213 11.098-9.468 6.51-5.769 13.02-11.39 19.827-16.863.74-.592 1.48-1.48 2.664-1.332.444.74-.148 1.184-.444 1.775-.888 1.923-1.924 3.699-2.22 5.917-.444 3.551 1.184 6.805 4.291 8.136 3.995 1.628 6.807.888 9.322-2.366.74-.888.74-2.219 2.22-2.811 1.48 2.219 2.071 4.734 3.107 7.248 7.99 18.787 15.832 37.574 23.675 56.508 1.923 4.438 3.699 9.024 5.622 13.461 1.332 3.107 3.7 4.734 7.251 4.586 3.551 0 5.327-2.071 6.658-5.029.888-2.071.888-3.994 0-6.065-1.775-4.142-3.551-8.432-5.327-12.574-2.367-5.769-4.882-11.538-7.25-17.159-.74-1.628-.592-2.811.888-4.142 8.73-8.432 17.312-16.864 25.894-25.296 1.184-1.183 2.368-2.662 4.291-3.106.148.592.148 1.035.296 1.479.296 2.959.296 3.107 3.403 3.107 2.812 0 5.475-.296 8.286-.148 3.7.295 6.511-1.332 8.73-4.29 1.48-1.775 2.96-3.55 4.587-5.326 1.628 1.332 2.072 3.107 2.664 4.734.888 2.663 1.923 5.325 3.403 7.84 2.072 3.698 5.919 5.325 9.322 3.846 3.995-1.775 5.771-5.621 4.439-9.615a47.953 47.953 0 0 0-1.628-4.142c-1.775-4.438-3.699-8.728-5.474-13.165-.74-2.071-.444-3.403 1.035-4.882 2.664-2.663 5.475-5.029 7.547-8.136 3.403-5.177 8.138-5.917 13.76-5.769 15.833.592 31.517.296 47.35.148 1.184 0 2.367-.296 3.551.592-.592 1.775-1.332 3.55-2.219 5.177-3.996 7.84-7.843 15.68-11.838 23.52-7.99 15.828-15.832 31.657-23.674 47.337-.888 1.775-2.072 2.514-4.292 2.514H167.35c-1.036 0-2.071-.147-3.107 0-4.291.592-7.102 2.959-6.954 7.545a64.581 64.581 0 0 1 0 7.544c-.148 4.142 3.107 7.248 6.806 7.1 1.036 0 2.072 0 3.107.148 12.134 0 24.119.148 36.252.148 2.516 0 2.664.148 1.628 2.367-6.215 12.722-12.429 25.443-18.792 38.165-6.067 12.278-12.281 24.408-18.496 36.538-.888 1.775-1.48 3.55-1.775 5.325-.444 3.55.887 6.213 3.847 7.988 2.959 1.775 6.51 1.479 9.174-.74 1.627-1.331 2.663-2.958 3.551-4.733 1.775-3.994 3.551-7.988 5.623-11.834 8.878-17.012 17.164-34.319 25.894-51.331 3.403-6.656 6.806-13.461 10.209-20.118.592-1.183 1.184-2.071 2.812-2.071 10.357.296 20.715 0 31.073 0 3.107 0 3.403.148 4.587 3.255 3.255 8.58 6.51 17.307 9.766 25.887 4.882 13.017 9.765 25.887 14.648 38.904 2.368 6.213 4.587 12.574 7.103 18.639 1.627 3.994 5.326 5.917 9.174 5.03 3.699-.74 6.362-4.438 6.51-8.284 0-1.627-.592-3.107-.74-4.438.592-.592 1.184-.444 1.628-.296 3.847.888 7.546 1.923 11.393 2.811 1.628.444 2.22 1.183 1.924 2.958-1.184 5.769-2.368 11.391-3.403 17.16-.592 2.662-1.184 5.177-1.48 7.84-.592 4.142 2.219 6.656 6.363 6.213 1.479-.148 2.959-.592 4.291-1.036 11.245-3.402 22.491-6.657 33.736-10.059 5.919-1.775 11.689-3.55 17.608-5.177 1.776-.444 3.551-1.184 5.623-.592 3.847 1.036 7.842 1.775 11.689 2.811 21.899 5.769 43.798 11.538 65.697 17.455 3.699 1.035 7.399 1.923 11.098 2.811 3.699.887 5.919 2.81 6.51 6.656.296 1.775 1.036 3.403 1.628 5.178.296.887.888 1.627 2.072 1.627 3.995 0 7.99-.148 12.133-.148 1.036 0 1.627-.444 1.775-1.479.296-1.628.592-3.255.74-5.03 1.332-14.497 2.664-28.845 3.995-43.342l5.327-52.81c.592-4.881.296-9.763-1.628-14.349l-.887-2.662c-.444-1.332.148-1.775 1.479-1.627 2.812.147 5.771.591 8.582.443 16.425 0 32.849-1.331 48.829-5.621 9.026-2.367 17.46-5.769 25.451-10.651 3.847-2.366 7.25-5.621 10.061-9.171 2.664-3.55 3.848-7.544 3.848-11.834C604 419.371 604 379.726 604 340.082Zm-227.129 55.029h52.972c16.424 0 32.849.148 49.273.148 1.036 0 2.219-.444 2.959.443.888 1.184 1.48 2.515 2.072 3.847.296.591-.296.887-.888 1.035-.74.148-1.48.148-2.219.148h-54.008v.148H371.988c-1.627-.148-1.775-.592-1.184-2.071 1.48-2.959 2.664-3.698 6.067-3.698Zm210.261-171.299c-1.036 2.515-2.664 3.846-5.771 3.846-37.584-.148-75.167-.148-112.751-.148h-1.627c-2.664-.295-4.291.888-5.475 3.255-3.995 7.544-8.286 14.94-12.577 22.485-5.623 9.615-10.802 19.378-16.277 28.993-6.214 11.095-12.577 22.041-18.791 33.136l-23.527 42.158c-5.179 9.172-10.506 18.343-15.832 27.515-3.404 6.065-6.807 12.13-10.21 18.343-.148.295-.296.591.148 1.183h119.705c-.296 2.219-1.48 3.698-2.22 5.177-.444.888-1.331.74-2.219.74H377.167c-6.659 0-13.317-.148-19.976 0-.591 0-1.331.148-1.923-.444.148-1.331.888-2.81 1.628-3.994 7.398-11.982 13.908-24.408 20.715-36.685 7.398-13.314 14.944-26.479 22.491-39.793 7.694-13.757 15.388-27.514 23.231-41.123 7.546-13.165 14.648-26.479 22.195-39.496 4.439-7.84 9.174-15.385 13.021-23.668 1.183-2.367 2.959-3.551 5.474-3.403h14.649c33.441 0 66.881 0 100.321.148 2.22 0 4.439-.148 6.659 0 1.924-.148 2.072.296 1.48 1.775ZM469.35 489.783c2.664.888 2.516.888 2.22 3.403-.296 3.106-.444 6.065-.74 9.171-.148 2.367-.444 2.515-2.664 1.923-19.531-5.177-39.063-10.355-58.594-15.68-1.332-.296-2.664-.444-3.995-1.627.591-.888 1.331-1.036 2.071-1.184 8.582-2.958 17.164-5.917 25.894-8.875l4.439-1.775c1.184-.444 2.368-.592 3.551.444 7.991 7.1 17.756 10.798 27.818 14.2Zm-24.562-16.567c9.914-3.551 19.531-6.953 29.297-10.207.592 2.071.296 3.698.148 5.325-.444 4.586-1.036 9.024-1.184 13.609 0 .444 0 .888-.148 1.332-.443 2.958-.739 3.254-3.699 2.367-7.99-2.367-15.536-5.77-22.491-10.355-.444-.444-1.183-.888-1.923-2.071Zm-10.062-.444c-4.883 1.775-9.766 3.402-14.649 5.177-5.918 2.071-11.837 3.846-17.756 6.065-3.847 1.48-7.25 1.184-10.949.148-13.169-3.994-26.634-6.952-39.803-10.65-8.434-2.367-16.868-4.142-25.155-6.657-4.587-1.331-9.913.74-11.245 6.805-4.587 19.378-9.322 38.904-14.057 58.282-.296 1.48-.592 2.959-1.628 4.586-2.811-4.29-3.403-9.171-5.326-13.461-1.924-4.438-3.404-9.024-5.179-13.609a1354.443 1354.443 0 0 1-4.883-13.462c-1.628-4.585-3.847-8.875-5.031-13.461.74-1.035 1.48-.74 2.22-.592 2.811.148 5.474.148 8.286-.148 2.959-.295 4.735-1.775 5.326-4.585.74-3.55.74-7.101.296-10.651-.739-4.882-3.255-6.805-8.286-6.805-3.107 0-6.362.148-9.47.148-1.183 0-2.367-.148-3.551 0-2.515.148-3.847-.887-4.735-3.254-1.923-5.473-3.995-10.947-6.066-16.42-.296-1.035-.74-1.923-1.184-2.958-1.924-4.142-4.883-5.474-9.322-4.586-.74.148-1.332.444-2.367.296-.296-1.627.739-2.959 1.331-4.29 2.812-5.621 5.623-11.095 8.434-16.716 4.735-9.171 9.322-18.49 13.909-27.81 1.184-2.367 2.664-3.402 5.327-3.402 6.067.148 12.281 0 18.348-.148 2.959 0 3.107 0 3.107 2.958.148 10.355.148 20.71.148 31.065v1.923c0 2.367 0 2.367 2.516 2.515 3.107.148 6.066 0 9.174.148 2.663.148 4.882-.888 6.954-2.663 5.623-4.734 11.393-9.467 17.016-14.201 1.036-.887 2.22-1.627 3.255-2.663 1.184-1.035 1.776-.591 2.516.592 2.071 3.846 4.291 7.692 6.214 11.686.888 1.923 1.924 2.663 4.143 2.663h52.381c8.73 0 17.312-.296 26.042.148.888 0 1.627 0 2.515.444-.148 1.035-.444 2.071-.444 3.106V456.5c0 2.071.148 3.994.296 6.065.148 2.515 1.332 4.586 2.664 6.805 1.479 2.071 1.331 2.514-1.332 3.402Zm-158.472 3.106-3.995-10.65c-.592-1.627-.296-1.923 1.331-1.923h6.215c3.107.296 5.919-.148 8.582.296 2.367.443 2.811.739 2.811 2.958.148 2.663.296 5.325 0 7.988-.444 2.663-1.331 3.402-3.995 3.55h-7.99c-1.48 0-2.367-.739-2.959-2.219Zm28.853-146.151c1.628 1.775 2.368 3.255 3.255 4.734 1.332 2.663 2.664 5.473 3.996 8.284 1.035 2.071 1.183 4.29 1.183 6.509.148 11.982.148 23.964.148 35.798 0 8.727 0 17.603-.148 26.331 0 2.958-.148 2.958-2.959 3.106-1.184 0-2.367.148-3.551.148-2.22 0-2.516-.296-2.516-2.663 0-5.769 0-11.686.148-17.455.148-19.082.296-38.313.296-57.395.148-2.071-.296-4.29.148-7.397Zm12.577 25.74c1.924.591 2.22 1.775 2.812 2.81l17.312 32.84c.148.148.148.443.296.591 1.479 2.959 1.331 3.107-1.332 5.178-5.919 4.733-12.133 9.319-17.608 14.497-.296.295-.592.591-1.48.148-.296-18.491.148-37.13 0-56.064Zm204.342-243.043c-1.035 1.627-2.219 2.219-4.439 2.219-6.954-.296-13.761-.148-20.715-.148h-80.346c-4.439 0-5.031-.592-6.806-5.769h110.235c1.036 0 2.515-.592 3.107.739.74 1.036-.296 1.923-1.036 2.959ZM396.255 98.963h121.48c3.404 0 4.587.887 5.623 3.994.296 1.183.296 1.923-1.184 1.923H404.985c-1.628 0-1.924.443-1.036 1.923 6.362 10.502 12.133 21.301 18.2 31.952l19.088 33.727c6.954 12.426 13.908 24.851 20.863 37.425 1.036 1.923 2.367 2.959 4.735 2.663 2.367-.296 4.587-.148 6.954-.148 35.66.148 71.32.148 107.128 0 4.143 0 5.179.592 6.363 3.846.592 1.479.296 1.923-1.332 1.923H472.901c-2.959 0-5.918-.148-8.878-.148-2.071 0-3.403-.74-4.439-2.515-3.847-6.804-7.842-13.609-11.689-20.413a3014.644 3014.644 0 0 1-16.72-29.882c-5.475-9.763-10.95-19.526-16.572-29.289l-17.313-30.621c-.739-1.331-1.775-2.366-2.367-3.698-1.184-1.923-.74-2.662 1.332-2.662Zm-22.787 34.466 15.536-29.733c.148-.444.296-.739.592-1.183.444-.74 1.184-1.036 1.628-.148.296.296.444.74.592 1.035 12.429 21.893 24.71 43.787 37.139 65.828 7.399 13.017 14.797 25.887 22.047 38.904 1.776 3.107 3.404 6.361 5.475 9.319.74 1.184 1.184 2.367.296 3.847-5.031 8.875-10.062 17.751-14.945 26.478-10.505 18.639-21.159 37.426-31.664 56.212-10.062 18.047-20.124 36.094-30.186 53.993-8.434 14.941-16.868 29.881-25.45 44.674-1.036 1.775-1.628 3.846-3.551 5.769-2.22-3.994-4.143-7.692-6.067-11.242-7.398-13.905-14.501-27.81-21.603-41.715-8.434-16.42-17.312-32.84-25.894-49.112-2.072-3.994-4.143-8.136-6.215-12.13-.592-1.183-.74-2.219 0-3.55 3.256-6.213 6.511-12.426 9.618-18.639l26.19-50.147c9.026-17.307 18.052-34.467 27.078-51.774 6.511-11.982 12.873-24.408 19.384-36.686ZM201.383 228.25h-1.628c-2.22-.148-2.368-.148-2.22-2.367.148-6.065-1.035-5.473 5.623-5.473 28.854 0 57.707 0 86.709-.148 2.811 0 5.77 0 8.582-.148 1.627 0 2.219.592 2.367 2.219.74 5.917.592 6.065-5.475 6.065-13.169 0-26.486 0-39.655.148h-6.658v-.296h-47.645Zm95.734-134.021c3.699 0 3.699 0 3.699 3.698V168.044c0 1.627 0 3.107.148 4.734.148 3.106-.444 3.846-3.551 3.55-2.22-.148-4.439-.148-6.659-.148H205.97c-2.072 0-4.292.148-6.363.296-1.184 0-1.776-.444-1.924-1.627-.148-1.48-.296-2.959-.296-4.438V97.04c0-2.959 0-2.959 3.256-2.959h96.474v.148Zm-99.73 118.193c0-9.763 0-19.526.148-29.142 0-2.958.444-3.402 2.812-3.402 9.618.148 19.235.296 28.853.296h64.81c1.479 0 2.959-.148 4.439 0 2.219.148 2.515.444 2.515 2.811v28.845c0 4.438.592 4.586-4.439 4.586-14.797 0-29.593 0-44.39-.148h-50.752c-3.996-.148-3.996-.148-3.996-3.846ZM359.707 11.39v7.84c0 32.544-.148 65.236 0 97.78 0 10.65-.296 21.449-.148 32.1 0 2.366-.592 4.585-1.776 6.656-5.77 10.059-10.801 20.562-16.276 30.769-6.658 12.574-13.021 25.443-19.976 37.869-1.035 1.923-1.627 3.994-3.699 5.621-.148-3.698-.296-7.248-.296-10.946 0-13.905.148-27.811.148-41.568 0-27.662.296-55.324-.148-82.838 0-4.29-.148-8.728 0-13.018 0-2.219.74-4.142 1.776-5.917 12.133-19.526 23.379-39.496 35.808-58.874 1.184-1.776 1.923-3.994 3.551-5.474.444-.148.74-.148 1.036 0Zm-203.75 57.1c8.286-13.61 16.572-27.07 24.858-40.68 4.143-6.804 8.434-13.61 12.429-20.71 1.184-2.07 2.664-2.958 5.179-2.81 6.511 0 13.169-.148 19.68-.148h131.838c1.628 0 3.403 0 5.031.148 2.219.148 2.367.444 1.48 2.515-.296.887-.74 1.775-1.332 2.514-8.286 13.61-16.424 27.367-24.71 40.976-4.883 7.988-9.914 15.976-14.649 24.112-1.036 1.627-2.22 2.07-4.143 2.07-23.527 0-47.054.149-70.58.149h-86.413c-1.036 0-2.071.148-3.107-.74 1.479-2.367 2.959-4.882 4.439-7.396Zm-6.511 218.931v-92.158c0-36.39 0-72.928.148-109.318 0-5.917-.592-5.325 5.623-5.325 22.787 0 45.574 0 68.361.148 28.705.148 57.411 0 86.116-.148h.296c3.847 0 3.847 0 3.847 3.846 0 32.839-.148 65.679-.148 98.519 0 17.455 0 34.91.148 52.365 0 2.959-.444 5.622-1.923 8.136-1.776 2.959-2.664 6.213-4.735 9.024-.444.592-.592 1.331-1.628 1.479-.888-.592-.444-1.479-.444-2.219 0-23.52-.148-47.04-.148-70.56V92.898c0-2.515 0-2.515-2.367-2.515-3.108 0-6.215-.148-9.174-.148H169.866c-2.96 0-5.919-.148-8.878 0-2.516 0-2.516.148-2.516 2.515v187.126c0 3.55.148 6.953.148 10.503 0 2.811-.444 3.402-3.255 3.254-6.807-.443-6.067.74-5.919-6.212Zm12.725-25v-27.366c0-2.367 0-2.367 2.368-2.663 2.663-.296 5.327-.148 7.99-.148 6.215.148 12.429 0 18.792 0 2.219 0 2.219 0 2.219 2.219V284.758c0 2.071 0 3.994-.148 6.065-.148 2.81-.148 2.81-2.959 2.81h-25.006c-3.108 0-3.108 0-3.108-3.254-.148-9.319-.148-18.639-.148-27.958Zm26.338-34.171c-4.882.148-9.765.296-14.5.148-3.404 0-6.659-.296-10.062.148-1.184.148-1.776-.296-1.776-1.479v-1.628c.296-5.473-.887-5.177 5.771-5.473 1.776 0 3.551.148 5.327.148h17.46c2.811 0 2.959.148 2.959 2.811-.148 5.621.74 5.325-5.179 5.325Zm5.031-27.81v13.313c0 2.219-.148 2.367-2.219 2.515H166.61c-1.479-.296-1.775-1.035-.739-2.219 1.627-1.775 3.403-3.55 5.03-5.325 6.659-7.397 13.465-14.645 20.124-22.041l.888-.888c.296-.296.74-.591 1.035-.444.592.148.74.74.74 1.332 0 2.515 0 5.029-.148 7.692-.148 1.775-.148 3.994 0 6.065Zm-4.143-18.047c-6.954 7.396-13.909 15.088-20.863 22.633-1.48 1.479-2.811 3.254-4.143 4.733-.296.444-.888.74-1.332.592-.74-.148-.74-1.036-.74-1.627V151.92c0-18.343.296-36.833 0-55.176 0-2.663 0-2.663 2.22-2.663h25.45c3.551 0 3.551 0 3.551 3.698 0 24.556.148 49.112.148 73.667v.296c1.036 4.586-1.479 7.692-4.291 10.651Zm-10.061 114.939h17.756c1.627 0 3.255.147 4.734.739 1.48.444 1.776 1.036.888 2.219a24.135 24.135 0 0 1-2.515 2.959c-4.735 4.881-9.47 9.763-14.205 14.496-7.694 7.84-15.684 15.533-23.379 23.373-6.954 7.1-15.388 10.65-25.302 10.355-9.47-.148-18.792 0-28.262 0H78.422c-4.735 0-4.735-.148-6.51-4.29-2.812-6.805-5.623-13.462-8.582-20.118-.888-2.071-.74-3.551.888-5.03l16.424-16.42c5.77-5.621 12.873-7.988 20.715-8.136 26.042-.147 51.936-.147 77.979-.147Zm-123.997 2.366 19.088-17.307c7.25-6.509 14.5-13.017 21.751-19.378 2.664-2.367 5.179-4.734 7.843-6.953 1.627-1.479 2.071-1.331 2.959.592 3.551 7.988 6.954 15.828 10.062 23.964.443 1.035.591 2.071-.148 2.958-1.924 2.071-2.812 4.734-3.848 7.249-.739 1.923-1.923 2.515-3.847 2.515-5.031-.148-9.913-.296-14.796.591-6.363 1.184-11.69 4.29-16.277 8.728-5.327 5.177-10.95 10.059-15.536 15.828-.296.444-.74.74-1.628.888-1.332-2.959-2.811-5.917-4.29-9.024-.889-1.775-1.628-3.698-2.368-5.621-1.332-2.811-1.332-2.811 1.035-5.03Zm-2.515-3.106c-.888 1.035-1.48.592-2.072-.444-5.178-9.911-7.99-20.414-7.546-31.064-.148-12.426 2.368-23.669 8.138-34.171 2.516-4.586 5.623-8.728 9.766-11.982 7.398-5.917 15.093-7.249 22.64-2.959 3.846 2.219 6.658 5.326 9.173 9.024 2.515 3.698 3.995 7.84 5.77 11.982 1.48 3.402 3.108 6.952 4.44 10.502 1.183 2.663 1.035 2.959-1.036 4.882-5.623 5.029-11.098 10.059-16.72 15.088-8.434 7.545-16.868 15.089-25.155 22.781-2.367 2.219-5.178 3.846-7.398 6.361Zm66.289-9.763c1.48 1.183 1.924 2.662 2.368 3.994.443 1.775.148 2.219-1.776 2.515-.74.147-1.48.147-2.22 0-1.035-.148-1.479-.592-1.035-1.628.888-1.627 1.183-3.402 2.663-4.881Zm-80.198 61.093c.296-.591.592-1.183 1.036-1.627 3.255-3.55 6.51-7.1 10.358-10.355 1.035 1.036 1.331 1.923 1.627 2.811 1.184 2.81 1.184 2.958-1.331 4.733-1.48 1.036-1.924 2.663-2.664 4.142-.592 1.184-.592 2.811-2.22 3.255-1.923.444-3.994.592-5.918-.296-1.48-.444-1.628-1.331-.888-2.663Zm-.444 8.876c0-1.036.592-1.627 1.628-1.479 1.036 0 2.071 0 3.107.148.592 0 1.036.443.74 1.183-1.628 3.55-2.96 7.396-5.179 10.651-1.036-3.551-.444-6.953-.296-10.503ZM23.38 432.24 12.28 457.536c-.592 1.331-1.036 2.514-2.071 3.55-.74.739-1.48 1.183-2.516 1.035-3.107 0-4.439-2.219-3.255-5.177 2.367-5.621 4.883-11.243 7.25-16.864 4.735-11.242 9.914-22.484 14.649-33.727 7.25-16.863 14.797-33.431 22.195-50.147 1.036-2.367 2.22-4.881 3.255-7.248.296-.74.888-1.479 1.332-2.071.592-.74 1.332-.74 1.776 0 1.775 2.515 3.107 5.177 1.775 8.284-1.48 3.402-2.811 6.804-4.29 10.207-5.92 13.313-11.838 26.626-17.609 40.088A2073.78 2073.78 0 0 1 23.38 432.24Zm38.915-64.2c-1.332 0-2.663.296-4.143.296-1.628 0-1.924-.444-1.48-1.923.888-2.367 1.776-4.734 3.7-6.952 1.331 2.366 2.367 4.437 3.107 6.656.296 1.184.148 1.923-1.184 1.923Zm2.071 4.29c1.628 0 3.108 1.479 2.96 3.107-.148 1.035-.888 1.775-1.776 2.366-5.77 5.03-11.541 10.059-17.164 15.089-1.036.887-1.923 1.923-2.96 2.81-.443.444-1.035.888-1.627.296-.444-.443 0-1.035.148-1.479 1.628-3.846 3.403-7.544 5.03-11.242 1.185-2.811 2.516-5.622 3.7-8.432.74-1.923 1.924-2.811 4.143-2.663 2.516.296 5.031.148 7.546.148Zm-21.159 37.869c-2.071 1.775-4.143 3.698-6.214 5.473-.444.296-.74.74-2.22.592 1.48-4.142 2.663-8.284 5.919-11.242 8.582-7.692 17.312-15.089 26.042-22.781.74-.592 1.332-1.331 2.515-1.331.296.444.592.887.74 1.331 1.48 3.255 1.48 3.55-1.184 5.917-8.434 7.249-17.016 14.645-25.598 22.041Zm31.37-2.958c-.889 1.183-2.96 1.331-4.44.591-1.332-.739-1.923-1.923-1.775-3.402 0-1.035.443-1.775.887-2.663 1.184-2.514 2.812-5.029 3.7-7.692.148-.591.591-1.183 1.331-1.183.592 0 .888.592 1.036 1.035 1.036 2.071 2.072 4.142 2.515 6.509-.74 2.367-1.627 4.734-3.255 6.805Zm48.236 69.821c.296.739.74 1.627.888 2.367.444 2.219-.444 3.698-2.515 4.437-1.924.74-3.404.148-4.439-1.923-1.628-3.55-3.256-7.1-4.735-10.798-7.251-17.012-14.353-34.171-21.603-51.183-11.394-27.07-22.64-53.993-34.033-81.063-6.362-15.089-12.873-30.177-19.087-45.414-6.215-15.236-6.955-30.768-3.552-46.744 1.628-7.988 4.44-15.68 8.582-22.781 3.995-6.804 9.026-12.426 15.685-16.715 11.69-7.397 25.154-7.101 36.252 2.07 5.918 4.882 9.913 10.947 12.873 17.752 6.51 15.532 13.169 30.916 19.679 46.448 2.368 5.622 4.735 11.243 7.103 17.012 1.036 2.367.74 2.663-1.776 2.663-5.327 0-5.327 0-7.398-4.882-4.143-9.911-8.434-19.674-12.577-29.437-3.552-8.58-7.103-17.16-10.654-25.887-2.663-6.361-5.919-12.426-11.097-17.16-8.287-7.692-19.532-8.136-28.114-2.515-8.582 5.622-14.057 13.462-17.608 22.781-3.551 9.024-5.623 18.491-5.327 28.106-.444 10.799 2.515 20.858 6.51 30.621 2.516 6.065 5.475 11.982 7.695 18.047 5.03 13.017 11.097 25.591 16.276 38.609 4.883 12.129 10.21 24.111 15.24 36.241 7.547 17.899 14.797 35.946 22.64 53.846 5.031 11.834 9.47 23.964 15.092 35.502ZM87.3 379.874c-.592.888-1.331.444-1.627-.296-.148-.295-.296-.591-.148-.887.591-2.367 1.775-4.438 3.107-6.509.148-.444.74-.444 1.184-.296.592.148.74.592.74 1.48-1.036 1.923-1.628 4.437-3.256 6.508Zm6.955-5.177c.888-2.367 2.367-3.254 5.03-3.254 8.583.147 17.165 0 25.747 0 6.066 0 12.133 0 18.052-.444 2.219-.148 2.219 0 2.367 2.219.148 5.473.148 10.946.148 16.419 0 1.628-.592 2.959-1.775 4.142-10.506 10.207-21.012 20.562-31.517 30.769-1.48 1.479-2.96 3.106-4.587 4.882-1.924-2.663-2.812-4.882-3.847-7.249-4.587-10.946-9.174-21.893-13.761-32.691-.888-2.219-1.036-4.142.148-6.361 1.331-2.663 2.811-5.474 3.995-8.432Zm63.921 29.141c0 1.628-.148 3.107-.296 4.734h.148v3.846c0 2.367-.296 2.663-2.515 2.515-1.184 0-2.368-.148-3.403-.148-2.516-.148-2.812-.296-2.664-2.811 0-1.775.592-3.254 1.924-4.585 1.627-1.48 3.107-3.107 4.735-4.586.296-.296.74-.888 1.331-.592.888.296.74 1.036.74 1.627Zm-12.429 3.551c-10.653 10.502-21.307 21.005-31.813 31.508-1.775 1.775-2.071 1.775-3.255-.592-2.367-4.29-2.367-4.438 1.036-7.692 13.021-12.87 25.894-25.887 39.359-38.313 3.551-3.254 6.806-6.657 10.21-10.059 1.183-1.331 2.663-1.331 4.143-.592 1.479.74 2.071 2.071 2.367 3.107 0 1.627-1.036 2.367-1.923 3.254-6.807 6.361-13.465 12.87-20.124 19.379Zm4.143-35.799c0-1.183.444-2.218 1.776-2.662 1.184-.296 2.071-.296 2.663.887 1.184 2.663 2.368 5.326 3.551 8.136.444 1.036 0 1.923-.739 2.515-2.072 1.775-3.996 3.402-5.623 5.621-.296.444-.74.74-1.332.592-.592-.148-.592-.74-.592-1.331v-6.953h.296c0-2.219-.148-4.586 0-6.805Zm17.756 34.615c-1.479 1.479-2.663 3.255-5.179 4.882-.148-5.03-.296-9.468.296-13.905 0-.444.148-.888.444-1.184.444-.887 1.184-1.035 1.628-.148 1.332 2.663 2.515 5.326 3.255 8.284.296.74.148 1.479-.444 2.071Zm18.94 10.503c1.036 2.663.888 3.106-.888 4.734-1.628 1.627-3.403 1.479-5.031-.148-.888-1.036-1.627-2.219-2.071-3.551-2.812-6.804-5.771-13.609-8.582-20.413-.148-.296-.148-.592-.296-.888-1.48-2.663-1.924-4.734.444-7.84 3.403-4.438-.444-11.242-6.067-11.686-2.072-.148-3.107-.888-3.699-2.663-.74-1.923-1.628-3.994-2.516-5.769-.592-1.331-.444-2.219.74-2.958 1.628-1.036 3.108-2.219 5.031-2.959 1.776 2.959 2.516 6.213 3.699 9.023 6.511 14.941 12.873 30.029 19.236 45.118Zm5.475-37.13c-3.552 3.994-7.103 8.136-10.95 11.983-1.332-.592-1.627-1.924-2.071-3.107-2.96-7.1-6.067-14.201-9.026-21.301-.74-1.775-1.48-3.551-2.368-5.178-1.036-1.923-.888-3.55.888-5.177 1.628-1.479 2.959-2.959 4.439-4.438 6.215-6.213 12.429-12.278 18.792-18.491.296-.296.74-.739 1.331-.739.592.443.444 1.183.444 1.775 0 13.313.148 26.626.148 39.94-.148 1.923-.444 3.402-1.627 4.733Zm-15.833-36.094c-4.735 4.734-9.322 9.764-14.353 14.497-6.214 5.917-13.76 9.468-22.49 9.615-6.659.148-13.317 0-19.976 0-11.985 0-23.97-.147-35.808 0-2.071 0-3.255-.591-3.995-2.662-1.184-3.107-2.515-6.213-3.995-9.763 4.439.443 8.286.296 11.985.296h48.829c3.551 0 6.955-.296 10.358-1.036 7.25-1.479 13.317-5.325 18.496-10.503 11.985-11.982 23.97-23.816 36.104-35.798.148-.148.295-.148.887-.444 1.184 5.178 1.036 9.468-3.255 13.462-7.99 7.1-15.24 14.792-22.787 22.336Zm79.754 32.988h-55.191c-3.404 0-3.404 0-3.404-3.254v-42.307c0-2.071.592-3.698 2.072-5.178 1.332-1.331 2.811-2.662 4.143-3.994 2.368-2.366 3.551-5.177 3.107-8.579-.444-3.255-.148-6.509-.148-9.911v-2.515c-.296-4.734-1.627-6.361-6.362-7.249-2.664-.591-2.812-.591-2.812-3.254V235.35c0-3.106.148-3.106 3.404-3.106h56.375c8.434-.148 24.562.296 40.839-.148 2.515-.148 2.811 0 2.811 2.515.148 9.467.148 18.786.148 28.254 0 1.775-.888 3.254-1.627 4.733-3.848 7.249-7.547 14.645-11.542 21.893-1.184 2.219-1.184 3.847 0 5.918 2.811 5.029 5.475 10.058 8.138 15.088l3.995 7.988c.74 1.479 1.036 3.254 1.036 4.882v50.146c0 2.515-.296 2.811-2.663 2.811h-18.052c-2.368 0-2.516-.296-1.48-2.219 3.551-6.952 6.955-14.053 10.506-21.005.444-.888.888-1.775 1.183-2.515 2.664-5.621-.443-9.319-3.847-11.242-3.847-2.071-8.582-.148-10.949 4.141-1.48 2.811-2.812 5.622-4.291 8.432-3.699 7.249-7.399 14.497-10.95 21.893-1.183 1.923-2.367 2.663-4.439 2.663Zm-54.156 101.773c-11.985 0-23.97-.148-35.807-.148-.888 0-1.776 0-2.516-.148-1.628 0-2.663-1.035-2.811-2.514-.592-3.255-.444-6.509 0-9.764.148-1.627 1.331-2.218 2.959-2.366H212.332c2.22.148 2.663.591 1.776 2.366-1.776 3.699-3.699 7.101-5.475 10.651-.592 1.036-1.48 1.479-2.663 1.479-1.48.296-2.812.444-4.144.444Zm10.358 19.674c-5.771 11.391-11.393 22.929-17.164 34.319-5.771 11.391-11.541 22.633-17.312 33.875-.888 1.628-1.776 3.403-4.143 3.403-3.107 0-4.883-2.219-4.291-5.178.148-1.035.592-2.071 1.036-2.958l21.307-42.603c8.138-16.124 16.276-32.396 24.414-48.52 9.026-17.899 17.904-35.798 26.93-53.697 11.246-22.337 22.343-44.674 33.589-67.011.887-1.627 1.627-3.254 2.515-4.733 1.628-2.663 3.551-3.402 5.475-2.219 2.811 1.479 3.551 3.846 2.219 6.657-.592 1.183-1.183 2.219-1.775 3.402-8.434 16.272-16.277 32.84-24.711 49.111-9.618 18.639-18.644 37.574-28.113 56.212-6.511 13.462-13.317 26.627-19.976 39.94Zm34.328-55.324c1.628 4.734 3.404 9.467 5.031 14.201.74 2.219.592 2.663-1.775 2.663h-11.986c-.592 0-1.035 0-1.923-.592 3.107-6.065 6.214-11.982 9.174-17.899 1.183.444 1.183 1.035 1.479 1.627Zm11.246 35.65c-10.062-.148-20.272-.148-30.333-.296-.148 0-.148-.148-.74-.443 2.219-4.29 4.291-8.58 6.362-12.722.74-1.479 2.22-1.479 3.7-1.479 3.847 0 7.546-.148 11.393 0 1.924 0 4.291-.888 5.771.443 1.331 1.184 1.627 3.403 2.367 5.178a150.88 150.88 0 0 1 2.812 7.396c.295 1.184 0 1.923-1.332 1.923Zm44.834 91.567c-1.48.591-3.551-.001-4.587-1.332-1.036-1.331-1.628-2.958-2.22-4.586l-18.2-48.371c-8.878-23.669-17.756-47.337-26.486-71.005-.296-1.035-.739-2.071-1.035-2.958-.74-2.515 0-4.142 2.367-5.178 1.776-.887 4.439-.148 5.623 1.479.592.888.888 1.923 1.331 2.811 4.292 11.686 8.583 23.224 12.874 34.763 6.658 17.899 13.465 35.798 20.271 53.697 3.699 9.763 7.102 19.674 10.802 29.437.444 1.184 1.035 2.367 1.479 3.55.444 1.036.888 2.219.888 2.811-.296 2.663-1.48 4.29-3.107 4.882Zm20.123-9.912c-4.439-1.183-8.73-2.366-13.169-3.402-2.367-.592-3.551-2.071-4.587-4.142-3.107-6.065-2.219-11.834-.74-18.047 4.291-17.011 8.287-34.171 12.43-51.182.739-2.959 1.183-6.065 2.367-8.876 1.628-4.142 2.663-4.881 6.954-3.698 8.139 2.071 16.129 4.142 24.267 6.361 12.281 3.254 24.562 6.657 36.696 9.911 1.036.296 1.923.444 2.959 1.183-.888 1.036-1.923 1.184-2.959 1.48a3541.989 3541.989 0 0 1-36.252 12.573c-2.516.888-5.031 1.628-7.398 2.663-5.031 2.071-8.139 5.769-9.322 11.242-2.664 13.758-5.475 27.515-8.286 41.42-.148.443-.148.739-.296 1.183-.592 1.923-.74 1.923-2.664 1.331Zm48.533 20.118c-12.725 3.699-25.45 7.397-38.027 11.095-2.812.739-5.475 1.775-8.138 2.663-2.664.739-3.256.147-2.96-2.515.148-1.036.296-2.071.592-3.107 1.776-6.508 2.812-13.165 4.291-19.822.74-3.106.74-3.106 3.847-2.367 14.057 3.699 28.262 7.397 42.319 11.095.74.148 1.627.296 2.071 1.183-1.035 1.332-2.663 1.332-3.995 1.775Zm14.945-4.585c-1.332.443-2.663.296-4.143 0-11.542-2.663-22.935-5.917-34.328-9.024-5.771-1.479-11.394-2.958-17.165-4.438-2.515-.591-2.367-.591-1.923-3.106 2.811-13.313 5.919-26.627 8.434-40.088.296-1.775.74-3.55 1.48-5.177 1.183-2.811 3.255-4.586 6.066-5.622 7.695-2.958 15.537-5.473 23.379-8.284 9.026-3.106 18.348-5.917 27.226-9.615 1.628-.591 3.107-.444 4.735 0 7.842 2.071 15.832 3.994 23.674 6.065 14.797 3.846 29.446 7.692 44.243 11.539 2.219.591 2.367.739 2.219 3.254-.888 8.284-1.776 17.011-2.811 25.591-.444 3.994-1.036 7.988-1.184 11.982-.148 2.515-1.332 3.698-3.699 4.438l-37.732 11.094-32.848 9.763c-1.924.592-3.7 1.184-5.623 1.628Zm91.147 25.147a68967.904 68967.904 0 0 0-84.489-22.189c.592-1.627 1.924-1.627 2.96-1.923 6.658-2.219 13.465-3.846 20.123-5.917 14.205-4.29 28.41-8.58 42.615-12.722 1.479-.443 3.107-.887 4.587-1.183 1.331-.296 2.071 0 1.923 1.627-.296 2.811.888 5.326 1.776 7.988 2.515 7.544 4.883 15.089 7.25 22.633.888 2.811 1.924 5.621 2.811 8.432.296.739.888 1.775.444 3.254Zm14.205 12.722c-6.066-.148-5.77.296-7.546-5.326-4.735-14.644-9.47-29.437-14.205-44.082a17.614 17.614 0 0 1-.888-7.84c.74-7.1 1.48-14.053 2.22-21.153.888-8.136 1.775-16.42 2.663-24.556l1.332-14.201c.148-.887.296-1.923.296-2.81.148-1.036.592-1.48 1.775-1.332.444.148 1.036.148 1.48.296 5.179.888 5.179.888 4.587 8.284-.592 5.473-1.332 13.313-2.219 21.301-1.184 11.834-2.368 23.521-3.552 35.355-.148 2.071 0 3.994.592 5.917 2.96 9.319 5.919 18.491 8.878 27.81 1.332 4.142 2.664 8.284 3.847 12.426.74 2.514 1.776 4.733 2.664 7.1.74 2.071.148 2.811-1.924 2.811ZM476.749 481.5c.591-8.284 1.923-16.568 2.811-24.852.296-2.367.296-2.367 2.663-2.515.74-.148 1.48-.148 2.22-.148 3.699.148 3.699.148 3.551 4.734-1.48 8.58-1.628 18.343-3.107 27.958-.296 2.219-.444 2.367-2.664 1.775-7.102-1.479-5.918 0-5.474-6.952Zm27.965 32.839c-1.331 9.172-1.923 18.491-2.811 27.81-1.036 10.059-2.22 20.266-2.959 30.325-.74 8.728-2.072 17.16-2.664 25.887-.148 1.627-.296 3.107-1.036 5.03-1.775-2.811-2.071-5.621-2.959-8.284-3.255-10.207-6.363-20.414-9.914-30.473-1.035-3.106-1.331-6.065-.888-9.319 1.924-17.16 3.7-34.319 5.623-51.479.296-2.514.444-5.029.592-7.544.148-1.627.592-2.367 2.368-2.071 3.107.444 6.066.74 9.173 1.036 1.924.148 2.96 1.183 3.552 2.958 1.479 5.178 2.811 10.355 1.923 16.124Zm-16.128-27.514c.74-6.361 1.48-12.574 2.071-18.935.148-1.183 0-2.514.74-3.994 1.332 1.036 1.332 2.219 1.628 3.255 1.628 6.804 4.291 13.313 6.066 19.97 1.184 4.142 1.036 4.142-3.107 3.55-1.775-.296-3.551-.444-5.327-.888-2.219-.295-2.367-.443-2.071-2.958Zm104.612-14.053c-3.699 3.254-8.138 5.769-12.577 7.84-9.914 4.438-20.271 7.248-30.925 9.024-14.205 2.366-28.41 2.514-42.762 2.218-2.664 0-2.664-.147-3.404-2.81-3.551-11.982-7.102-23.816-10.801-35.798-.888-2.811-1.036-3.107-3.995-2.959-3.403 0-6.807 0-10.21.148-2.515 0-2.663.148-2.663 2.811-.296 6.804-.444 5.621-5.919 7.544-8.73 3.106-17.46 5.769-26.042 9.171-2.516 1.036-3.403.74-4.439-1.775-1.332-3.254-2.516-6.656-2.516-10.355.148-13.017.148-26.035.148-39.052v-2.219c0-1.035.592-1.627 1.48-1.627 1.628-.148 3.107-.296 4.735-.296h37.732c2.071 0 3.255-.296 4.143-2.367 1.183-2.662 2.663-5.029 4.291-7.396.592-1.036.592-1.923 0-2.959-1.628-2.81-3.108-5.769-4.735-8.579-.444-.888-1.332-1.332-2.368-1.48H439.461c-2.811 0-2.959 0-2.959-2.81 0-15.385.148-30.917.148-46.301 0-1.479-.148-2.959.443-4.29.74-.444 1.036.148 1.332.444 5.031 5.177 11.098 8.875 17.608 11.538 8.434 3.55 17.016 6.361 26.042 7.84 10.21 1.627 20.568 3.107 30.925 2.959 10.358-.148 20.716.295 31.073-1.332 11.838-1.923 23.527-4.142 34.625-8.875 4.883-2.071 9.469-4.586 13.76-7.692 2.22-1.628 4.144-3.551 5.919-5.622.296.148.592.148.888.296V450.435c0 2.515 0 5.03.148 7.692.74 5.621-1.628 10.651-6.215 14.645Zm5.623-142.453c-2.367 5.325-6.658 8.58-11.393 11.538-7.547 4.734-15.833 7.692-24.267 9.911-15.832 3.846-31.813 5.622-53.86 5.178-7.99 0-21.603-1.775-34.92-5.178-9.174-2.366-18.2-5.473-26.338-10.798-3.699-2.515-6.954-5.474-9.174-9.467-2.367-4.29-2.515-8.284 0-12.574 3.107-5.473 7.99-8.876 13.169-11.686 9.766-5.326 20.272-8.432 31.221-10.503 15.537-2.811 31.073-3.994 46.758-2.959 15.536 1.036 30.777 3.255 45.277 8.876 6.511 2.515 12.578 5.769 17.904 10.207 3.256 2.662 5.327 6.065 6.511 10.059.74 2.367.296 5.029-.888 7.396Z" fill="#222"/></g><defs><clipPath id="a"><path fill="#fff" d="M0 0h604v617H0z"/></clipPath></defs></svg>