<svg fill="none" xmlns="http://www.w3.org/2000/svg" viewBox="0 0 1646 1066"><g opacity=".2" stroke="#21503D" stroke-width=".75" stroke-miterlimit="10"><path d="M296.535 699.076c9.974-6.971 14.71-3.309 23.962-10.632-10.005-.612-14.898-.784-24.691-1.31-8.719 7.975-13.032 2.564-22.778 9.856l23.507 2.086ZM109.739 694.097c11.981-3.921 18.591-2.87 31.223-3.968 7.253-4.062 10.75-6.179 17.321-12.107 34.774-.94 61.222 5.372 94.154 10.774-5.402 1.921-7.645 1.568-13.369 5.402 8.625 1.184 13.001.863 22.128 1.718 9.534-6.955 13.659-1.529 22.08-9.48-40.358-2.086-76.058-18.395-116.831-18.544-47.501-.165-99.816 15.76-135.963 35.841 0 1.129.36 2.799 0 4.046 31.294-11.369 63.512-17.25 96.601-25.248-6.719 6.696-10.381 7.394-17.344 11.566ZM437.241 714.405h.095c1.384.309 2.814.362 4.218.157h.11c1.811-.321 2.752-.604 4.704-3.003-37.205-7.998-90.72-2.141-130.16-3.254 4.203-1.827 6.367-3.199 10.883-5.402-10.46-.573-15.556-.847-25.507-1.247-12.82 6.727-18.959 5.692-30.078 10.977 30.98 2.086 62.948 4.571 93.489 4.932 22.542.267 46.497-5.536 68.553.298 1.341-1.984 2.039-3.693 3.693-3.458Zm-12.545-3.136a10.903 10.903 0 0 1-4.046.917c-6.602.079-9.872.596-16.521 1.349-6.657.784-10.013 1.231-16.929 1.207-6.923 0-10.303-1.662-18.034-.784-7.723.886-11.762 1.286-18.622-1.144-6.83-2.439-12.546-1.396-22.614-1.169-10.068.22-15.102 0-25.091-.329 2.548-.565 3.811-.329 6.43-.784 10.052.439 15.141.635 25.381.392 10.232-.251 13.039 1.568 20.002 1.984 6.963.415 11.534-2.141 18.819-1.827 7.284.313 10.797 1.615 17.689 1.568 6.892-.047 10.248-.439 16.929-.941 6.672-.494 9.966-.784 16.615-.471l-.008.032ZM442.048 720.984c6.9 3.136 10.28 7.598 23.79 9.832 9.331-7.527 17.125-9.284 29.553-17.109-15.408-2.297-24.778.431-37.026.267-10.146 10.264-12.169 1.866-16.317 7.01ZM704.165 733.819l.125-.133c2.117-2.25 3.137-3.136 4.94-5.042l.11-.117a24.042 24.042 0 0 0 4.156-5.262c-7.841-1.693-11.55-2.854-19.313-4.32a52.875 52.875 0 0 1-4.461 6.743l-.11.141c-1.835 2.306-2.878 3.458-5.128 6.046l-.133.157c-2.353 2.658-3.568 4.218-6.179 7.057a92.384 92.384 0 0 1 20.159.423 69.66 69.66 0 0 0 5.834-5.693ZM666.74 739.88c13.102-7.943 10.977-12.114 17.383-22.629-55.992-8.523-113.827-3.183-170.361-2.039-11.887 8.453-17.917 7.888-29.474 17.533 16.136 1.411 23.679 4.916 38.334 6.594 7.057-7.943 10.248-11.471 17.917-17.579 14.506-.424 21.743-.965 36.202.149-7.669 6.445-10.664 9.519-18.035 18.889 14.561.086 21.775.784 36.351-.196 7.841-9.574 11.903-12.93 18.631-19.525 14.725.604 22.064 1.569 36.68 2.651-6.908 5.386-11.142 8.131-19.454 15.376 14.396-.314 21.563-.439 35.826.776ZM397.723 821.639c.063-.157.086-.235.149-.392 2.415-6.563 3.481-8.923 5.645-15.862.047-.173.079-.251.126-.424 2.203-7.057 3.089-10.554 5.151-17.117-46.606-26.134-102.646-32.148-160.309-38.609 5.646-9.127 6.477-12.938 9.809-15.258-9.581.219-14.286.784-24.307 1.38-18.426 9.707-31.685 45.062-41.494 60.273 51.123-17.689 161.203 17.776 198.557 40.828 2.854-4.477 4.187-8.099 6.673-14.819Zm-16.466-29.122c-2.352 5.717-3.756 9.041-6.195 15.079-8.319-5.528-13.055-5.089-21.845-7.496-8.797-2.415-14.207-4.924-24.667-7.802a266.822 266.822 0 0 0-26.417-6.053 239.028 239.028 0 0 0-26.345-3.654c-10.429-.949-15.628-1.804-25.688-2.58-10.067-.784-14.411-.478-23.632-1.137 4.32-5.967 6.861-8.727 11.33-14.451 8.947.345 13.91.455 23.68 1.263 9.754.784 14.709 1.34 24.769 2.658 10.053 1.317 15.165 2.101 25.452 3.92 10.288 1.858 15.494 2.917 25.821 5.395 10.326 2.47 14.231 4.861 22.488 7.057 8.256 2.227 12.287 3.05 21.28 7.652l-.031.149ZM439.17 810.426a231.563 231.563 0 0 0-19.963-15.612c-4.43 16.467-8.695 33.231-16.576 49.101 9.206 6.1 13.526 10.193 21.759 19.195a517.044 517.044 0 0 0 14.78-52.684ZM620.658 889.008c.11-.305.157-.462.267-.784 4.5-13.094 6.406-15.125 10.718-23.75-12.341-.204-18.371.133-30.533 1.944-4.006 8.626-5.998 13.33-9.95 23.618-.086.243-.133.36-.227.603-3.858 10.052-5.857 18.372-9.66 31.576a55048.46 55048.46 0 0 1-9.739 33.803c11.432 1.16 17.023.509 28.298 1.795 3.317-11.534 6.634-23.06 10.052-34.579l.251-.784c3.286-11.173 6.751-22.339 10.523-33.442ZM556.652 954.159c8.437-28.627 16.168-57.082 28.745-84.973-64.359 5.222-100.521-14.302-136.864-50.363-3.019 18.599-8.728 37.167-14.052 55.468 8.006 8.962 11.887 13.408 19.305 22.409 2.862-14.388 5.928-28.737 8.531-43.125 6.461 7.182 10.193 9.472 21.618 15.509-6.03 16.67-9.731 33.081-12.64 50.183 6.743 9.276 15.901 8.005 26.91 15.556 4.14-16.27 7.904-32.25 14.898-48.057 11.111 7.276 18.983 5.488 31.544 6.272-8.311 18.246-12.686 37.402-18.214 56.119 12.561 2.352 18.528 3.34 30.219 5.002ZM226.476 729.319c7.009-6.453 9.628.643 16.521-6.414-9.778.439-13.565 2.352-23.939 1.192-7.731 7.229-8.672-3.301-17.321 4.249 12.483-.611 14.679.824 24.739.973ZM64.732 719.055c34.688 3.434 69.847 4.704 104.787 7.598-6.156 4.163-9.253.125-15.416 1.725 12.616.494 18.936.627 31.49.462 8.899-5.739 13.031.698 20.261-6.806-59.827-4.634-120.752-3.136-180.618-3.285a23.12 23.12 0 0 1-.172-2.737 109.22 109.22 0 0 1 10.977 0c-4.422-2.258-6.947-1.152-11.494-.784-.063.314-.095.526-.157 1.035 9.848 1.647 14.827 2.674 24.856 4.384 6.14-1.231 9.22-1.874 15.486-1.592ZM839.736 705.906c-18.819-3.074-35.794-6.485-53.891-11.252 4.1-2.925 7.488-3.309 13.282-7.794-10.883-3.921-14.215-5.716-22.26-7.512-8.32 10.664-19.713 19.728-28.338 30.227 22.339 3.921 44.835 6.689 67.339 10.052 8.97-5.496 13.949-8.703 23.868-13.721Zm-44.02 4.594c-11.212-1.842-14.756-2.203-22.441-3.857a26.437 26.437 0 0 1 5.873-6.924c7.724 1.349 13.51 2.846 24.692 5.206-3.325 2-4.948 4.101-8.124 5.575ZM879.27 714.985c-10.813-2.627-17.148-5.818-26.942-7.214-9.252 5.238-13.972 9.104-22.739 14.467 10.978 2.062 15.063 1.239 26.236 3.874 8.837-4.493 13.534-8.037 23.445-11.127ZM1218.77 751.093c-12.13-.494-18.11-.784-29.84-1.929-8.76 9.692-12.85 12.663-20.45 26.424 11.42 1.608 17.25 2.353 29.05 3.419 8.01-14.388 12.24-18.364 21.24-27.914ZM1173.96 747.58c-93.98-11.259-188.186-14.294-281.282-29.67-9.723 2.76-14.317 6.273-22.997 10.907 11.024 1.756 16.466 2.148 27.318 2.948 5.645-2.901 8.672-2.266 14.702-4.265 31.779 4.014 63.104 8.311 95.349 9.887-6.46 2.674-10.243 4.085-15.52 7.841 12.01 1.984 18.09 3.184 30.24 5.583 5.49-5.583 8.86-6.586 15.08-10.193 34.03 4.124 68.12 7.731 102.18 11.651-5.26 6.563-7.24 8.155-12.63 17.172 11.65 1.568 16.28 2.352 27.49 4.07 7.47-13.769 11.45-16.459 20.07-25.931ZM1403.71 858.719l.23-.463c3.86-7.77 5.85-11.613 9.83-19.328.1-.188.15-.282.25-.463 4.08-7.903 6.13-11.855 10.19-19.837-66.46-4.415-132.1-10.978-198.49-13.197 3.46-5.434 7.22-10.67 11.26-15.682-12.26-.07-18.37-.651-30.21-.988-16.16 20.144-23.88 42.028-33.08 64.108 72.78 12.616 144.97 25.091 220.47 25.993 3.65-8.186 5.6-12.177 9.55-20.143Zm-18.23-21.171c-3.39 7.896-5.08 11.573-8.63 19.602-10.29-.243-16.17-.784-27.98-1.662-11.82-.917-18.08-1.458-29.48-2.242-11.39-.785-16.36-.055-25.51-2.353-9.15-2.274-14.38-2.783-25.38-3.92-10.97-1.145-16.93-1.514-28.72-3.137-11.81-1.568-17.74-3.559-29.21-5.488 3.13-7.567 4.7-11.385 7.63-18.976 11.84 2.431 18.13 3.137 30.13 4.423 11.98 1.325 17.92 1.756 28.59 3.348 10.67 1.568 14.54 4.94 23.93 5.269 9.41.337 15.34.533 27.3 1.145 11.97.611 18.44 1.027 30.28 1.874h.03c11.83.847 17.16 1.929 27.06 2.007l-.04.11ZM1467.06 822.564c-9.35-.98-15.31-1.568-27.44-2.666-10.26 20.034-20.77 39.989-30.68 60.117 12.13 1.192 18.58 2.101 30.11 3.967 9.85-20.371 19.32-40.781 28.01-61.418ZM1603.66 855.676c12.48-19.602 23.85-39.903 40.77-57.898-54.48 7.794-107.19 19.368-162.57 23.131-10.45 21.688-19.16 43.675-29.15 65.449 10.29 1.929 15.76 1.153 29.09-1.255 7.12-14.725 14.34-29.427 21.87-44.05 12.82-.408 19.05-1.764 31.75-4.399-7.93 14.992-14.9 30.227-21.87 45.478 12.32-3.192 18.49-4.877 30.58-8.39 7.39-14.898 14.57-29.866 23.2-44.435 12.55-3.089 18.82-4.705 31.37-7.716-9.25 14.114-16.96 28.738-24.94 43.244 11.89-3.694 17.83-5.56 29.9-9.159ZM777.956 790.855c-15.478-8.75-30.305-18.034-46.089-26.542 2.642-11.032 3.92-4.461 6.782-7.841a198.886 198.886 0 0 0-21.758-6.908c-19.383 16.051-20.52 44.404-27.695 64.046 28.228 8.327 46.795 23.821 69.644 37.582 7.418-19.901 15.345-39.895 19.116-60.337Zm-34.806 25.499c-9.229-5.841-13.565-10.256-22.739-14.663 2.643-7.707 3.858-11.102 6.155-18.395 9.112 5.262 13.73 8.179 23.029 13.808-2.368 7.63-3.7 11.487-6.445 19.25ZM814.472 804.882c-11.056-1.434-15.682-3.136-24.966-7.84-4.461 20.551-11.408 40.428-18.904 60.524 9.526 4.815 14.349 6.861 23.977 10.907 7.692-21.092 14.632-42.122 19.893-63.591ZM1139.3 899.798c-10.4 0-16.54-2.039-28.57-5.136-10.59 20.653-18.58 41.933-25.78 63.285 11.76 3.34 17.65 4.892 29.42 8.484 8.12-22.198 16.02-44.6 24.93-66.633ZM1069.92 953.532a489.915 489.915 0 0 1 25.4-62.83c-52.82-14.474-90.23-38.421-137.436-59.294-39.307-17.399-86-17.814-129.832-24.589-5.747 22.37-13.18 44.325-21.288 66.358 10.554 2.651 15.815 2.502 25.938 2.792 4.956-14.577 10.531-29.012 15.031-43.674 32.015 2.783 60.705 5.237 91.191 13.008a1686.014 1686.014 0 0 0-14.686 36.798c10.703 2.03 15.98 3.379 26.126 7.582a348.457 348.457 0 0 1 13.738-33.92c29.317 17.077 59.358 33.606 93.578 45.383-6.45 13.871-12.48 27.938-16.09 42.342 11.04 4.618 16.76 6.453 28.33 10.044ZM71.64 927.265c8.922 10.193 13.737 15.768 23.899 25.365 11.299-37.856 26.659-74.654 42.129-111.718-8.091-10.084-17.069-19.603-25.381-29.577-22.08 34.697-29.459 78.873-40.648 115.93ZM23.237 721.023c-.063 1.223-.102 2.188-.164 4.705 26.659 12.608 36.578 46.261 46.434 65.997-9.621 30.674-19.916 61.246-30.274 91.803 6.884 10.114 13.769 20.253 21.17 30.195 6.846-21.954 14.114-43.909 21.446-65.817 5.269-15.737 7.221-36.79 18.936-50.488-22.99-28.283-42.616-54.55-77.548-76.395Z"/><path d="M400.515 705.004c6.39-1.71 12.043-15.353 19.798-25.178a164.281 164.281 0 0 1-19.712 6.344c-11.032 4.163-17.054 2.995-28.557 10.757-1.788-4.704-2.729-3.199-4.524-3.418-8.539 2.148-7.23-1.639-19.297-2.886-9.668 5.152-14.702 5.826-24.825 10.797 9.096.784 13.761 1.216 23.421 1.961 5.795-.934 4.595-5.003 8.312-8.234 1.082 4.705 1.568 11.15 3.176 10.233 3.277-.619 5.159-1.208 8.821-1.992 11.165-1.027 16.544-2.023 27.482-8.523-4.806 6.273-7.95 9.331-11.526 9.896 7.112 1.325 10.601 1.16 17.431.243ZM458.412 666.261a17.973 17.973 0 0 0-4.877 1.02c-15.596 4.783-31.764 14.168-38.091 25.679-.33.588-.502.878-.831 1.458-5.309 9.237-2.463 7.692 18.591 2.109a92.26 92.26 0 0 1 4.179-1.035c17.132-2.469 34.869-5.849 50.88-10.93h.063c-14.984-.596-21.289 1.819-31.952 4.642-1.02.886-5.74 1.984-16.631 4.877h-.071c-9.048 2.407-11.597 2.352-10.256-1.568 19.485-5.685 41.048-7.692 61.756-9.104a17.157 17.157 0 0 0 2.352-1.434c18.05-14.608-23.35-16.906-35.112-15.714Zm5.387 12.546c-18.222 2.172-19.469 2.658-29.96 5.708 3.41-4.571 8.397-8.311 16.677-10.248h.079c8.358-1.953 14.372.517 13.212 4.555l-.008-.015ZM545.761 694.45l3.137.047c24.197 0 53.993 4.516 77.257-1.569l1.168-.533c7.363-11.291-25.75-16.34-36.625-18.646l-.933-.196c-15.682-4.116-34.312-4.877-49.32.949.118-.157.173-.243.282-.4 7.755-11.761 28.643-11.393 43.079-6.633 8.405 1.976 12.741 3.136 21.359 5.018 15.36 2.227 40.224 7.543 49.053-6.077-13.675-4.101-20.496-4.438-34.203-7.057-.423.063-3.387 2.149-4.179 2.211-1.482.244-3.646.126-7.927-1.019-7.669-2.062-11.761-3.748-19.116-5.575-33.999-10.052-65.292-.619-82.997 21.296a43.355 43.355 0 0 1-4.093 4.485c-15.431 13.503 35.951 13.879 44.058 13.699Zm-11.542-8.978.643-.471c4.195-3.089 15.745-6.97 34.289-4.846 18.693 2.149 25.875 5.983 21.853 8.461l-.627.376c-3.623 2.157-15.863 1.851-34.783 1.224-18.771-.596-25.279-1.969-21.375-4.744ZM700.864 704.141c6.641-4.336 10.084-1.388 17.517-13.784-23.084.353-39.542-.784-61.944-5.614-13.996 8.789-16.96 10.052-20.559 10.593-3.599.541-7.245.329-11.832-.181l-1.898-.211c-3.309.925-4.971 1.207-8.28 2.211 4.242.298 6.367.47 10.609.839 17.909 1.568 29.796 2.219 36.61 2.282 5.488.047 9.573 1.27 14.411-4.752a113.453 113.453 0 0 0 19.023 1.615c-5.121 5.316-7.575 4.274-12.42 5.779 7.621.439 11.369.62 18.763 1.223ZM744.287 689.973c-7.3-.04-10.977.086-18.332.25-7.512 11.801-10.93 11.041-17.595 14.444 7.323.548 10.977.878 18.167 1.725 6.595-5.301 10.06-6.046 17.76-16.419ZM753.234 676.564a192.302 192.302 0 0 0-19.462.173c-1.827 4.25-2.713 6.273-4.422 8.743 7.629-.51 11.385-.785 18.866-1.122 1.921-1.552 2.924-3.505 5.018-7.794ZM98.66 705.145c6.79-.98 10.013-2.987 17.305-2.109 15.258 2.242 33.128 1.003 43.996-7.708-11.762.204-17.611.329-29.318.494a29.786 29.786 0 0 1-3.646 1.568 37.02 37.02 0 0 1-6.877.236c-6.531-.196-9.636.642-15.815 1.983-20.857 3.419-49.845 3.137-68.562 11.511a30.401 30.401 0 0 1-3.097 1.568c-11.675 5.889 10.813 4.132 34.571 5.277l2.462.11c19.47.941 43.502-2.76 62.579-5.912l1.035-.29c10.194-2.894-15.399-8.625-29.756-5.599l-.737.157c-19.313 3.881-33.944 3.136-39.88 4.03l.236-.125c4.994-2.799 14.89-2.219 35.504-5.191Zm-13.103 6.861c14.843-.518 20.45-1.953 17.251 0l-.494.306c-2.886 1.748-12.546 4.414-27.507 4.014-14.803-.392-19.908-1.772-16.928-2.838l.494-.173c3.19-1.121 12.459-.792 27.184-1.309ZM213.099 714.883c8.539-3.92 13.086-2.877 21.1-7.339-26.809-1.827-47.775-2.25-75.054-.784-13.471 6.273-15.58 5.606-18.709 6.132a48.623 48.623 0 0 1-10.099.517l-1.568-.055c-2.862.635-4.274.886-7.057 1.294 3.575.149 5.371.204 8.946.267 15.079.258 25.092-.604 30.894-1.506a66.32 66.32 0 0 0 16.897-4.704c11.597-.894 18.309-2.729 27.154-1.569-6.54 1.937-10.531 2.016-18.035 6.689 11.691-.792 15.855-.118 25.531 1.058ZM246.706 703.976c8.836-.07 13.329-.07 22.409.087 2.352-1.177 3.403-1.921 6.273-2.055-8.954.039-13.33 0-22.033-.407-2.831 1.348-4.242 1.121-6.649 2.375ZM222.924 715.738c9.527.353 12.804-2.164 22.057-2.846 7.613-4.054 11.714-3.278 19.908-6.837-9.119-.149-13.596-.126-22.48.094-8.343 4.014-11.291 5.551-19.485 9.589ZM1344.55 782.057c10.6-9.95 16.13-16.145 25.81-27.098-14 .415-22.86.556-38.53.525-18.24 6.414-25.82 11.134-36.85 15.525-4.12-8.115-6.56-13.4-10.93-18.191-11.52-1.121-18.32-1.09-32.2-1.215a146.958 146.958 0 0 0-21.56 29.388c10.98.117 16.61-.047 27.22-.11 4.94-5.426 7.06-11.276 11.54-17.423 5.1 6.673 7.78 12.24 12.29 17.901 3.84.188 7.66.609 11.44 1.263 11.35-3.396 16.91-8.939 33.77-15.471-5.49 6.516-8.04 10.194-12.94 15.8 11.23-.369 18.04-.588 30.94-.894ZM1468.09 770.319c.62-.721.92-1.082 1.57-1.827 12.14-14.49-23.74-14.702-35.08-15.611l-8.06-.392c-21.9.243-45.25 1.764-58.84 15.815l-1.05 1.294c-7.16 13.996 22.67 12.036 34.18 12.326 2.83-.071 4.29-.094 7.26-.118 18.88-.478 43.74.675 58.11-9.707v-.047c-10.44.478-16.41.376-28.22.173-1.02.588-7.38 2.877-26.77 2.909h-.1c-16.1 0-20.17-1.286-19.03-4.431 25.38-.792 50.65.079 76.03-.384Zm-43.45-11.056h.14c15 .651 20.38 2.776 19.78 5.818-15.68-.517-31.52-1.348-47.23-.972 4.59-3.52 12.44-5.489 27.31-4.846ZM1552.32 743.503c8.01-.917 12.03-1.278 20.07-1.874 16.33-.972 32.79-3.834 46.72-10.099-12.75.164-19.14.172-31.92.455-.41.172-3.41 1.952-4.16 2.093-2.46.451-4.94.713-7.44.784-7.15.361-10.73.58-17.85 1.176-27.22 3.49-63.61 7.308-79.32 25.876-1.46 1.78-2.19 2.673-3.31 4.187-12.92 16.466 29.44 10.366 39.72 9.456 1.13-.133 1.69-.204 2.82-.361 24.58-5.198 52.99-11.063 73.23-22.739l1.18-.784c11.6-8.052-16.33-7.574-33.45-5.841l-.88.094c-16.09 1.568-32.1 5.928-46.7 10.914l.27-.274c5.65-5.881 16.71-10.264 41.02-13.063Zm-14.8 11.714c17.68-3.034 24.31-2.054 20.34 1.224l-.62.509c-3.59 2.964-15.99 7.567-32.99 10.742-16.85 3.137-22.96.424-19.32-2.736l.59-.518c3.92-3.41 14.47-6.21 32-9.221ZM1254.27 998.735c6.94-24.903 12.78-50.605 25.38-74.489-12.02-.674-18.15-.729-30.44-2.352-13.24 9.887-26.28 19.72-38.92 29.999-2.01-14.694-4.9-29.011-8.25-43.525-12.75-3.693-19.66-5.018-32.87-6.759a654.137 654.137 0 0 0-25.16 70.067c8.29.783 16.55 2.016 24.71 3.693 4.53-14.898 9.41-29.796 15.13-44.49 2.64 16.78 5.56 33.531 8.75 50.253 5.21 1.514 7.79 2.353 12.8 4.109 12.05-11.636 24.5-23.029 36.23-34.838-5.1 14.208-9.41 28.55-13.55 42.906 10.39 2.894 15.66 3.717 26.19 5.426ZM1338.46 929.695c-2.84-.549-4.26-.839-7.05-1.427-31.57-7.558-51.57 10.468-57.48 30.235-.41 1.31-.62 1.96-1.02 3.27-6.57 20.386 1.57 43.217 32.98 49.947 2.67.64 4.02.96 6.7 1.62 26.59 7.56 46.2-3.31 51.44-21.513v-.149c-10.06-1.035-15.22-2.046-25.6-4.328-.91 1.811-6.06 9.221-23.62 5.081h-.11c-14.59-3.442-19.3-10.844-18.11-20.684 23.12 5.41 45.42 11.102 69.31 14.552.63-2.266.95-3.41 1.57-5.731 5.76-20.152 6.05-45.462-29.01-50.873Zm6.28 35.63c-16.93-3.427-25.71-6.438-42.61-10.193 4.76-8.022 12.49-11.456 25.72-8.281h.11c13.39 3.247 17.72 9.441 16.81 18.474h-.03ZM1468.47 999.841c8.04-20.387.43-34.195-24.03-44.639l-.68-.219c-17.76-5.756-34 .164-40.29 6.1.1-.314.16-.471.26-.784 4.02-13.212 16.27-24.033 36.45-17.203 6.39 2.015 9.41 3.05 15 5.057 26.87 1.694 39.98-28.094 45.29-41.816-11.43-1.105-17.15-.188-30.04 2.556-.49.69-4.13 9.66-4.93 10.288-1.5 1.419-3.97 2.877-6.56 1.913-4.64-1.725-7.23-2.611-12.7-4.336-44.28-13.495-63.34 22.268-70.09 46.505-1.27 4.532-1.89 6.79-3.14 11.228-4.63 23.523-4.96 49.849 33.1 58.219l2.36.58c35.74 9.35 49.26-7.84 58.8-29.87.51-1.43.73-2.14 1.2-3.579Zm-26.88-3.693c-.22.596-.33.909-.54 1.568-3.14 10.054-12.42 16.224-27.03 12.484-14.62-3.74-19.6-12.947-16.41-22.865l.53-1.631c3.47-10.735 13.49-15.533 28.02-11.566 14.67 4.03 18.95 12.389 15.43 22.01ZM738.054 900.48c-13.283 11.51-25.264 22.841-36.147 35.582-1.13-20.763.039-42.341-4.07-62.908-11.683-4.76-17.893-6.877-30.407-8.406-14.114 31.364-23.312 63.951-33.473 96.045 10.326 2.054 15.454 2.579 25.216 5.23 6.273-19.517 12.35-39.049 18.74-58.541 1.106 22.096 2.407 44.168 4.085 66.233 4.972 1.936 7.434 2.963 12.287 4.994 11.573-13.259 23.155-26.243 36.03-38.899-4.972 16.302-9.786 32.627-14.781 48.92 9.409 5.293 14.216 8.147 24.064 13.17 8.531-27.981 16.466-56.037 25.091-84.013-11.055-5.991-16.458-9.268-26.635-17.407ZM819.937 937.905a61.168 61.168 0 0 1-6.782-1.231c-29.843-11.683-49.132 5.018-53.421 24.856a504.703 504.703 0 0 0-1.011 3.473c-6.563 22.237-1.357 49.167 30.728 60.077 2.627.9 3.921 1.34 6.579 2.21 26.424 10.48 47.273-4.18 50.786-22.09l.039-.16c-9.958-2.47-14.984-2.99-25.091-4.96-.878 2.04-6.077 10.98-23.029 5.18h-.117c-14.114-4.8-18.395-13.966-17.086-24.551 22.206 8.131 43.086 13.494 67.001 18.489.549-2.454.831-3.646 1.38-6.273 4.093-18.74 6.446-52.166-29.976-55.02Zm7.606 37.198c-16.231-2.306-24.566-5.489-40.648-11.684 4.423-8.092 11.425-9.871 24.056-6.57h.11c12.742 3.34 17.109 8.491 16.482 18.254ZM950.231 1018.72c4.493-19.169.565-47.679-28.063-56.97l-.705-.204c-18.309-5.403-31.905 2.517-37.355 9.409.078-.353.118-.533.188-.886 2.4-12.318 11.385-27.028 32.556-20.928 6.375 1.678 9.558 2.627 15.87 4.705 22.065 7.268 32.007-12.154 34.603-24.025-10.194-7.12-14.467-8.931-24.143-12.969-.306.784-2.431 8.868-2.995 9.182-1.051.831-2.596 1.121-5.685.047-5.489-1.913-8.319-2.768-13.925-4.289-43.596-11.636-57.804 31.176-62.58 52.66-1.089 4.861-1.63 7.323-2.712 12.334-3.678 24.714-5.372 54.294 34.563 63.774l2.352.68c34.83 10.87 49.68-7.19 57.239-28.94.322-1.44.478-2.15.792-3.58Zm-27.075-7.84c-.172.79-.251 1.14-.423 1.9-2.47 11.05-11.566 17.66-25.876 13.66-14.309-4-19.367-13.42-16.787-25.05.172-.78.259-1.15.423-1.91 2.776-12.545 11.55-18.928 25.656-14.897 14.208 4.147 19.744 14.035 17.007 26.317v-.02ZM239.649 871.852c-16.176 21.681-31.466 43.377-45.368 65.826a1120.28 1120.28 0 0 1 3.983-80.339c-9.99-3.983-11.762-1.568-27.279-3.607-17.556 40.271-33.967 80.347-46.474 121.535 10.021 4.893 16.467 5.081 27.154 7.841 7.621-24.581 14.161-49.312 22.096-73.854a1085.125 1085.125 0 0 0-.439 79.978c4.704 1.78 7.057 2.768 11.761 4.658 13.267-21.892 26.095-43.745 40.773-65.198-7.119 24.362-13.408 48.802-19.1 73.348 10.303 3.82 15.501 6.14 25.922 10.53a1254.692 1254.692 0 0 1 37.033-128.431c-12.028-5.355-18.128-7.903-30.062-12.287ZM326.26 910.736c-2.83-1.278-3.842-2.439-6.421-4.062-34.861-24.848-57.585 25.452-62.14 41.432a260.856 260.856 0 0 0-1.521 5.308c-7.692 28.157-10.484 66.936 27.694 85.166a572.1 572.1 0 0 1 6.594 3.01c31.443 16.57 48.614-8.14 53.099-27.08 0-.08.04-.13.063-.23-9.911-5.41-14.984-7.52-25.318-12.02-1.13 2.86-6.861 14.11-23.688 5.99l-.11-.06c-15.635-7.84-17.854-22.643-15.305-35.056 22.221 10.515 45.956 21.32 66.789 33.156.847-3.34 1.278-5.01 2.149-8.355 6.9-26.322 15.587-69.886-21.885-87.199Zm1.208 57.043c-14.028-6.406-26.307-14.357-40.256-20.841 5.959-11.981 14.286-16.976 26.354-10.021l.102.062c12.726 8.069 16.191 19.031 13.8 30.769v.031ZM421.379 979.258l-.627-.4c-16.411-10.287-30.251-5.198-36.398 1.914.126-.432.18-.643.306-1.067 2.901-12.091 14.161-31.278 33.301-16.286a3473.66 3473.66 0 0 1 14.011 9.127c20.144 14.044 31.121-10.491 32.454-20.935-7.551-7.339-11.432-10.883-19.367-17.987-.329.784-2.94 9.409-3.466 9.66-1.003.674-2.399.627-5.002-1.459-4.658-3.74-7.018-5.598-11.762-9.362-39.942-33.261-59.881 23.374-66.17 43.196a959.303 959.303 0 0 0-4.344 15.604c-5.316 23.307-9.676 48.617 3.427 71.137 26.659 1.68 53.381.78 79.978 2.91a66.74 66.74 0 0 0 5.293-15.47c.345-1.57.517-2.35.87-3.92 5.708-22.16 1.803-50.274-22.504-66.662Zm-3.293 55.932c-.212.88-.314 1.32-.525 2.2-3.035 12.78-12.64 20.58-25.946 15.07-15.839-6.55-17.932-22.53-14.671-34.5l.612-2.35c3.975-15.612 13.377-20.513 26.346-13.33 14.043 7.71 17.415 21.02 14.184 32.91ZM351.908 731.914c2.831-2.493 6.555-.588 11.887-5.214-8.343.572-10.091-3.183-21.469-1.866-12.851 1.709-19.665 3.497-32.602 3.528a73.851 73.851 0 0 0-11.166-2.791c-11.558-.682-17.329-1.317-28.823-2.078-7.018 3.427-10.194-1.207-16.702 5.105 8.672.047 12.985.258 21.634.682 3.873-2.807 5.778-2.619 9.801-2.854a25.09 25.09 0 0 1 10.852 3.967c4.61.228 6.923.33 11.589.51 12.475-1.662 18.904-.894 31.787-1.913-4.179.948-6.273.196-10.523 2.352 9.731.016 19.305-3.434 23.735.572ZM425.849 742.091c.274-.321.408-.47.682-.784 2.392-2.493 1.168-9.213-22.919-12.976a148.77 148.77 0 0 0-4.666-.667c-22.299-2.885-33.3 2.909-36.891 3.638l-.573.11c-3.622.635-.925-.306 23.719 4.861a66.69 66.69 0 0 1 4.885 1.177c27.444 7.472 33.489 7.245 34.846 5.371a112.01 112.01 0 0 0-17.486-7.253c-.533.117-3.669-.235-15.996-2.752h-.086c-10.248-2.086-13.674-2.478-13-2.8 18.05.243 32.32 5.928 47.485 12.075Zm-27.561-11.761h.078c8.853 1.2 12.107 2.768 12.075 3.607-11.283-3.066-17.007-3.748-28.729-4.281a76.798 76.798 0 0 1 16.576.643v.031ZM477.231 754.927c8.413 1.435 13.565 1.569 22.66 3.466 17.094 4.109 36.241 8.515 47.729-4.987-13.33.141-20.042.094-33.482-2.885-.407.227-3.246 2.54-4.014 2.493-1.435 0-3.301-.784-7.841-1.686-8.084-1.662-12.797-2.132-20.7-3.136-10.978-2.352-38.131-14.545-50.504-7.551-.502.463-.745.682-1.247 1.192-1.858 12.844 16.129 29.2 27.577 38.35l1.458 1.216c12.264 11.965 56.589 20.802 64.195.972.345-.447.517-.674.878-1.114 5.143-13.423-24.856-21.068-39.339-22.738l-.972-.149c-25.13-3.984-33.277-10.131-36.327-10.641l.078-.094c1.764-1.976 4.336 2.933 29.851 7.292Zm-12.185 3.984c16.419 6.813 25.279 8.335 22.096 11.471l-.494.494c-2.838 2.917-19.712 2.046-28.816-4.908-9.103-6.955-12.702-11.566-11.667-13.558l.172-.313c1.098-2.031 2.431.055 18.709 6.814ZM646.463 757.366c-32.673 2.971-63.59 8.797-96.656 10.687-12.608 14.043-14.012 16.897-16.936 21.077-2.925 4.179-6.211 4.955-10.547 3.356a73.067 73.067 0 0 1-1.795-.69c-2.439 5.865-3.701 8.664-6.187 14.027a41.312 41.312 0 0 0 9.66 4.273c16.584 5.348 27.154-.988 33.082-8.389 4.83-6.03 9.032-17.564 15.878-26.942 13.016-1.09 19.547-.972 32.618-3.411-8.147 13.675-13.871 28.126-20.143 42.271 12.482-.533 18.708-1.953 31.081-3.529 7.857-16.92 13.612-38.601 29.945-52.73ZM683.386 755.327c-8.296.659-9.754 3.348-23.201 2.156-17.509 12.209-23.445 35.489-31.082 51.32 12.365-.894 18.536-.918 31.082 1.639 8.021-18.105 13.008-37.535 23.201-55.115ZM691.941 745.62c-8.03-.392-11.982-.196-19.791 1.27-2.282 2.8-2.572 4.98-6.022 6.94 13.447 2.085 12.428-2.494 20.63-2.627 1.976-2.274 3.042-3.403 5.183-5.583ZM811.006 766.744c10.413-13.079 15.478-16.788 25.648-25.185-11.761-1.835-18.034-3.317-30.454-4.297-16.349 4.351-21.461 11.949-33.23 13.518-2.768-4.752-4.619-10.507-7.269-15.957-8.986-1.521-13.416-2.525-22.245-4.555-7.418 6.492-11.362 8.625-20.951 13.847 7.19 1.882 10.828 3.019 18.136 5.41 5.097-3.262 7.52-4.705 11.84-8.79 2.501 5.92 3.607 8.39 6.108 14.898 4.195 1.451 6.273 2.188 10.507 3.599 11.762-2.227 15.243-.415 30.58-9.284-5.716 9.339-8.311 8.978-12.506 14.898 8.005 2.204 13.29 1.427 23.836 1.898ZM919.557 762.808a24.085 24.085 0 0 0 3.442-3.184c3.921-4.54.267-8.711-31.716-12.357l-6.94-.784c-20.026-1.569-36.594-2.941-51.844 6.617a7.935 7.935 0 0 0-2.157 2.157c-4.006 5.802 2.525 15.784 31.294 15.047 2.352-.063 3.552-.055 5.982 0 16.09.109 37.245 2.501 50.073-5.999-10.138-1.482-15.274-2.046-25.428-2.948-1.569.674-6.712 2.666-22.935 1.796h-.11c-13.596-.722-17.062-2.612-15.808-5.575a493.652 493.652 0 0 1 66.147 5.23Zm-36.774-10.719h.117c13.079.682 17.643 1.646 16.514 3.654-16.553-1.419-25.586-2.886-40.923-2.729 4.164-1.905 11.338-1.599 24.292-.925ZM960.314 784.496c.957.36 1.435.549 2.353.995 15.282 5.05 43.653 15.165 59.973 6.618 1-.74 1.88-1.61 2.64-2.587 5.86-7.99-9.56-15.024-28.144-20.701l-.737-.227c-18.701-5.732-31.733-5.92-37.825-6.03a.929.929 0 0 1 .298-.109c6.084-2.47 15.839 1.003 34.861 3.418 6.277.784 10.087 2.643 16.887 4.43 12.41 3.49 36.07 8.116 46.37-.839-11.06-2.352-16.62-3.606-27.69-6.225a62.425 62.425 0 0 1-7.84 2.054c-1.27.133-3.14 0-6.54-.886-6.16-1.568-9.23-2.352-15.353-3.991-20.481-3.136-52.708-10.852-69.166-1.38a9.95 9.95 0 0 0-3.066 2.948c-7.3 11.064 21.422 19.516 32.979 22.512Zm-8.452-15.91c2.642-3.497 14.224-1.788 28.118 2.133 14.38 4.069 18.199 6.994 16.136 9.699-2.571 3.38-14.592 3.294-29.105-1.403-13.918-4.532-17.29-7.637-15.149-10.46v.031ZM1098.03 836.16c9.59-15.384 19.11-26.126 33.67-39.009-26.66-4.705-53.37-9.558-79.68-15.227-14.9 9.997-17.17 12.992-20.54 14.372-3.65 1.78-7.18 1.035-9.97.087l-1.46-.502c-3.22 2.407-5.12 4.242-8.79 9.652 4.75 2.431 7.13 3.56 11.92 5.708 11.64 5.207 17.98 3.552 25.77-3.489 5.3-4.799 10.03-6.837 18.89-13.965 10.98 2.353 16.53 3.372 27.58 5.489-11.92 8.335-17.76 18.418-24.46 29.129 10.73 3.207 16.16 4.705 27.07 7.755ZM1142.15 798.406c-13.12 13.635-23.38 25.616-32.94 40.938 10.98 3.136 16.81 5.653 26.99 7.323 9.11-16.121 17.45-31.199 31.97-45.266-10.5-1.098-15.68-1.741-26.02-2.995ZM1184.49 787.742c-10.7-.831-15.97-1.404-26.39-2.564-3.45 2.736-5.16 4.234-8.62 7.378 10.36 1.208 15.58 1.819 26.13 2.799 3.52-3.23 5.3-4.767 8.88-7.613ZM46.58 726.473l.784-.33c6.375-2.807-10.123-4.093-23.79-8.452-.321-.094 1.035 1.968.722 4.837 10.271 4.188 18.708 5.513 22.284 3.945Z"/><path d="M67.985 723.407c-10.844-.98-16.223-1.506-26.855-2.941-.337 0-2.752-.086-3.372-.164-1.16-.141-2.854-.377-6.147-.949-3.09-.525-4.626-.784-7.692-1.404-.118 0-.172-.086-.282-.18 2.234.627 3.363.925 5.606 1.482 21.696 5.363 33.34 4.603 38.742 4.156ZM119.799 771.707c15.392-8.303 24.629-20.441 34.367-31.968-29.294-2.665-55.82-10.24-84.785-13.486-11.252.831-12.326 2.987-14.952 3.623-2.627.635-5.41.101-8.955-1.098L44 728.276c-2.352.784-3.607 1.113-6.194.737a833.866 833.866 0 0 0 8.06 3.278c13.44 5.433 22.143 8.295 27.553 7.574 4.36-.588 9.127-3.089 15-9.503 11.064 2.869 16.145 6.633 27.773 10.005-8.123 9.331-13.173 13.282-21.688 15.682 9.785 6.022 14.827 9.495 25.295 15.658ZM166.727 740.21c-9.558 14.114-19.39 27.373-36.154 37.88 10.734 6.359 16.238 11.503 27.365 15.352 15.117-16.191 28.737-32.022 39.354-49.931-12.154-1.184-18.192-3.136-30.565-3.301ZM171.785 740.179c10.178.76 20.397.797 30.58.109 2.665-.305 3.316-1.67 5.175-4.194-9.182.29-16.827.219-29.012-.471-2.635 2.415-3.96 3.607-6.743 4.556ZM951.501 58.733l-.18.494c-2.941 8.179-4.407 12.546-7.269 20.732-.063.204-.102.298-.172.502-2.917 8.413-4.344 12.545-7.057 19.814 8.272 4.853 12.153 8.39 19.751 15.243 2.776-5.865 4.274-9.613 7.379-17.658.07-.188.109-.282.18-.478 3.042-7.889 4.634-12.287 7.841-21.046l.196-.533c3.301-8.97 4.995-13.627 8.304-22.276a247.763 247.763 0 0 0-21.493-14.655c-2.877 8.32-4.469 11.495-7.48 19.861ZM793.137 64.818c12.138-1.294 18.136-1.357 29.913-.196 5.042-12.28 10.978-24.307 15.949-36.626 11.832 2.596 17.046 4.454 27.043 6.508-5.575 11.848-9.872 24.017-14.435 36.069 11.307 3.654 15.274 5.998 25.373 9.198 4.642-13.965 8.963-28.009 14.436-41.832a177.317 177.317 0 0 1 24.911 5.292c-5.238 14.585-9.77 29.287-14.64 43.91 9.872 2.956 15.424 5.371 24.143 8.131 6.876-21.084 13.839-42.122 21.398-63.089-39.487-16.889-86.016-24.895-131.556-28.65-6.767 20.63-14.334 40.882-22.535 61.285ZM1498.18 118.105c12.45-.612 18.72-.886 31.45-2.031 9.52-.731 18.99-1.961 28.37-3.685 1.7-10.036 2.58-14.765 4.54-24.62-26.9 2.642-54.18 2.077-81.2 3.755 7.09-13.9 14.36-27.752 21.8-41.557-11.89-.345-16.99-.98-29.8-.4-24.63 44.811-46.45 90.062-67.7 135.72 48.21-6.571 98.65-14.114 145.58-24.378.94-8.978 1.32-11.887 2.89-23.233-1.72.345-2.58.51-4.29.831-13.33 2.486-19.83 3.254-32.73 4.627-12.91 1.372-19.27 1.834-31.91 2.956-12.65 1.129-18.82 1.568-31.42 3.261 5.32-11.981 8.05-18.128 13.49-29.646 12.29-.777 18.46-.996 30.93-1.6ZM1376.22 348.623c-13.94 3.277-21.79 4.493-33.47 7.606-6.59 26.612-12.94 52.824-15.23 79.805 85.09-7.943 164.27-45.94 245.93-63.512-2.7-8.946-4.49-13.745-6.14-19.838-13.75 3.615-20.46 5.952-33.89 10.515-13.59 4.619-20.34 7.057-34.05 11.393-13.71 4.305-20.33 5.018-34.83 9.48-14.5 4.454-21.73 6.579-36.07 10.593-14.33 4.015-21.45 5.912-35.51 9.519-14.12 3.607-22.24 5.638-34.1 8.468a84.966 84.966 0 0 1 3.3-17.744c13.72-3.458 20.67-5.292 34.75-9.166 14.06-3.866 21.17-5.888 35.55-10.193h.04c14.36-4.305 21.89-7.12 35.9-10.711 14-3.583 20.9-5.677 34.68-9.966 13.76-4.289 20.59-6.61 34.4-10.844h.04c10.19-3.136 15.3-4.658 25.68-7.261-1.77-7.057-2.67-10.844-4.18-17.775-64.38 18.403-126.47 40.773-191.67 57.662 3.24-11.001 5.03-16.599 8.87-28.031ZM1084.63 83.856a228.509 228.509 0 0 1 13.73 23.178c8.32-22.692 16.84-45.345 26.65-67.73-6.39-7.952-9.23-13.385-15.38-21.9-9.64 21.946-17.08 44.191-25 66.452ZM1358.56 251.841c-13 .22-18.51.69-29.57-.361-9.33 26.087-17.38 52.143-24.16 78.622 11.06 2.156 16.75 2.752 28.23 1.992 6.73-27.287 14.46-53.664 25.5-80.253ZM1314.92 249.27c-51.94-10.743-81.27-49.25-106.08-80.206-30.33-37.825-50.65-79.672-75.99-119.183-10.35 22.927-18.87 46.191-27.77 69.424 5.98 8.351 8.78 13.643 14.34 24.589 6.21-16.191 12.72-32.328 19.03-48.504 15.59 30 31.53 60.046 51.96 88.603-6.85 17.909-13.23 35.904-19.35 53.946 6.83 9.472 10.37 13.942 17.76 21.242 6.43-17.768 11.76-35.724 18.52-53.429 21.7 24.048 39.61 43.431 72.59 60.376-5.56 16.764-10.67 33.489-15.06 50.425 9.83 3.866 15.15 6.759 25.88 10.005 6.77-26.008 14.98-51.633 24.17-77.288ZM71.938 89.533c-12.875 15.007-26.582 27.004-44.357 39.205 1.521-12.765 2.784-25.554 4.022-38.359-9.934 6.603-16.01 8.72-28.886 11.809-.682 3.505-1.02 5.246-1.717 8.68 4.414 27.224 9.746 54.315 15.415 81.421 22.818-9.346 37.912-18.818 54.558-33.262.878-23.154.627-46.332.965-69.494Zm-22.983 65.864c-10.09 7.794-16.27 10.844-29.638 16.278 1.858-8.437 2.689-12.765 4.312-20.888 12.514-5.622 17.862-10.037 27.122-17.941-.62 8.814-.964 13.448-1.795 22.575v-.024ZM81.26 147.893c7.943-9.581 11.644-15.431 19.446-24.691-.086-22.292-.408-44.56.071-66.845-8.54 8.579-12.232 13.04-19.564 21.352.047 23.397.385 46.795.047 70.184ZM397.715 191.874c11.26 1.717 16.992 2.932 28.353 5.026 8.312-18.183 16.663-36.469 24.221-54.817-11.377-1.207-17.085-1.968-28.533-3.614-6.869 17.822-14.765 36.162-24.041 53.405ZM110.695 112.185c8.28-8.288 12.546-8.437 22.073-18.136.658-15.682 2.352-31.364 4.155-47.046 47.838-17 89.396 15.588 114.063 40.358-2.862 8.813-4.053 15.478-6.163 26.934 9.315 10.248 12.687 16.066 19.917 26.753a203.236 203.236 0 0 1 7.644-27.961c27.075 27.036 54.887 30.243 98.013 37.088-5.489 11.558-10.562 23.233-15.682 34.869 11.44 1.497 17.14 2.532 28.463 4.454 8.664-17.431 17.093-35.387 23.821-53.257-26.66-4.187-54.511-7.55-80.763-12.859-29.882-6.045-43.87-18.567-60.116-36.555-34.814-38.514-94.877-93.12-154.115-41.04-1.004 22.136-1.122 44.255-1.31 66.398ZM391.537 312.742c37.527 5.771 77.712 17.101 115.153 20.34 16.52 1.427 31.732-.706 48.3 2.195 22.182 3.921 43.91 11.566 65.135 17.462 4.234-11.111 6.516-16.788 11.103-28.377.11-.274.157-.415.267-.69 4.485-11.33 6.79-17.116 11.181-28.886.11-.282.165-.423.267-.713 4.492-12.068 6.508-18.607 10.828-28.385-68.421-1.725-138.574-4.359-205.858-12.977 5.489-12.232 8.171-16.638 13.385-27.443-11.464-1.325-17.203-2.164-28.667-4.132-14.67 30.235-33.559 60.038-41.094 91.606Zm46.912-40.099c11.762 1.514 17.666 2.188 29.545 3.717 11.864 1.568 17.689 3.34 29.239 4.704 11.55 1.365 17.345 1.232 28.871 1.106 11.526-.118 17.25-.533 28.635.408 11.354.941 16.999 3.136 28.784 5.034 11.762 1.882 17.705 2.407 29.514 3.661l-.047.118c-4.124 10.977-6.273 16.278-10.538 26.659-11.55-2.187-17.345-3.238-28.887-5.943-11.557-2.705-17.054-4.595-28.439-5.583-11.385-.98-17.109-.572-28.549-.854-11.448-.291-17.117-.957-28.228-4.517-11.142-3.568-17.25-4.853-29.207-7.159-11.934-2.305-17.956-2.023-29.796-3.442 3.63-7.096 5.465-10.601 9.103-17.909ZM668.135 266.873c-11.055 29.952-22.519 59.819-33.786 89.732 11.432 3.027 17.195 4.148 28.227 7.582 10.789-30.501 22.551-60.822 33.317-91.332a164.217 164.217 0 0 0-27.758-5.982ZM843.241 352.002c-.094.259-.142.392-.243.651-3.921 10.687-5.936 16.066-10.531 26.973l-.274.659c-4.705 11.181-7.559 16.905-11.495 27.827 9.323 4.313 13.8 6.869 22.394 13.33 3.763-10.562 5.653-14.114 10.467-24.832.118-.251.173-.377.283-.636 4.704-10.491 6.751-15.729 10.789-26.29.094-.259.141-.385.243-.636 4.116-10.828 6.038-16.262 10.036-27.325-8.562-6.814-12.922-10.28-21.884-16.898-3.905 10.829-5.771 16.239-9.785 27.177ZM703.506 377.062c7.135-21.03 14.561-42.004 21.955-62.987 10.852 1.372 16.552 0 27.53 1.835-7.685 22.3-15.33 44.608-22.739 66.954a167.443 167.443 0 0 1 26.659 5.763c7.883-21.484 15.604-43 23.162-64.547 10.515 4.109 15.682 6.54 26.127 10.303-7.504 20.826-15.424 41.558-23.986 62.148a236.588 236.588 0 0 0 26.04 6.892c11.393-28.949 22.778-57.733 33.073-86.901-17.736-11.252-41.047-23.147-63.002-30.125-22.904-7.269-44.694-5.638-68.719-9.833-10.977 30.705-22.582 61.285-33.285 92.03 10.931 3.591 16.357 5.465 27.185 8.468ZM532.235 615.813c.087-.181.126-.275.212-.463 3.497-7.723 5.026-12.005 9.205-22.512.102-.258.157-.384.251-.643 4.274-10.765 6.226-17.908 9.535-28.494-14.083-3.204-26.429-1.68-37.041 4.572-9.179 5.624-19.877 7.234-32.093 4.83-14.334-2.008-11.181-6.469-27.577-4.83-28.016 2.791-45.431 10.24-75.446 6.657 2.117-13.738 4.038-27.499 5.881-41.26-10.233-1.207-16.592-4.579-26.84-4.155-3.92 41.557-6.273 82.824-6.383 124.444 23.202 18.034 45.847 14.02 74.764 3.223 9.355-3.49 19.548-9.896 29.318-12.217l13.98-.345c19.864 2.332 37.564-1.435 53.1-11.298a142.854 142.854 0 0 0 9.134-17.509Zm-22.903-14.898c-4.909 13.51-7.528 20.865-11.448 28.815-14.373 6.21-20.849 3.247-28.847-.909-7.998-4.164-10.907-.918-18.034.721-7.12 1.647-10.547 2.635-17.58 4.493-7.057 1.858-10.546 3.764-18.034 5.042a64.355 64.355 0 0 1-19.807.823c-8.468-.737-13.792-2.815-22.315-1.302.972-12.153 1.27-20.347 2.58-32.712 10.193 3.003 14.819 3.607 23.523 3.92 8.695.338 12.694-.094 20.543-1.38a161.966 161.966 0 0 0 19.148-4.273c7.598-2.054 11.369-3.23 19.249-5.387 7.881-2.156 10.139 3.137 19.932 7.582 9.786 4.431 16.631 5.834 31.074-5.551l.016.118ZM540.209 631.111c13.769-.51 20.677.478 34.501 4.884 12.781-15.329 19.838-30.415 26.189-47.673-14.302-7.245-20.724-14.114-33.56-19.602-6.994 21.241-14.796 42.318-27.13 62.391ZM750.372 646.384l-.133.282c-2.29 4.65-3.419 6.846-5.622 10.554l-.133.22c-2.259 3.764-3.294 5.355-5.67 6.626 8.492-1.373 12.734-1.051 21.226-1.082 2.737-4.344 4.179-3.497 6.877-7.261.05-.079.105-.155.164-.228 2.635-3.7 3.983-5.88 6.767-10.475l.165-.282c2.854-4.705 4.32-7.292 7.323-12.452-10.193.282-15.172.635-24.981 1.49-2.439 5.222-3.631 7.825-5.983 12.608ZM743.825 634.976c-18.607.98-35.787 10.287-53.656 6.273-10.005-5.437-18.163-12.055-24.472-19.854a241.136 241.136 0 0 0-46.889-24.613c-5.716 17.415-11.064 31.647-26.66 45.815 14.898 5.669 22.3 7.418 37.065 11.236 7.347-5.488 10.977-10.013 17.83-20.049 14.49 5.159 20.52 9.731 28.847 14.898-3.434 8.092-3.058 11.761-10.342 15.094 14.639 4.563 13.839 6.272 22.065 7.59 3.802-2.886 5.551-6.72 8.625-15.596 7.841.557 11.691-.29 19.39-3.748-2.94 10.977-4.571 15.392-8.123 19.093 7.935-1.404 11.762-3.372 20.277-5.042 8.045-9.229 11.714-20.943 16.043-31.097ZM73.333 318.255c-10.938 5.653-16.717 8.029-29.796 11.291-8.852 16.097-12.341 33.159-18.253 49.892-6.563 29.671-15.494 59.153-19.791 89.066a63.81 63.81 0 0 0 16.623-5.724c11.573-48.104 32.18-97.581 51.217-144.525ZM348.003 491.14c2.823-33.128 6.916-65.982 13.33-98.867-11.189-4.108-16.427-4.626-27.271-9.103-5.959 30.149-10.978 60.376-14.859 90.681 10.491 8.445 17.674 14.867 28.8 17.289ZM34.928 456.005c9.895-5.073 14.427-10.609 23.907-17.015 7.88-33.504 22.645-65.119 35.873-97.667 18.975-7.708 81.021-45.376 98.255-29.286-4.218 24.354-9.291 48.308-15.682 72.403 7.904 6.218 12.326 9.998 21.767 17.619 6.202-23.641 12.036-47.14 16.505-70.992 22.449 21.084 42.93 46.497 74.89 61.089-3.623 21.061-6.226 42.2-9.002 63.324 9.409 2.956 14.349 4.171 24.495 9.589 3.254-29.795 7.339-59.16 14.114-88.666-46.544-27.216-72.435-60.015-109.931-92.696-22.064-19.234-30.666-19.187-59.246-5.363-22.449 10.86-44.568 18.944-64.36 32.289-15.21 48.771-39.902 96.131-51.585 145.372ZM925.101 292.019c18.763 21.115 38.475 41.714 55.961 63.363 9.26-27.444 16.293-55.185 25.448-82.637-10.284-15.462-19.826-31.756-35.602-44.929 4.971-16.583 9.589-33.214 15.235-49.696-7.245-8.35-10.978-9.825-18.129-16.968-14.764 43.549-28.259 87.294-42.913 130.867Zm36.978-38.421c7.261 7.19 10.977 10.82 18.112 20.896-3.536 11.761-5.363 18.348-8.836 30.023-7.277-9.738-11.04-12.248-18.348-20.339 3.614-12.217 5.496-18.905 9.072-30.58ZM990.314 367.025c7.472 9.214 11.236 13.832 18.816 22.081 6.82-25.93 15.6-51.618 22.45-77.579-6.38-10.883-9.66-15.557-16.54-25.813-8.24 27.122-16.117 54.244-24.726 81.311ZM1308.05 479.912c-11.56.996-17.47 1.396-30.2 1.851-2.53 14.349-4.87 28.808-5.26 43.282 12.68-.415 19.12-.784 32.33-1.568 1.44-14.49 2.04-29.035 3.13-43.565ZM1018.63 399.456a169.604 169.604 0 0 0 19.45 21.837c2.88-14.796 8.56-29.105 11.76-43.839 20.33 24.307 40.9 46.003 66.16 67.88-2.74 11.032-3.86 22.566-4.35 33.716 9.21 5.975 13.92 8.978 23.53 14.671.38-12.703.24-19.015 2.1-31.702 27.12 13.667 58.99 27.562 91.26 33.074-1.78 11.691-3.06 17.924-2.89 29.435 11.23 2.862 18.29.925 30.76.831.28-14.514 2.6-29.012 5.26-43.408-120.7-5.355-177.14-88.25-222.05-157.22-6.17 25.092-14.59 49.744-20.99 74.725ZM1589.49 623.708v-.611c.21-10.107.26-15.22.21-25.178v-.603c-.08-10.194-.23-15.4-.56-26.001-78.05-19.414-156.35-19.375-237.33-11.856.06-10.585-.22-16.552.08-25.467a250.095 250.095 0 0 1-30.01 2.94c-2.92 25.138-3.04 50.504-5.49 75.689 42.34.988 84.03-4.446 126.08 1.02 50.8 6.594 98.41 18.818 146.39 31.999 2.7-3.231.41-11.613.63-21.932Zm-35.75-35.504c.11 9.331-.18 13.228-.49 23.123-14.34-4.179-21.59-6.194-36-9.283h-.04c-14.43-3.137-21.26-3.725-36.07-5.489-14.8-1.741-22.5-3.082-35.95-4.038a323.115 323.115 0 0 0-32.8-.894c-12.8.173-19.02.541-31.27 1.356-12.26.785-18.03 1.631-30.27 2.039.4-6.939.53-10.452.78-17.423 12.04-.784 18.04-1.364 30.29-2.352 12.26-.964 18.49-1.443 31.37-1.803h.04c11.09-.428 22.19-.263 33.26.494h.04c13.94.831 21.64 1.356 36.16 2.579 12.01.933 23.97 2.503 35.81 4.705 14.3 2.486 21.39 3.921 35.22 6.869l-.08.117ZM1503.04 726.574l.22-.18c3.55-2.964 5.26-6.461 8.82-7.982l.21-.094c3.65-1.568 5.43-2.839 8.97-5.599-73.56-1.748-147.58-1.019-221.31-1.136 3.92-4.925 6.14-10.123 10.79-16.137-12.11-.455-16.2-.51-25.45-.784-7.84 14.725-16.9 25.718-30.18 38.224 79.15 1.898 159.83 5.677 238.77.463a81.435 81.435 0 0 0 9.16-6.775Zm-25.64-8.24c-3.56 2.211-4.71 4.963-7.66 8.625-11.66.611-17.75.392-29.95.039-12.21-.361-18.43-.69-30.58-.87-12.15-.173-18.44-.126-29.61.917-11.18 1.043-17.94.267-31.89.243-13.94 0-21.48-.086-33.88-.196-12.4-.102-16.04.141-25.09-.51a87.988 87.988 0 0 0 5.3-6.962c8.39 0 14.69 0 27.87.047 13.16.07 20.78.133 34.3.266h.04c13.51.126 18.65.212 30.43.047 11.76-.164 17.91-.164 30.18-.141 12.28 0 18.51.11 30.67-.086 12.15-.204 16.16-1.278 29.93-1.482l-.06.063ZM1538.17 712.72c-10.87 6.351-15.99 13.188-26.99 19.743 13.8-.784 20.39-1.983 34.01-3.387 10.84-5.489 16.29-10.577 27.44-15.117-13.84-.385-20.75-.557-34.46-1.239ZM858.178 474.416c-11.181 39.268-20.755 78.731-30.541 118.187 23.335 17.572 46.889 37.535 76.983 49.454 6.798-24.166 11.66-48.497 17.572-72.773-22.269-9.746-38.006-19.093-52.488-34.61a1150.31 1150.31 0 0 1 8.304-34.108c-7.857-11.393-11.762-16.717-19.83-26.15Zm30.243 105.218c-2.188 9.66-2.972 14.067-5.066 23.414-10.358-7.449-15.188-11.346-24.926-19.015 2.352-10.138 3.473-15.682 5.653-25.091 9.354 8.257 12.891 14.568 24.339 20.692ZM962.408 580.818c-10.436-1.482-15.729-2.031-26.581-6.053-5.716 24.252-10.609 48.496-17.658 72.584 10.742 3.685 15.988 5.081 25.742 6.437 7.825-24.158 13.494-48.441 18.497-72.968ZM1291.33 651.332c-11.94-.525-15.2-.651-25.88-1.89-3.72 11.464-7.36 22.363-15.39 32.776 11.82.455 17.58.627 27.59.917 6.42-9.903 9.56-21.398 13.68-31.803ZM1234.51 681.552c8.48-10.766 12.48-21.783 16.47-33.717-97.23-9.887-187.16-34.931-275.713-64.296-4.524 23.202-8.264 47.383-19.038 69.659 11.299-.486 16.529.275 27.005 1.569 7.896-12.264 9.848-26.824 12.89-39.989 30.576 8.625 61.946 15.917 93.446 22.786-3.41 14.615-6.43 17.508-11.7 25.875 11.24 1.27 16.89 1.968 28.23 3.528 5.09-8.201 8.07-9.738 11.1-23.687 32.66 5.645 65.74 12.804 99.06 15.721-4.36 9.48-6.87 13.69-12.09 20.7 11.82 1.153 18.15 1.294 30.34 1.851ZM1508.46 288.764c8.04-22.982 16.04-45.987 23.83-69-15.46 3.034-23.11 3.583-38.25 6.743-14.84 17.391-29.95 34.665-44.9 52.001-4.9-12.851-9.27-25.757-13.83-38.671-16.46 4.61-24.6 6.343-40.46 8.711-10.62 26.001-19.02 52.315-27.14 78.755 12.31-1.843 18.56-2.995 31.16-5.857 4.53-14.859 9.41-29.663 14.36-44.451 4.65 12.326 9.48 24.448 15.87 36.39 6.77-2.086 10.2-3.215 16.96-5.638 13.33-16.379 27.49-32.406 42.06-48.237a1529.762 1529.762 0 0 0-12.85 39.205c13.22-3.976 19.87-5.928 33.19-9.951ZM1529.92 252.092c-.4 1.082-.59 1.623-.98 2.698-7.11 10.577 3.35 26.118 22.57 20.512-1.83-16.2-2.8-32.36-3.21-48.614-9.8 8.656-15.51 17.461-18.38 25.404ZM1025.79 152.551c-.19-19.681.22-39.362.48-59.05-8.28-10.531-12.54-15.165-21.62-23.398-8.094 21.17-15.528 42.663-25.792 63.379 6.563 5.128 10.194 6.272 16.78 13.376 5.932-13.392 8.202-15.297 14.222-29.717.18 16.584.85 33.144.79 49.72 3.21 4.987 4.79 7.605 7.94 12.851 11.6-4.367 17.48-4.822 27.36-9.754-4.91 10.977-8.96 22.096-13.33 33.144 6.32 10.138 8.32 14.404 13.62 25.248 7.84-20.826 15.97-41.558 23.09-62.532-5.94-12.209-8.89-18.458-15-29.623-10.81 9.142-16.87 13.4-28.54 16.356ZM1060.97 207.03c-8.79 23.413-2.87 51.311 12.19 72.764 1.52 2.086 2.28 3.09 3.84 5.003 6.28 7.567 20.15 32.775 31.69 18.818v-.094c-5.95-9.817-8.83-15.18-14.51-25.24-.67 1.027-4.03 1.074-13.95-10.421l-.07-.078c-8.24-9.574-9.75-20.52-7.78-31.011 11.45 21.351 25.53 42.412 37.71 63.637.5-1.458.79-2.211 1.27-3.779 7.96-26.456 1.21-55.005-11.76-80.072-1.49-2.76-2.23-4.109-3.73-6.72-10.11-12.546-25.77-27.075-34.11-4.759-.29.799-.46 1.191-.79 1.952Zm31.24 21.876c.02.036.04.07.06.102 7.01 11.966 9.13 19.391 7.61 30.306-6.28-12.311-12.22-24.692-22.66-35.63 3.33-4.524 8.03-6.618 14.99 5.222ZM1176.97 295.319c-.89.502-2.11.236-4.31-2.399-3.92-4.705-5.85-7.261-9.63-12.491-22.07-27.89-36.85-24.181-45.36 6.814-1.08 3.858-1.57 5.583-2.6 8.79-7.84 23.523.31 51.468 19.65 71.353l1.75 1.897c7.57 8.5 40.08 32.447 43.72 7.52.24-.784.36-1.208.61-2.023 5.38-18.505-8.74-36.5-20.29-52.354l-.5-.675c-12.97-17.681-22.74-23.844-26.61-19.986.08-.29.11-.439.19-.73 3.96-15.572 10.74-13.251 24.05 5.575 4.38 6.203 6.63 9.261 11.22 14.843 13.88 21.359 27.88-8.993 29.85-17.25-7.84-9.574-11.44-10.342-18.51-17.846-.31.745-2.77 8.86-3.23 8.962Zm-29.18 33.136c9.98 12.852 13.98 22.112 11.76 28.51-.14.4-.2.596-.33.996-1.96 5.771-8.89 5.418-19.26-6.398-10.37-11.817-12.95-20.638-10.84-27.781.14-.47.21-.705.35-1.184 2.33-7.778 8.44-6.884 18.32 5.857Z"/><path d="M1257.19 434.983c2.35-18.34 6.34-36.437 10.52-54.612-29.62-4.07-49.33-10.531-69.7-26.66-4.13 10.609-6.67 21.775-11.6 32.007-1.83 3.803-4.07 4.023-6.88 1.984l-1.17-.855c-1.56 5.889-2.39 9.927-3.79 15.957 2.65 1.843 3.98 2.736 6.69 4.446 11.41 7.213 19.07 5.112 22.86 0 3.14-4.164 5.54-10.688 9.8-24.801 9.26 4.657 14.06 5.982 24.01 8.123-3.35 13.447-6.21 26.659-8.45 40.201 10.77 2.697 16.3 3.364 27.71 4.21ZM1285.04 353.633c-1.95 8.939-2.73 11.762-4.25 17.776 10.42 1.678 15.82 2.352 26.76 2.642 1.56-5.92 2.19-6.853 4.12-15.58-10.89-.902-16.26-2.039-26.63-4.838ZM1304.88 384.519c-8.95-.23-17.87-1.063-26.71-2.494-3.98 17.839-7.05 35.567-9.21 53.57 11.67.361 16.36.596 27.25.549a369.672 369.672 0 0 1 8.67-51.625ZM531.397 174.678c-3.451-11.338-7.175-22.112-12.773-33.011-15.4.604-24.496 3.262-37.551 2.666-8.743 19.093-16.513 38.327-24.119 57.671 10.131 1.623 15.188 2.352 25.272 3.693 4.9-13.628 10.193-27.161 16.034-40.601 4.807 13.33 7.841 26.911 11.048 40.452 6.061 0 9.096.063 15.141.118 15.071-13.706 30.235-27.256 46.184-40.452-6.822 13.4-12.703 27.02-19.015 40.546a221.79 221.79 0 0 0 29.388-1.859c9.77-23.609 19.203-47.281 29.012-70.898-13.016.243-19.532.878-32.932 6.336a47073.227 47073.227 0 0 1-45.689 35.339ZM672.472 130.816c-3.137.47-4.58.972-7.591 1.411-27.639 2.635-52.652 9.205-59.364 30.478-.486 1.2-.737 1.811-1.231 3.042-8.625 18.474-1.968 40.773 31.004 41.558 2.846.149 4.273.211 7.119.298 27.208.494 51.092-10.978 57.733-29.694l.055-.149a271.141 271.141 0 0 0-27.569-.157c-1.105 1.976-7.315 11.699-25.71 11.283h-.126c-15.282-.353-19.492-7.457-17.587-16.466 24.691 1.568 48.669-.572 73.415-.251.839-2.274 1.263-3.403 2.094-5.661 7.472-18.991 5.63-42.71-32.242-35.692Zm7.966 25.091c-18.317 1.011-27.091 3.215-44.694 1.701 5.113-7.057 12.86-9.338 26.66-11.095h.117c13.926-1.787 19.101 1.427 17.933 9.417l-.016-.023ZM809.062 97.923c-1.255.784-3.035 1.293-6.485 1.27-5.218-.1-10.438.13-15.627.69-40.342 4.548-61.787 23.523-71.855 50.37a824.153 824.153 0 0 0-3.92 10.382c-5.442 19.947-10.617 49.963 30.446 50.284h2.447c29.011-.854 56.204-13.925 64.711-33.763.494-1.074.785-2.023 1.333-3.536 3.921-14.945 9.229-44.153-24.307-43.988h-.784c-14.78 1.137-32.399 7.056-41.777 15.525l.275-.729c4.932-13.463 18.309-20.74 37.347-23.037a102.225 102.225 0 0 1 17.391 0c23.139 1.654 36.068-11.527 41.408-25.876a117.152 117.152 0 0 0-26.745-4.704c-.314.627-3.231 6.814-3.858 7.112Zm-43.126 53.616c15.682-2.297 20.599 5.128 16.145 17.117-.275.737-.416 1.114-.69 1.866-4.038 10.923-14.969 18.615-29.937 19.407-14.843.784-19.116-8.563-15.188-19.234l.643-1.749c4.21-11.4 13.502-15.133 29.035-17.407h-.008ZM815.327 185.216c-3.529 5.544-6.422 6.846-9.825 5.756l-1.411-.447c-3.607 8.468-5.489 13.118-9.19 22.237 3.136 1.09 4.704 1.686 7.778 2.94 13.024 5.269 22.739.784 28.894-8.499 8.625-12.922 14.192-26.974 19.266-40.899 9.048 5.026 13.478 7.441 22.158 12.436-7.629 19.955-15.682 39.832-23.366 59.772 9.025 5.637 13.447 8.585 22.221 14.113 11.033-29.874 22.465-59.67 32.548-89.708-21.688-9.904-44.599-18.921-67.213-27.695-7.111 16.505-11.816 34.289-21.86 49.994ZM880.768 258.185c8.719 5.269 13.031 7.794 21.75 11.448 9.888-29.161 20.763-58.306 29.671-87.592-7.112-7.7-10.327-10.734-18.936-14.898-9.935 30.47-21.532 60.729-32.485 91.042ZM946.624 139.652c-7.166-6.814-10.828-10.044-18.638-13.941-3.136 8.429-4.759 12.82-8.139 22.606 7.841 3.622 11.511 6.876 18.662 14.066 3.395-10.083 5.01-14.529 8.115-22.731ZM51.206 280.32c12.232-4.383 17.525-6.822 27.444-12.546a683.709 683.709 0 0 0 12.412-73.838c-9.276 11.565-14.38 15.682-26.66 23.303-9.785 15.682-21.547 29.568-35.15 43.721.65 7.308.925 11.182 1.348 19.195a251.502 251.502 0 0 0 32.03-38.193 1011.196 1011.196 0 0 1-11.424 38.358ZM92.473 225.08c-2.493 13.196 11.511 36.798 29.968 12.593 2.196-1.671 3.301-2.51 5.489-4.156 22.167-16.654 40.836-36.296 43.855-59.725v-.188c-10.593.635-16.223 11.534-25.021 14.764-.478 2.125-4.43 11.66-18.701 22.575l-.094.078c-11.855 9.08-15.878 7.222-16.082-1.568 17.47-16.466 37.229-29.976 60.996-41.769.297-2.203.446-3.285.744-5.426 3.701-20.528-12.326-42.169-38.271-18.301a38.728 38.728 0 0 0-5.952 3.552c-24.589 17.854-32.987 50.488-36.554 74.38a46.678 46.678 0 0 1-.377 3.191Zm38.774-62.156.094-.07c10.875-7.778 15.988-4.822 16.944 2.846-14.78 6.594-24.409 16.325-34.429 26.15 2.219-10.327 6.609-21.187 17.391-28.926ZM242.424 155.154c5.293 5.355 7.418 8.79 11.762 15.055 14.113 20.512 20.135 16.113 23.185 7.66-7.056-8.154-9.879-13.086-16.183-22.739-.188.181-1.333 2.572-1.702 2.353-.698-.314-1.701-1.326-3.787-4.376a122.465 122.465 0 0 0-10.138-13.329c-26.864-23.774-60.18-28.087-65.151 7.598a321.931 321.931 0 0 0-1.568 9.409c-4.517 28.839 10.271 40.608 37.001 59.286.863.595 1.286.909 2.149 1.521 6.531 5.026 41.855 32.148 46.018 13.369.259-.785.385-1.161.643-1.945 5.552-20.065-4.704-43.455-18.136-61.073l-.525-.675c-10.437-8.311-20.269-18.677-37.551-15.854l.173-.588c5.528-16.545 26.071-4.783 33.81 4.328Zm-10.248 19.179c10.295 8.421 16.466 19.508 13.808 30.713-.149.471-.22.698-.369 1.153-2.164 6.625-9.573 6.743-23.295-3.395-13.722-10.139-19.116-18.74-16.874-28.949.149-.667.22-1.004.369-1.694 2.422-11.213 11.542-9.942 26.361 2.172Z"/><path d="M328.025 294.277c7.284-18.607 15.752-36.979 23.397-55.515-28.917-7.943-51.39-11.04-71.98-28.643-6.877 26.001-8.625 28.879-10.531 31.748-1.905 2.87-3.92 2.306-6.272-.517l-1.035-1.176c-1.914 4.885-2.909 7.119-4.972 11.918 2.243 2.674 3.364 3.983 5.654 6.524 9.652 10.718 16.819 10.585 20.723 6.39 3.192-3.426 5.975-8.515 10.939-24.087 8.938 5.033 14.803 5.363 24.863 7.362-5.316 13.173-10.608 26.291-15.439 39.558 9.59 2.948 14.757 2.98 24.653 6.438ZM367.284 229.306c10.57 2.556 15.839 3.709 26.346 4.117 3.05-6.665 4.603-10.476 7.739-18.034-10.617-.949-15.949-2.157-26.659-4.666-3.011 7.543-4.501 11.448-7.426 18.583ZM338.092 298.095c9.88 3.834 14.835 6.657 24.895 10.193 7.277-21.123 16.663-41.816 25.178-62.728-10.389-.65-15.596-2.038-26.071-4.273-7.763 19.015-16.443 37.794-24.002 56.808ZM43.796 656.405c15.588-19.72 31.113-43.015 28.173-66.217v-.172c-9.103 8.005-12.718 10.083-19.124 21.704 0 2.352-1.45 11.33-10.86 30.579l-.063.134c-7.84 15.988-10.295 18.356-10.695 13.392 8.798-23.099 15.627-54.409 40.209-72.019-.345-2.415-.526-3.615-.87-5.967-.785-5.803-.926-20.113-8.54-23.931-8.146-4.077-18.48-3.403-18.402 8.688-1.498 3.011-2.243 4.54-3.748 7.378-10.193 19.14-16.247 39.801-17.407 60.25 2.352 15.353 6.045 31.364 7.182 46.913a498.601 498.601 0 0 0 9.997-14.498 288.787 288.787 0 0 1 4.148-6.234Zm-4.422-52.989.055-.157c5.426-17.517 9.323-19.548 10.977-12.334-7.135 17.101-13.455 34.226-18.834 51.649 1.074-13.134 3.317-26.369 7.802-39.158ZM134.971 598.092a186.58 186.58 0 0 1 3.05-.564c31.78-5.568 61.693-8.869 58.235-37.543 0-1.412 0-2.125-.047-3.552.047-18.756-11.197-48.52-37.409-57.757l-1.223-.055c-25.993-.949-44.765 19.36-53.688 33.897.047-.361.063-.541.11-.91 2.18-18.567 15.784-44.348 46.38-46.748 10.852-.635 15.211 1.992 20.959 6.571 23.656 20.81 37.989-24.354 40.428-31.772-10.193-7.057-15.071-10.546-23.9-17.893-.423 1.043-3.991 12.428-4.602 12.765-1.184.996-2.768 1.098-5.379-1.317-4.705-4.336-5.026-8.492-15.047-8.233-59.38 2.391-90.203 78.951-89.803 111.938.086 5.104.196 7.425.533 11.416 6.853 30.212 19.556 37.763 61.403 29.757Zm-28.62-40.201c0-.784-.054-1.207-.086-2.007-.172-13.463 13.001-25.091 29.255-30.956 18.615-6.681 33.41 5.339 31.144 18.034l-.196 2.196c-.87 12.976-14.662 22.237-31.246 26.016-18.865 4.312-28.369-1.012-28.871-13.283ZM285.566 639.21c.862-31.277 1.325-62.547 2.65-93.817-29.631-4.815-51.829-12.844-77.626-24.245-4.273 16.663-2.274 33.717-4.579 50.52-.918 6.704-3.09 7.574-6.704 5.912l-1.498-.69c.353 9.503.588 15.431 1.106 26.605 3.262 1.568 4.9 2.352 8.17 3.983 13.808 6.798 20.959 2.572 23.405-8.461 3.199-14.443 3.45-29.45 4.454-44.16 11.683 5.489 16.137 7.598 26.142 9.872-.612 22.48-.87 44.968-1.239 67.432 10.201 3.67 15.353 4.822 25.719 7.049ZM300.22 528.683c10.64 3.003 16.098 5.128 27.13 12.311.643-9.817.894-14.937 1.929-25.476-10.813-9.182-16.137-12.624-26.361-16.701-1.326 12.412-1.851 18.952-2.698 29.866ZM296.167 641.374c10.42 2.039 15.682 2.941 26.204 5.168 1.647-29.796 1.78-59.592 3.96-89.341-11.025-5.23-16.466-6.845-27.216-9.456-1.396 31.207-1.89 62.414-2.948 93.629ZM925.548 454.774c-1.482-21.916-1.451-43.91-2.172-65.864-10.194-9.496-16.333-13.142-24.864-24.598-9.558 27.036-21.955 53.523-31.364 80.52 6.971 8.75 10.24 13.902 16.599 25.593 5.364-16.709 13.056-32.462 19.916-48.865-.407 22.417 1.02 44.764 2.063 67.166 4.971 3.81 7.464 5.684 12.467 9.283 9.48-11.542 18.52-30.297 36.852-36.429-8.044 16.09-9.62 34.046-14.066 50.755 10.334 5.63 14.584 4.312 23.601 6.735 6.736-26.996 13.542-53.546 20.826-80.441-9.472-8.295-14.192-12.388-23.523-18.692-8.563 12.498-21.069 25.977-36.335 34.837ZM980.623 477.333c-5.113 24.832-1.568 49.296 29.097 64.907a200.44 200.44 0 0 0 5.91 2.941c11.56 4.885 40.39 18.928 44.97 1.764v-.086a185.459 185.459 0 0 1-24.03-13.401c-.68 1.035-5.63 3.482-20.3-4.547l-.1-.055c-12.2-6.689-16.219-16.121-15.58-28.549 18.42 15.047 37.12 32.54 61.1 43.423.32-1.348.5-1.913.78-3.638 3.2-24.048-8.84-44.764-30.67-63.002a274.69 274.69 0 0 1-5.88-5.285c-21.69-15.471-29.843-16.333-44.544 2.532a35.932 35.932 0 0 0-.753 2.996Zm43.467 11.189.1.07c11.05 8.406 15.47 14.114 15.77 24.017-11.52-9.73-22.7-20.073-35.61-28.917 3.34-4.689 8.76-3.505 19.71 4.83h.03ZM1132.95 515.416c-.78.283-2.16.11-5.03-1.372a831.324 831.324 0 0 1-12.64-6.673c-26.26-16.105-49.63-4.265-47.64 19.219-.34 4.226-.5 6.5-.92 10.35-4.7 20.904 10.45 36.892 38.07 43.125l2.3.628c15.88 4.304 46.7 9.095 48.9-8.9.07-.682.1-1.019.17-1.701 1.14-14.953-19.08-29.012-35.18-36.728l-.68-.313c-17.47-7.951-28.17-6.124-32.04-1.859 0-.274 0-.407.06-.682 1.03-14.474 8.26-14.012 26.11-6.5 5.88 2.47 8.88 3.795 14.98 6.484 19.93 8.79 27.31 3.427 27.68-8.711-9.12-2.195-13.78-5.708-22.96-10.585-.15.431-.72 4.156-1.18 4.218Zm-23.14 30.666c13.39 4.987 19.97 10.405 19.33 16.412-.04.376-.06.564-.09.933-.59 5.426-7.98 8.045-21.81 4.006-13.83-4.038-19.05-9.699-18.44-16.199.05-.423.07-.635.11-1.066.7-7.002 7.62-9.033 20.9-4.086ZM1242.77 608.026c.51-14.819 1.57-29.647.86-44.466-25.93-3.184-50.61-10.052-76.05-14.6.56 27.843-1.39 25.875-2.73 28.957-1.33 3.081-3.66 3.575-7.16 2.532l-1.45-.423c-.54 4.861-.79 7.324-1.38 12.287l8.06 2.274c13.69 3.92 21.17.823 23.86-4.768 2.21-4.555 3.55-11.291 3.51-23.977 10.19 1.646 15.53 2.744 26.18 4.751.07 11.048-.55 22.151-1.34 33.183 11.13 1.671 16.82 2.611 27.64 4.25ZM1256.41 540.766c-.24 5.183-.36 7.786-.72 13.032 11.71-.659 17.61-1.137 29.68-2.039.5-5.01.7-7.496 1.08-12.475-12.22.737-18.2 1.09-30.04 1.482ZM1285.37 561.851c-12.15.502-18.1.784-29.87 1.427-.28 15.47-1.63 30.917-1.9 46.395 10.39 1.482 15.23 1.616 27.38 1.859 1.8-16.568 3.59-33.066 4.39-49.681ZM1413.77 651.136c-11.18 7.841-23.13 15.721-35.84 22.339-5.77-6.469-8.75-10.907-15.57-19.704-13.9.454-21.75.109-36.81-.659-4.75 10.538-12.25 21.335-20.59 30.705 10.47.33 16.52.588 28.48 1.004 5.49-7.245 8.3-8.625 12.96-15.847 6.4 7.473 9.3 8.978 15.19 16.725 5.99.165 8.89.235 14.16.353 13.63-7.535 21.3-10.499 35.8-18.199-4.06 7.535-6.21 10.193-10.63 18.685 11.66.204 17.69.306 29.68.549 5.72-11.926 12.81-22.974 18.49-34.9-14.32-.855-21.48-1.082-35.32-1.051ZM1525.66 659.769c-3.76-.784-5.49-.706-9.18-1.004-22.42-1.568-53.37-6.453-67.03 10.194-.31.431-.47.635-.78 1.035-8.55 16.293 30.43 19.602 42.74 21.515 3.48.486 5.23.737 8.69 1.184 19.25.925 49.55 5.756 65.33-4.563l.05-.055c-13.33-2.188-20.04-3.45-33.35-6.39-1.06.705-6.73 5.065-29.51 1.96h-.16c-18.93-2.588-25.53-6.987-24.87-11.15 30.47 4.399 59.99 7.974 90.08 13.533.71-.901 1.06-1.364 1.76-2.352 9.77-14.827-31.41-20.888-43.77-23.907Zm12.92 14.027c-18.43-2.352-36.8-3.544-55.3-5.567 5.31-2.03 15.26-2.532 32.15-1.482h.14c17.11 1.059 23.47 5.097 23.01 7.049ZM913.527 675.545c-11.887-2.235-17.987-3.92-30.196-7.927-14.952 1.756-21.507 5.144-36.068 4.156-2.909-2.721-5.23-11.621-8.868-21.171a228.694 228.694 0 0 1-27.718-13.675c-8.782 11.542-14.796 12.177-24.982 27.083 7.747 1.388 12.107 4.226 21.406 8.437 6.508-8.5 9.739-7.449 15.125-13.4 3.082 9.307 4.227 10.53 7.191 21.954 4.955 1.569 7.417 2.314 12.263 3.654 14.326-5.433 21.28-5.575 35.888-6.759-5.371 4.297-8.515 7.802-14.341 13.165a256.509 256.509 0 0 0 25.828 9.19c10.021-7.316 15.188-15.204 24.472-24.707ZM999.653 703.405a28.483 28.483 0 0 0 1.667-1.796c11.89-14.898-14.237-22.159-30.836-23.703a496.172 496.172 0 0 0-7.198-.463c-15.51-.345-42.828 1.419-53.531 11.024l-1.019 1.294c-9.95 15.51 14.483 17.117 29.686 18.395 2.533-.055 3.795-.117 6.328-.298 15.47.784 39.252 3.78 52.864-2.885l.047-.039c-10.389-.91-15.533-2.478-25.875-3.019-.965.58-7.496 1.074-23.79 1.85h-.11c-13.541.635-17.626-2.525-16.207-6.539 22.849 1.686 45.431 3.058 67.974 6.179Zm-38.476-19.164h.117c13.487.957 17.87 5.105 17.039 9.229-16.788-2.117-25.421-1.984-41.22-3.834 4.391-4.211 10.695-6.351 24.064-5.395ZM1070.93 687.401l16.74 2.266c22.02 2.964 33.3-2.964 37.82-9.308-10.19-1.113-15.82-2.062-26.45-3.363-.32.251-2.57 2.807-3.19 2.901-1.13.251-2.82.329-6.14 0-5.94-.659-8.9-.973-14.81-1.568-24.85-2.957-54.44-1.631-64.67 17.25-1.23 1.858-1.85 2.713-3.14 4.297-12.542 13.47 22.08 17.399 33.66 17.869l2.48.188c19.24 1.435 45.54 3.372 61.25-6.531.38-.322.56-.478.94-.784 9.28-8.374-14.77-16.137-29.06-17.862l-.74-.086c-19.21-2.313-33.09.384-38.81 2.822l.22-.329c4.6-7.072 13.69-10.515 33.9-7.762Zm-11.76 13.196c14.68 1.38 20.38 4.548 17.25 7.551l-.5.462c-2.88 2.627-12.61 4.219-27.44 2.839-14.74-1.364-19.6-3.34-16.6-6.383l.49-.509c3.19-3.372 12.24-5.324 26.8-3.96ZM1182.66 728.339c8.96-8.9 13.72-11.942 22.62-22.982-25.57-3.654-51.75-4.705-77.43-7.692-9.59 15.972-12.55 14.772-15.39 16.238-2.84 1.466-5.77 1.819-9.47 1.498l-1.57-.133c-2.56 2.352-3.83 3.504-6.37 5.841l8.55.635c14.43 1.067 23.48-.102 28.35-2.258 3.92-1.748 7.7-3.176 13.63-11.048 10.19.784 15.34 1.035 25.88 1.811-6.28 8.124-9.69 9.66-15.99 15.894 10.68.855 16.11 1.27 27.19 2.196ZM1256.96 693.038c-11.15-.486-17.15-.784-28.95-1.568-2.45 3.685-3.73 5.403-6.27 8.853 11.76.784 17.82 1.027 29.23 1.489 2.46-3.567 3.67-5.229 5.99-8.774ZM1246.43 708.297c-11.58-.635-17.67-.972-29.37-1.85-9.12 11.957-13.94 14.019-23.01 22.864 11.26.98 16.99 1.568 28.73 2.109 9.44-8.868 14.76-10.013 23.65-23.123ZM436.52 452.963a2964.173 2964.173 0 0 1-6.123-54.707c-11.942.494-17.87.596-30.173-.604-7.982 32.933-13.478 66.233-21.735 99.15 9.355 1.984 13.62 2.031 21.869 1.309 6.037-18.52 7.613-37.848 11.957-56.612 2.69 17.572 6.273 35.175 7.441 52.848 4.391-1.238 6.555-1.952 10.931-3.403a478.272 478.272 0 0 1 36.703-58.964c-6.39 17.517-12.624 34.94-17.61 52.692a131.611 131.611 0 0 1 22.621-5.191c10.977-25.875 24.973-50.967 36.014-76.842-12.852 2.525-19.062.722-30.58-5.245-18.701 15.987-30.133 36.664-41.315 55.569ZM566.618 403.071c-2.846-1.02-4.265-1.514-7.057-2.408-34.641-11.761-52.817 23.657-60.093 40.327-1.286 2.956-2.305 6.492-3.278 8.86-6.641 16.16-3.654 44.106 30.298 35.653a54.731 54.731 0 0 1 6.704-.102c21.375 1.89 49.014 4.399 56.212-14.255-10.875-6.649-15.949-9.997-26.463-14.576-1.945 2.038-7.943 6.735-25.303 4.587h-.126c-14.553-1.78-18.348-7.394-15.352-17.031 28.157-3.183 49.751 10.366 69.722 22.237a83.391 83.391 0 0 0 4.751-11.016c7.002-19.924-2.909-42.514-30.015-52.276Zm6.171 34.586c-16.842-7.66-25.452-10.687-42.796-9.989 5.355-8.484 13.071-13.573 26.479-9.566h.118c13.541 4.093 18.418 11.934 16.215 19.555h-.016ZM605.039 453.065a90.246 90.246 0 0 0-4.234 11.016c-8.202 26.111 3.238 53.962 36.978 68.719l2.728 1.286c30.58 13.494 45.478 8.774 53.46-17.25a89.127 89.127 0 0 0 2.611-9.809c3.137-17.8 3.388-40.186-22.166-50.967l-.674-.259a44.144 44.144 0 0 0-37.637 2.682c.084-.245.197-.479.337-.698 3.92-11.91 17.783-22.778 35.441-14.153 6.14 2.305 9.19 3.434 15.251 5.622 26.267 8.108 37.966-18.818 43.98-31.082-9.738-2.14-14.514-3.207-24.229-5.974-.36.784-7.229 8.625-7.935 8.993-1.231.91-2.924 1.302-5.959.306-5.441-1.788-8.178-2.729-13.659-4.642-38.687-14.835-64.1 14.192-74.293 36.21Zm22.739 31.583c3.442-12.608 16.85-15.203 29.662-9.409 13.259 6.014 16.082 15.274 13.871 26.267-2.76 13.691-10.515 16.921-26.605 9.762-15.47-6.845-19.751-16.45-16.975-26.62h.047ZM701.123 523.21c-3.301 7.88-6.187 8.406-8.508 7.692l-1.215-.376c-2.878 10.036-4.203 14.992-6.61 24.887a73.254 73.254 0 0 0 9.958 3.356c9.566 2.58 13.996-4.352 20.387-16.905 7.464-14.663 12.78-30.211 18.724-45.36 9.511 2.109 14.271 3.058 23.931 4.806-8.265 20.991-15.965 42.02-22.896 63.254 9.37 1.403 14.075 2.046 23.688 3.348 10.028-28.965 21.351-57.592 33.324-86.173-23.774-3.873-46.513-8.531-69.448-14.364-7.574 18.504-13.251 37.456-21.335 55.835ZM831.236 478.697c3.693-8.703 5.567-13.047 9.409-21.602-7.841-6.774-11.918-9.762-20.457-14.357-4.171 10.099-6.21 14.443-10.13 23.649 8.742 3.685 12.961 6.233 21.178 12.31ZM768.469 569.237c9.777 1.309 14.749 1.96 25.091 3.403 9.895-26.22 19.649-52.441 30.196-78.535-8.437-5.568-11.723-9.504-21.759-10.907-11.911 28.557-23.304 57.153-33.528 86.039ZM1445.59 454.672c-13.6 12.365-27.63 24.503-40.92 37.041-7.96-9.41-11.9-13.989-19.51-23.359-14 2.58-20.82 3.921-34.32 6.124-4.54 15.376-8.57 30.76-12.39 46.262 10.25-1.294 15.33-2.172 25.64-3.92 2.74-10.735 4.07-16.239 7.01-26.911 7.36 8.908 11.15 13.526 18.45 22.543 6.03-.972 9.08-1.435 15.31-2.211 12.78-11.244 25.43-22.527 38.54-33.575-4.04 12.153-6.49 17.689-10.56 29.113 12.79-1.819 19.46-2.415 32.62-3.63a1144.468 1144.468 0 0 0 18.52-55.514c-15.11 3.371-22.95 4.861-38.39 8.037ZM1554.03 432.984c-3.55.408-5.33.627-8.86 1.082-29.44 3.677-53.17 16.599-60.25 37.284a29.183 29.183 0 0 0-1.23 5.92c-2.28 20.387 27.37 20.002 47.83 20.583 3.21 0 4.84 0 8.11.125 28.29 2.094 52.71-3.262 58.97-24.229-12.86-.298-19.6-.619-32.83-.682-1.57 1.913-6.83 6.869-28.11 8.076h-.15c-17.83 1.028-24.12-1.74-23.9-8.272 28.97-3.693 56.91-3.92 86.26-3.583a54.6 54.6 0 0 0 1.35-6.061c-3.13-10.037-4.58-14.953-7.4-24.307-6.83-4.964-19.54-8.273-39.79-5.936Zm16.8 23.335c-17.81.886-35.43 1.819-52.91 4.563 4.22-6.39 12.32-11.189 29.01-12.898h.15c16.8-1.733 23.53 1.615 23.75 8.335ZM1228.21 100.949c.6.612.91.918 1.51 1.568 14.67 19.932 37.73 17.729 49.94-1.325a90.205 90.205 0 0 0 5.19-10.02c7.77-18.427 12.42-38.555-6.92-54.887l-.51-.408c-12.77-10.272-24.53-11.025-30.28-9.41.11-.196.25-.378.41-.54 4.61-6.36 9.06-9.316 14.26-9.15-10.34-5.772-15.1-9.457-24.48-15.777a75.002 75.002 0 0 0-10.93 14.396c-1.95 3.211-3.73 6.525-5.32 9.927-11.14 23.836-12.13 53.358 7.13 75.626Zm6.59-51.358c5.65-12.2 15.3-10.86 24.48-1.82 9.48 9.363 9.89 18.458 4.86 29.06-6.28 13.211-16.02 13.91-25.17 3.92-8.78-9.574-8.73-21.304-4.17-31.16ZM1274.95 113.761l-1-.854c-5.18 8.389-7.77 12.89-12.78 21.413 3.2 3.388 4.82 5.042 8.13 8.077 8.03 7.37 14.35 3.403 23.33-7.293 11.25-13.392 20.14-28.094 28.79-42.655a133.202 133.202 0 0 0 21.46 10.845c-12.45 21.625-25.6 43.023-37.79 64.743 7.1 4.155 14.66 7.468 22.52 9.871 17.13-31.575 34.41-63.096 54.1-93.927-25.14-5.959-43.54-12.851-64.07-24.777-11.52 16.466-19.6 34.923-33.06 50.621-4.92 6.132-7.72 5.559-9.63 3.936ZM1363.05 184.769c18.22-31.215 37.29-61.943 56.5-92.876a186.149 186.149 0 0 1-27.24-5.026c-19.85 30.979-37.91 61.944-54.98 93.786 9.67 2.321 14.41 2.705 25.72 4.116Z"/></g></svg>