<svg fill="none" xmlns="http://www.w3.org/2000/svg" viewBox="0 0 1503 1066"><g opacity=".5" stroke="#E6E6E6" stroke-width=".75" stroke-miterlimit="10"><path d="M270.574 699.076c9.106-6.971 13.43-3.309 21.878-10.632-9.135-.612-13.602-.784-22.544-1.31-7.961 7.975-11.899 2.564-20.798 9.856l21.464 2.086ZM100.021 694.097c10.939-3.921 16.975-2.87 28.508-3.968 6.622-4.061 9.815-6.178 15.815-12.106 31.75-.941 55.898 5.371 85.967 10.773-4.933 1.921-6.98 1.568-12.206 5.403 7.875 1.184 11.869.862 20.203 1.717 8.705-6.955 12.471-1.529 20.16-9.48-36.848-2.086-69.444-18.395-106.672-18.544-43.37-.165-91.136 15.761-124.14 35.841 0 1.129.33 2.8 0 4.046 28.572-11.369 57.99-17.25 88.201-25.248-6.135 6.697-9.479 7.394-15.836 11.566ZM399.045 714.405h.086a9.73 9.73 0 0 0 3.852.157h.1c1.654-.321 2.513-.604 4.295-3.003-33.97-7.998-82.831-2.141-118.842-3.254 3.837-1.827 5.813-3.199 9.937-5.402-9.55-.573-14.204-.847-23.289-1.247-11.705 6.727-17.311 5.692-27.462 10.977 28.286 2.086 57.473 4.571 85.358 4.932 20.583.267 42.454-5.536 62.593.298 1.224-1.984 1.861-3.693 3.372-3.458Zm-11.455-3.136a9.231 9.231 0 0 1-3.694.917c-6.028.079-9.013.596-15.084 1.349-6.078.784-9.142 1.231-15.457 1.207-6.321 0-9.407-1.662-16.466-.784-7.052.886-10.739 1.286-17.003-1.144-6.236-2.439-11.455-1.396-20.647-1.169-9.192.22-13.788 0-22.909-.329 2.326-.565 3.479-.329 5.87-.784 9.178.439 13.825.635 23.174.392 9.343-.251 11.906 1.568 18.264 1.984 6.357.415 10.531-2.141 17.182-1.827 6.65.313 9.858 1.615 16.151 1.568 6.293-.047 9.357-.439 15.456-.941 6.093-.494 9.1-.784 15.171-.471l-.008.032ZM403.434 720.984c6.3 3.136 9.385 7.598 21.72 9.832 8.52-7.527 15.636-9.284 26.983-17.109-14.067-2.297-22.623.431-33.805.267-9.264 10.264-11.111 1.866-14.898 7.01ZM642.758 733.819l.115-.133c1.933-2.25 2.863-3.136 4.51-5.042l.1-.117a23.785 23.785 0 0 0 3.794-5.262c-7.159-1.693-10.545-2.854-17.633-4.32a53.453 53.453 0 0 1-4.073 6.743l-.1.141c-1.676 2.306-2.628 3.458-4.682 6.046l-.122.157c-2.148 2.658-3.258 4.218-5.642 7.057a77.08 77.08 0 0 1 18.407.423 66.857 66.857 0 0 0 5.326-5.693ZM608.587 739.88c11.963-7.943 10.023-12.114 15.872-22.629-51.124-8.523-103.93-3.183-155.548-2.038-10.853 8.452-16.358 7.888-26.911 17.532 14.734 1.412 21.621 4.916 35.001 6.594 6.443-7.943 9.357-11.471 16.359-17.579 13.244-.424 19.852-.965 33.054.149-7.002 6.445-9.737 9.519-16.466 18.889 13.294.086 19.881.784 33.19-.196 7.159-9.574 10.867-12.93 17.01-19.524 13.445.603 20.146 1.568 33.49 2.65-6.307 5.387-10.173 8.131-17.762 15.376 13.145-.313 19.688-.439 32.711.776ZM362.963 821.639c.057-.157.079-.236.136-.392 2.205-6.563 3.179-8.923 5.155-15.863.043-.172.071-.251.114-.423 2.012-7.057 2.821-10.554 4.704-17.117-42.554-26.134-93.721-32.148-146.369-38.609 5.154-9.127 5.913-12.938 8.956-15.259-8.749.22-13.044.784-22.194 1.38-16.824 9.707-28.93 45.063-37.886 60.274 46.678-17.689 147.185 17.776 181.292 40.828 2.606-4.477 3.823-8.1 6.092-14.819Zm-15.034-29.122c-2.148 5.716-3.429 9.041-5.656 15.078-7.596-5.527-11.92-5.088-19.945-7.496-8.033-2.415-12.973-4.924-22.523-7.801a225.79 225.79 0 0 0-24.119-6.054 200.816 200.816 0 0 0-24.055-3.654c-9.522-.948-14.268-1.803-23.453-2.579-9.193-.784-13.159-.478-21.578-1.137 3.944-5.967 6.264-8.727 10.345-14.451 8.168.345 12.7.455 21.62 1.262 8.906.784 13.431 1.341 22.616 2.658 9.178 1.318 13.846 2.102 23.239 3.921 9.393 1.858 14.146 2.917 23.575 5.395 9.429 2.469 12.994 4.861 20.533 7.056 7.538 2.227 11.218 3.051 19.43 7.653l-.029.149ZM400.806 810.426a215.595 215.595 0 0 0-18.227-15.612c-4.045 16.467-7.94 33.231-15.135 49.101 8.405 6.1 12.35 10.193 19.867 19.195a556.03 556.03 0 0 0 13.495-52.684ZM566.512 889.008c.101-.305.144-.462.244-.784 4.109-13.094 5.849-15.125 9.786-23.75-11.268-.204-16.774.133-27.877 1.945-3.659 8.625-5.477 13.329-9.085 23.617-.079.243-.122.36-.208.603-3.522 10.053-5.348 18.372-8.82 31.576a63621.333 63621.333 0 0 1-8.892 33.803c10.438 1.16 15.543.509 25.838 1.795 3.028-11.534 6.056-23.06 9.178-34.579l.229-.784c2.999-11.173 6.164-22.339 9.607-33.442ZM508.072 954.159c7.704-28.627 14.763-57.082 26.246-84.973-58.763 5.222-91.781-14.302-124.963-50.362-2.757 18.598-7.969 37.166-12.83 55.467 7.31 8.962 10.854 13.408 17.626 22.409 2.613-14.388 5.413-28.737 7.789-43.125 5.9 7.182 9.307 9.472 19.738 15.509-5.505 16.67-8.884 33.081-11.54 50.183 6.157 9.276 14.518 8.005 24.57 15.556 3.78-16.27 7.216-32.25 13.602-48.057 10.145 7.276 17.333 5.488 28.802 6.273-7.589 18.246-11.584 37.401-16.631 56.118 11.469 2.352 16.917 3.34 27.591 5.002ZM206.607 729.319c6.4-6.453 8.791.643 15.084-6.414-8.927.439-12.385 2.352-21.857 1.192-7.059 7.229-7.918-3.301-15.814 4.249 11.397-.611 13.402.824 22.587.973ZM58.928 719.055c31.672 3.434 63.774 4.704 95.675 7.598-5.62 4.163-8.448.125-14.075 1.725 11.519.494 17.289.627 28.751.462 8.126-5.739 11.899.698 18.499-6.806-54.624-4.634-110.25-3.136-164.911-3.285a25.34 25.34 0 0 1-.158-2.737 91.064 91.064 0 0 1 10.023 0c-4.037-2.258-6.343-1.152-10.495-.784-.057.314-.086.526-.143 1.035 8.992 1.647 13.538 2.674 22.694 4.384 5.606-1.231 8.42-1.874 14.14-1.592ZM766.54 705.906c-17.182-3.074-32.681-6.485-49.205-11.252 3.744-2.925 6.837-3.309 12.128-7.794-9.937-3.921-12.98-5.716-20.325-7.512-7.596 10.664-17.998 19.728-25.873 30.227 20.396 3.921 40.936 6.689 61.483 10.052 8.19-5.496 12.736-8.703 21.792-13.721Zm-40.191 4.594c-10.238-1.842-13.474-2.203-20.49-3.857a25.947 25.947 0 0 1 5.362-6.924c7.052 1.349 12.335 2.846 22.544 5.206-3.035 2-4.517 4.101-7.416 5.575ZM802.636 714.985c-9.873-2.626-15.657-5.818-24.599-7.213-8.448 5.238-12.758 9.103-20.762 14.466 10.023 2.063 13.753 1.239 23.955 3.874 8.068-4.493 12.357-8.037 21.406-11.127ZM1112.61 751.093c-11.07-.494-16.53-.784-27.24-1.929-8 9.692-11.73 12.663-18.67 26.424 10.43 1.608 15.75 2.353 26.52 3.419 7.32-14.388 11.18-18.364 19.39-27.914ZM1071.7 747.58c-85.803-11.259-171.82-14.294-256.821-29.67-8.878 2.76-13.073 6.273-20.998 10.907 10.066 1.756 15.034 2.148 24.942 2.948 5.155-2.901 7.918-2.266 13.424-4.265 29.016 4.014 57.617 8.311 87.055 9.887-5.892 2.674-9.349 4.085-14.168 7.841 10.968 1.984 16.517 3.184 27.613 5.583 5.012-5.583 8.09-6.586 13.767-10.193 31.071 4.124 62.196 7.731 93.296 11.651-4.81 6.563-6.61 8.155-11.53 17.172 10.64 1.568 14.86 2.352 25.1 4.07 6.81-13.769 10.45-16.459 18.32-25.931ZM1281.47 858.719l.22-.463c3.52-7.77 5.34-11.612 8.97-19.328.09-.188.13-.282.22-.463 3.73-7.903 5.6-11.855 9.31-19.837-60.68-4.415-120.62-10.978-181.23-13.197 3.16-5.434 6.59-10.67 10.28-15.682-11.19-.07-16.77-.65-27.58-.988-14.75 20.144-21.81 42.028-30.2 64.108 66.45 12.617 132.36 25.091 201.29 25.993 3.34-8.186 5.11-12.177 8.72-20.143Zm-16.64-21.171c-3.1 7.896-4.64 11.573-7.88 19.602-9.4-.243-14.77-.784-25.55-1.662-10.79-.917-16.5-1.458-26.91-2.242-10.4-.784-14.94-.055-23.3-2.353-8.35-2.273-13.13-2.783-23.17-3.92-10.02-1.145-15.46-1.513-26.23-3.137-10.78-1.568-16.19-3.559-26.66-5.488 2.86-7.567 4.29-11.385 6.97-18.975 10.81 2.43 16.55 3.136 27.5 4.422 10.94 1.325 16.36 1.756 26.11 3.348 9.74 1.568 13.28 4.94 21.85 5.269 8.59.337 14 .533 24.92 1.145 10.94.612 16.84 1.027 27.65 1.874h.03c10.8.847 15.67 1.929 24.7 2.007l-.03.11ZM1339.32 822.564c-8.54-.98-13.99-1.568-25.06-2.666-9.37 20.034-18.97 39.989-28.01 60.117 11.07 1.192 16.96 2.101 27.49 3.967 9-20.371 17.64-40.781 25.58-61.418ZM1464.04 855.676c11.39-19.602 21.77-39.902 37.22-57.898-49.74 7.794-97.87 19.368-148.43 23.131-9.55 21.689-17.49 43.675-26.62 65.449 9.4 1.929 14.39 1.153 26.57-1.254 6.5-14.726 13.08-29.428 19.96-44.051 11.71-.408 17.39-1.764 28.99-4.399-7.24 14.992-13.6 30.227-19.97 45.478 11.25-3.191 16.88-4.877 27.92-8.39 6.75-14.898 13.31-29.866 21.19-44.435 11.45-3.089 17.18-4.705 28.63-7.715-8.44 14.113-15.48 28.737-22.76 43.243 10.85-3.693 16.28-5.56 27.3-9.159ZM710.133 790.855c-14.133-8.751-27.671-18.034-42.082-26.542 2.413-11.032 3.58-4.461 6.193-7.841a170.4 170.4 0 0 0-19.867-6.908c-17.697 16.051-18.736 44.404-25.286 64.045 25.773 8.328 42.726 23.821 63.588 37.582 6.772-19.9 14.01-39.895 17.454-60.336Zm-31.78 25.499c-8.426-5.842-12.385-10.256-20.762-14.663 2.413-7.708 3.523-11.103 5.62-18.395 8.319 5.261 12.536 8.178 21.027 13.808-2.162 7.629-3.379 11.487-5.885 19.25ZM743.473 804.882c-10.095-1.435-14.319-3.136-22.795-7.841-4.074 20.552-10.417 40.429-17.261 60.525 8.698 4.814 13.101 6.861 21.893 10.907 7.023-21.092 13.359-42.122 18.163-63.591ZM1040.06 899.798c-9.5 0-15.11-2.039-26.09-5.136-9.67 20.653-16.962 41.933-23.541 63.284 10.741 3.341 16.111 4.893 26.871 8.484 7.41-22.197 14.62-44.599 22.76-66.632ZM976.712 953.532a517.31 517.31 0 0 1 23.188-62.83c-48.231-14.474-82.388-38.421-125.486-59.293-35.889-17.4-78.522-17.815-118.541-24.59-5.248 22.371-12.035 44.325-19.437 66.359 9.636 2.65 14.44 2.501 23.682 2.791 4.525-14.577 9.615-29.012 13.724-43.674 29.231 2.783 55.426 5.237 83.261 13.008a1785.164 1785.164 0 0 0-13.409 36.798c9.772 2.03 14.591 3.379 23.855 7.582a368.172 368.172 0 0 1 12.542-33.92c26.769 17.077 54.195 33.606 85.438 45.383-5.885 13.871-11.39 27.938-14.683 42.342 10.073 4.618 15.299 6.453 25.866 10.044ZM65.234 927.265c8.148 10.193 12.543 15.768 21.822 25.365 10.316-37.856 24.341-74.654 38.466-111.718-7.389-10.084-15.586-19.603-23.174-29.577-20.16 34.697-26.897 78.873-37.114 115.93ZM21.041 721.023a171.088 171.088 0 0 0-.15 4.705c24.34 12.608 33.397 46.261 42.396 65.997-8.784 30.674-18.184 61.246-27.641 91.803 6.285 10.114 12.571 20.253 19.33 30.195 6.25-21.954 12.886-43.909 19.58-65.817 4.81-15.737 6.593-36.79 17.29-50.488-20.992-28.283-38.91-54.55-70.805-76.395Z"/><path d="M365.511 705.004c5.835-1.709 10.997-15.353 18.077-25.178a140.73 140.73 0 0 1-17.998 6.344c-10.073 4.163-15.571 2.995-26.074 10.758-1.632-4.705-2.491-3.199-4.131-3.419-7.796 2.148-6.601-1.639-17.618-2.886-8.828 5.152-13.424 5.826-22.666 10.798 8.304.784 12.564 1.215 21.384 1.96 5.291-.933 4.195-5.003 7.589-8.233.988 4.704 1.432 11.15 2.899 10.232 2.993-.619 4.711-1.207 8.054-1.991 10.195-1.028 15.106-2.023 25.093-8.524-4.388 6.273-7.259 9.331-10.524 9.896 6.494 1.325 9.679 1.16 15.915.243ZM418.375 666.261a15.17 15.17 0 0 0-4.453 1.02c-14.24 4.783-29.002 14.168-34.78 25.679-.3.588-.458.878-.759 1.458-4.846 9.237-2.248 7.692 16.975 2.11a76.058 76.058 0 0 1 3.816-1.035c15.642-2.47 31.836-5.85 46.455-10.931h.058c-13.681-.596-19.437 1.819-29.174 4.642-.931.886-5.24 1.984-15.184 4.877h-.065c-8.262 2.407-10.588 2.352-9.364-1.568 17.79-5.685 37.478-7.692 56.386-9.103a15.591 15.591 0 0 0 2.147-1.435c16.481-14.608-21.32-16.905-32.058-15.714Zm4.918 12.546c-16.638 2.172-17.776 2.658-27.355 5.708 3.114-4.571 7.667-8.311 15.227-10.248h.072c7.632-1.952 13.123.517 12.063 4.556l-.007-.016ZM498.128 694.45l2.863.047c22.093 0 49.298 4.516 70.54-1.569l1.066-.533c6.723-11.291-23.51-16.34-33.44-18.646l-.852-.196c-14.318-4.116-31.329-4.877-45.031.949.107-.157.157-.243.257-.4 7.081-11.761 26.153-11.393 39.333-6.633 7.674 1.976 11.634 3.136 19.501 5.018 14.025 2.227 36.727 7.543 44.788-6.077-12.485-4.101-18.714-4.438-31.228-7.057-.387.063-3.093 2.149-3.816 2.211-1.353.244-3.329.126-7.238-1.019-7.002-2.062-10.739-3.748-17.454-5.575-31.042-10.052-59.614-.619-75.78 21.296a42.06 42.06 0 0 1-3.737 4.485c-14.089 13.503 32.825 13.879 40.228 13.699Zm-10.539-8.978.587-.471c3.83-3.089 14.376-6.97 31.307-4.846 17.068 2.149 23.626 5.983 19.953 8.461l-.573.376c-3.307 2.157-14.483 1.851-31.758 1.224-17.139-.596-23.081-1.969-19.516-4.744ZM639.744 704.141c6.063-4.336 9.206-1.388 15.993-13.784-21.077.353-36.104-.784-56.557-5.614-12.779 8.789-15.486 10.052-18.772 10.593-3.286.541-6.615.329-10.803-.181l-1.732-.211c-3.022.925-4.539 1.207-7.561 2.211 3.874.298 5.814.47 9.687.839 16.351 1.568 27.205 2.219 33.426 2.282 5.011.047 8.741 1.27 13.159-4.752a94.791 94.791 0 0 0 17.368 1.615c-4.675 5.316-6.916 4.274-11.34 5.779 6.958.439 10.38.619 17.132 1.223ZM679.391 689.973c-6.665-.04-10.023.086-16.738.25-6.858 11.801-9.98 11.041-16.065 14.444 6.687.548 10.023.878 16.588 1.725 6.021-5.301 9.185-6.046 16.215-16.419ZM687.56 676.564a160.323 160.323 0 0 0-17.769.173c-1.668 4.25-2.477 6.273-4.038 8.743 6.966-.51 10.395-.785 17.225-1.122 1.754-1.552 2.67-3.505 4.582-7.794ZM89.905 705.145c6.2-.98 9.142-2.987 15.8-2.109 13.932 2.242 30.248 1.003 40.17-7.708-10.738.204-16.079.329-26.768.494a26.062 26.062 0 0 1-3.329 1.568 30.875 30.875 0 0 1-6.278.236c-5.964-.196-8.799.642-14.44 1.983-19.044 3.419-45.511 3.137-62.6 11.511a26.91 26.91 0 0 1-2.828 1.568c-10.66 5.889 9.872 4.132 31.565 5.277l2.248.11c17.776.941 39.719-2.76 57.137-5.912l.945-.29c9.307-2.894-14.061-8.625-27.169-5.599l-.673.157c-17.633 3.881-30.992 3.136-36.412 4.03l.215-.125c4.56-2.799 13.596-2.219 32.417-5.191Zm-11.963 6.861c13.552-.518 18.671-1.953 15.75 0l-.45.306c-2.635 1.748-11.456 4.414-25.115 4.014-13.517-.392-18.177-1.772-15.457-2.838l.451-.173c2.914-1.121 11.376-.792 24.821-1.309ZM194.393 714.884c7.797-3.921 11.949-2.878 19.266-7.34-24.478-1.827-43.621-2.25-68.528-.784-12.299 6.273-14.225 5.607-17.082 6.132a40.532 40.532 0 0 1-9.221.517l-1.432-.054c-2.613.635-3.901.886-6.443 1.293 3.265.149 4.904.204 8.169.267 13.767.259 22.909-.604 28.207-1.506a56.533 56.533 0 0 0 15.428-4.704c10.588-.894 16.717-2.729 24.792-1.568-5.971 1.936-9.615 2.015-16.466 6.688 10.674-.792 14.476-.118 23.31 1.059ZM225.077 703.977c8.069-.071 12.171-.071 20.461.086 2.148-1.176 3.107-1.921 5.727-2.055-8.175.04-12.17 0-20.117-.407-2.584 1.348-3.873 1.121-6.071 2.376ZM203.363 715.738c8.699.353 11.691-2.164 20.139-2.846 6.952-4.054 10.696-3.278 18.177-6.837-8.326-.149-12.414-.126-20.525.094-7.618 4.014-10.309 5.551-17.791 9.589ZM1227.46 782.057c9.67-9.95 14.72-16.144 23.56-27.098-12.78.415-20.87.556-35.18.525-16.65 6.414-23.57 11.134-33.65 15.525-3.75-8.115-5.98-13.4-9.98-18.191-10.51-1.121-16.72-1.09-29.39-1.215-7.65 8.864-14.26 18.736-19.69 29.388 10.02.117 15.16-.047 24.86-.11 4.51-5.426 6.44-11.275 10.53-17.423 4.66 6.673 7.11 12.24 11.22 17.901 3.51.188 6.99.609 10.45 1.263 10.36-3.395 15.44-8.939 30.83-15.471-5.01 6.516-7.34 10.194-11.82 15.8 10.26-.368 16.48-.588 28.26-.894ZM1340.25 770.319c.57-.721.85-1.082 1.44-1.827 11.08-14.49-21.68-14.702-32.03-15.611l-7.36-.392c-20 .243-41.32 1.764-53.73 15.815l-.95 1.294c-6.54 13.996 20.7 12.036 31.2 12.326 2.59-.071 3.92-.094 6.63-.118 17.24-.478 39.94.675 53.06-9.707v-.047c-9.53.478-14.98.376-25.77.173-.93.588-6.74 2.877-24.44 2.909h-.09c-14.7 0-18.42-1.286-17.38-4.431 23.18-.792 46.25.079 69.42-.384Zm-39.67-11.056h.13c13.7.651 18.61 2.776 18.06 5.818-14.32-.517-28.78-1.348-43.12-.972 4.19-3.52 11.35-5.489 24.93-4.846ZM1417.16 743.503c7.31-.917 10.99-1.278 18.33-1.874 14.9-.972 29.93-3.834 42.65-10.099-11.64.164-17.48.172-29.14.455-.38.172-3.12 1.952-3.8 2.093a40.83 40.83 0 0 1-6.79.784c-6.53.361-9.8.58-16.31 1.176-24.84 3.49-58.07 7.308-72.42 25.876-1.33 1.78-1.99 2.673-3.02 4.187-11.79 16.466 26.88 10.366 36.27 9.456 1.03-.133 1.55-.204 2.58-.361 22.44-5.198 48.38-11.063 66.86-22.739l1.08-.784c10.59-8.052-14.91-7.574-30.54-5.841l-.81.094c-14.69 1.568-29.31 5.928-42.64 10.914l.25-.274c5.15-5.881 15.25-10.264 37.45-13.063Zm-13.51 11.714c16.14-3.034 22.19-2.054 18.57 1.224l-.57.509c-3.28 2.964-14.6 7.567-30.11 10.742-15.39 3.137-20.97.424-17.65-2.736l.54-.518c3.57-3.41 13.21-6.21 29.22-9.221ZM1145.03 998.735c6.34-24.903 11.66-50.605 23.17-74.489-10.97-.674-16.58-.729-27.79-2.352-12.1 9.887-23.99 19.72-35.54 29.999-1.83-14.694-4.47-29.011-7.53-43.525-11.64-3.693-17.95-5.018-30.01-6.759a695.75 695.75 0 0 0-22.98 70.067c7.58.783 15.11 2.016 22.57 3.693 4.14-14.898 8.59-29.796 13.81-44.49a1716.26 1716.26 0 0 0 7.99 50.253c4.76 1.514 7.11 2.353 11.69 4.109 11-11.636 22.36-23.029 33.07-34.838-4.65 14.208-8.59 28.55-12.37 42.906 9.49 2.894 14.31 3.717 23.92 5.426ZM1221.9 929.695c-2.59-.548-3.89-.839-6.45-1.427-28.82-7.558-47.08 10.468-52.47 30.235-.37 1.31-.57 1.96-.93 3.27-6 20.386 1.43 43.217 30.11 49.947 2.44.64 3.66.96 6.11 1.62 24.29 7.56 42.19-3.31 46.97-21.513v-.149c-9.18-1.035-13.89-2.046-23.37-4.328-.83 1.811-5.53 9.221-21.56 5.081h-.11c-13.32-3.442-17.62-10.844-16.53-20.684 21.1 5.41 41.46 11.102 63.28 14.553.57-2.267.86-3.411 1.43-5.732 5.26-20.152 5.53-45.462-26.48-50.873Zm5.73 35.63c-15.45-3.427-23.47-6.438-38.91-10.193 4.35-8.022 11.41-11.456 23.48-8.28h.11c12.22 3.246 16.17 9.44 15.34 18.473h-.02ZM1340.6 999.841c7.34-20.387.4-34.195-21.94-44.639l-.62-.219c-16.22-5.756-31.04.164-36.78 6.1.09-.314.14-.471.23-.784 3.67-13.212 14.86-24.033 33.29-17.203 5.82 2.015 8.59 3.05 13.68 5.057 24.54 1.694 36.52-28.094 41.36-41.816-10.44-1.106-15.66-.188-27.43 2.556-.45.69-3.77 9.66-4.5 10.288-1.37 1.419-3.62 2.877-5.99 1.913-4.24-1.725-6.6-2.611-11.59-4.336-40.44-13.495-57.83 22.268-64 46.505-1.16 4.532-1.73 6.79-2.87 11.228-4.22 23.523-4.53 49.849 30.23 58.219l2.15.58c32.64 9.35 44.98-7.84 53.69-29.87.46-1.43.67-2.14 1.09-3.579Zm-24.54-3.693c-.2.596-.3.909-.5 1.568-2.86 10.054-11.33 16.224-24.67 12.484-13.35-3.74-17.9-12.947-14.99-22.866l.49-1.63c3.16-10.735 12.31-15.533 25.58-11.566 13.39 4.03 17.3 12.389 14.09 22.01ZM673.699 900.48c-12.127 11.51-23.066 22.841-33.003 35.582-1.031-20.763.035-42.341-3.716-62.908-10.667-4.76-16.337-6.877-27.763-8.406-12.887 31.364-21.284 63.952-30.563 96.045 9.429 2.054 14.111 2.579 23.024 5.23 5.728-19.517 11.276-39.049 17.111-58.541 1.009 22.096 2.197 44.168 3.73 66.233 4.538 1.936 6.786 2.964 11.218 4.994 10.567-13.259 21.141-26.243 32.896-38.899-4.539 16.302-8.934 32.627-13.495 48.92 8.591 5.293 12.98 8.147 21.972 13.17 7.789-27.981 15.034-56.037 22.909-84.013-10.094-5.991-15.027-9.268-24.32-17.407ZM748.463 937.905a51.25 51.25 0 0 1-6.192-1.231c-27.248-11.683-44.86 5.018-48.776 24.856a661.394 661.394 0 0 0-.923 3.473c-5.993 22.237-1.239 49.167 28.056 60.077 2.399.9 3.58 1.34 6.007 2.21 24.126 10.48 43.163-4.18 46.37-22.09l.036-.16c-9.092-2.47-13.682-2.99-22.91-4.96-.802 2.04-5.548 10.98-21.026 5.18h-.108c-12.886-4.8-16.795-13.966-15.599-24.551 20.274 8.131 39.339 13.494 61.175 18.489.501-2.454.759-3.646 1.26-6.273 3.737-18.74 5.885-52.166-27.37-55.02Zm6.945 37.198c-14.82-2.306-22.43-5.489-37.114-11.684 4.038-8.091 10.431-9.871 21.965-6.57h.1c11.634 3.34 15.621 8.492 15.049 18.254ZM867.427 1018.72c4.102-19.169.515-47.679-25.623-56.971l-.644-.203c-16.717-5.403-29.131 2.517-34.106 9.409a46.1 46.1 0 0 0 .172-.886c2.19-12.318 10.395-27.028 29.724-20.928 5.821 1.678 8.727 2.627 14.491 4.705 20.145 7.268 29.223-12.154 31.593-24.025-9.307-7.12-13.209-8.931-22.043-12.969-.279.784-2.219 8.868-2.735 9.182-.959.831-2.37 1.121-5.19.047-5.012-1.914-7.596-2.768-12.715-4.289-39.805-11.636-52.777 31.176-57.137 52.66a1449.3 1449.3 0 0 0-2.477 12.334c-3.358 24.714-4.904 54.294 31.557 63.774l2.148.68c31.801 10.87 45.36-7.19 52.262-28.94.293-1.44.437-2.15.723-3.58Zm-24.721-7.84c-.157.79-.229 1.14-.386 1.9-2.255 11.05-10.56 17.66-23.625 13.66-13.066-4-17.684-13.42-15.328-25.05.157-.78.236-1.15.386-1.91 2.535-12.545 10.546-18.928 23.425-14.898 12.973 4.148 18.027 14.036 15.528 26.318v-.02ZM218.634 871.852c-14.769 21.681-28.73 43.377-41.423 65.826a1225.946 1225.946 0 0 1 3.637-80.339c-9.121-3.983-10.739-1.568-24.907-3.607-16.029 40.271-31.013 80.347-42.432 121.535 9.149 4.893 15.034 5.081 24.792 7.841 6.959-24.581 12.929-49.312 20.175-73.854a1188.423 1188.423 0 0 0-.401 79.978c4.295 1.78 6.443 2.768 10.738 4.658 12.114-21.892 23.826-43.745 37.228-65.198-6.5 24.362-12.242 48.802-17.44 73.348 9.407 3.82 14.154 6.14 23.669 10.53a1347.572 1347.572 0 0 1 33.812-128.431c-10.982-5.355-16.552-7.903-27.448-12.287ZM297.715 910.736c-2.585-1.278-3.508-2.439-5.864-4.062-31.829-24.848-52.576 25.452-56.736 41.432a289.808 289.808 0 0 0-1.389 5.308c-7.023 28.157-9.572 66.936 25.286 85.166 2.413 1.19 3.616 1.79 6.021 3.01 28.708 16.57 44.387-8.14 48.482-27.08 0-.08.036-.13.057-.23-9.049-5.41-13.681-7.52-23.117-12.02-1.03 2.86-6.264 14.11-21.627 5.99l-.101-.06c-14.275-7.84-16.301-22.643-13.974-35.056 20.289 10.515 41.96 21.32 60.981 33.156.774-3.34 1.167-5.01 1.962-8.355 6.3-26.322 14.232-69.886-19.981-87.199Zm1.102 57.043c-12.807-6.406-24.019-14.357-36.755-20.841 5.441-11.981 13.044-16.976 24.062-10.021l.093.063c11.62 8.068 14.784 19.03 12.6 30.768v.031ZM384.562 979.258l-.572-.4c-14.984-10.287-27.62-5.198-33.233 1.914.114-.432.165-.643.279-1.067 2.649-12.091 12.93-31.278 30.405-16.286a3057.38 3057.38 0 0 1 12.793 9.127c18.392 14.044 28.415-10.491 29.632-20.935-6.894-7.339-10.438-10.883-17.683-17.987-.301.784-2.685 9.409-3.164 9.66-.917.674-2.191.627-4.568-1.459-4.252-3.74-6.407-5.598-10.739-9.362-36.468-33.261-54.674 23.374-60.416 43.196-1.625 6.226-2.42 9.347-3.966 15.604-4.854 23.307-8.834 48.617 3.129 71.137 24.341 1.68 48.739.78 73.023 2.91a71.151 71.151 0 0 0 4.833-15.47c.315-1.57.472-2.35.794-3.92 5.212-22.16 1.647-50.274-20.547-66.662Zm-3.006 55.932c-.194.88-.287 1.32-.48 2.2-2.771 12.78-11.541 20.58-23.69 15.07-14.461-6.55-16.373-22.53-13.395-34.5l.559-2.35c3.63-15.612 12.213-20.513 24.055-13.33 12.822 7.71 15.9 21.02 12.951 32.91ZM321.132 731.914c2.584-2.493 5.985-.588 10.853-5.214-7.617.572-9.214-3.184-19.602-1.866-11.734 1.709-17.955 3.497-29.768 3.528a62.64 62.64 0 0 0-10.194-2.791c-10.553-.682-15.822-1.318-26.317-2.078-6.408 3.426-9.307-1.208-15.25 5.104 7.919.047 11.856.259 19.753.683 3.536-2.807 5.276-2.619 8.949-2.855 3.539.461 6.932 1.819 9.908 3.968 4.209.227 6.321.329 10.581.51 11.39-1.663 17.261-.894 29.023-1.914-3.815.949-5.727.196-9.607 2.353 8.884.015 17.626-3.435 21.671.572ZM388.643 742.091c.251-.321.372-.47.623-.784 2.183-2.493 1.067-9.213-20.926-12.976a124.99 124.99 0 0 0-4.26-.667c-20.361-2.885-30.405 2.909-33.684 3.638l-.523.11c-3.307.635-.844-.306 21.657 4.861 1.79.408 2.685.643 4.46 1.177 25.057 7.472 30.577 7.245 31.815 5.371a97.505 97.505 0 0 0-15.965-7.253c-.486.117-3.35-.235-14.604-2.752h-.079c-9.357-2.086-12.486-2.478-11.87-2.8 16.481.243 29.51 5.928 43.356 12.075Zm-25.164-11.761h.071c8.083 1.2 11.054 2.768 11.025 3.607-10.302-3.066-15.528-3.748-26.231-4.281a64.092 64.092 0 0 1 15.135.643v.031ZM435.557 754.927c7.682 1.435 12.386 1.569 20.69 3.466 15.607 4.109 33.09 8.515 43.578-4.987-12.171.141-18.299.094-30.57-2.885-.372.227-2.964 2.54-3.665 2.493-1.31 0-3.014-.784-7.159-1.686-7.381-1.662-11.684-2.132-18.901-3.136-10.022-2.352-34.815-14.545-46.112-7.551-.458.463-.68.682-1.138 1.192-1.697 12.844 14.726 29.2 25.179 38.35l1.331 1.216c11.197 11.965 51.668 20.802 58.613.972.315-.447.472-.674.801-1.114 4.697-13.423-22.694-21.068-35.917-22.738l-.888-.149c-22.945-3.984-30.383-10.131-33.168-10.641l.071-.094c1.611-1.976 3.959 2.933 27.255 7.292Zm-11.125 3.984c14.991 6.813 23.081 8.335 20.174 11.471l-.451.494c-2.591 2.917-17.998 2.046-26.31-4.908-8.311-6.955-11.597-11.566-10.652-13.558l.157-.313c1.002-2.031 2.219.055 17.082 6.814ZM590.073 757.366c-29.832 2.972-58.06 8.797-88.251 10.687-11.512 14.043-12.793 16.897-15.463 21.077-2.671 4.179-5.671 4.955-9.63 3.356a63.732 63.732 0 0 1-1.639-.69c-2.227 5.865-3.379 8.664-5.649 14.027a36.191 36.191 0 0 0 8.821 4.274c15.141 5.347 24.792-.988 30.204-8.39 4.41-6.03 8.247-17.564 14.497-26.942 11.885-1.09 17.848-.972 29.782-3.411-7.438 13.675-12.664 28.126-18.391 42.271 11.397-.533 17.081-1.952 28.379-3.528 7.173-16.921 12.428-38.602 27.34-52.731ZM623.786 755.327c-7.575.659-8.906 3.348-21.184 2.157-15.987 12.208-21.406 35.488-28.379 51.319 11.29-.894 16.924-.918 28.379 1.639 7.323-18.105 11.877-37.535 21.184-55.115ZM631.596 745.62c-7.331-.392-10.939-.196-18.069 1.27-2.084 2.8-2.349 4.98-5.499 6.94 12.278 2.085 11.348-2.494 18.836-2.627 1.804-2.274 2.778-3.403 4.732-5.583ZM740.308 766.744c9.508-13.079 14.133-16.788 23.418-25.185-10.739-1.835-16.466-3.317-27.806-4.297-14.927 4.352-19.595 11.95-30.341 13.518-2.527-4.752-4.216-10.507-6.636-15.957-8.205-1.521-12.25-2.524-20.311-4.555-6.772 6.492-10.373 8.625-19.129 13.847 6.565 1.882 9.887 3.019 16.559 5.41 4.654-3.262 6.866-4.704 10.81-8.79 2.284 5.92 3.294 8.39 5.577 14.898 3.831 1.451 5.728 2.188 9.594 3.599 10.738-2.227 13.917-.415 27.92-9.283-5.219 9.338-7.588 8.978-11.418 14.897 7.309 2.204 12.134 1.428 21.763 1.898ZM839.42 762.808a22.97 22.97 0 0 0 3.143-3.184c3.579-4.54.243-8.711-28.959-12.357l-6.336-.784c-18.285-1.568-33.412-2.941-47.336 6.618a7.606 7.606 0 0 0-1.969 2.156c-3.658 5.802 2.305 15.784 28.572 15.047 2.148-.063 3.243-.055 5.463 0 14.69.109 34.006 2.501 45.718-5.999-9.257-1.482-13.946-2.046-23.217-2.948-1.432.674-6.128 2.666-20.941 1.796h-.1c-12.414-.722-15.578-2.611-14.433-5.575a412.533 412.533 0 0 1 60.395 5.23Zm-33.577-10.719h.108c11.941.682 16.108 1.647 15.077 3.654-15.113-1.419-23.36-2.886-37.364-2.729 3.802-1.905 10.352-1.599 22.179-.925ZM876.633 784.496c.873.36 1.31.549 2.148.996 13.953 5.049 39.855 15.164 54.76 6.617.906-.74 1.718-1.61 2.413-2.587 5.348-7.99-8.734-15.024-25.702-20.7l-.673-.228c-17.074-5.732-28.973-5.92-34.535-6.029a.784.784 0 0 1 .272-.11c5.555-2.47 14.461 1.003 31.829 3.418 5.728.784 9.207 2.643 15.421 4.431 11.333 3.489 32.932 8.115 42.339-.839-10.101-2.353-15.177-3.607-25.286-6.226a52.691 52.691 0 0 1-7.159 2.054c-1.16.133-2.864 0-5.971-.886-5.62-1.568-8.426-2.352-14.017-3.991-18.7-3.136-48.124-10.852-63.151-1.38a9.505 9.505 0 0 0-2.8 2.948c-6.665 11.064 19.559 19.516 30.112 22.512Zm-7.718-15.91c2.413-3.497 12.987-1.787 25.673 2.133 13.13 4.07 16.617 6.994 14.734 9.699-2.349 3.38-13.324 3.294-26.575-1.403-12.708-4.532-15.786-7.637-13.832-10.46v.031ZM1002.37 836.16c8.76-15.384 17.45-26.126 30.74-39.009-24.34-4.704-48.724-9.558-72.743-15.227-13.602 9.997-15.679 12.992-18.757 14.373-3.336 1.779-6.551 1.035-9.099.086l-1.332-.502c-2.942 2.407-4.675 4.242-8.033 9.652 4.339 2.431 6.515 3.56 10.89 5.708 10.624 5.207 16.416 3.552 23.525-3.489 4.839-4.798 9.156-6.837 17.246-13.965 10.023 2.353 15.099 3.372 25.186 5.489-10.882 8.335-16.215 18.419-22.337 29.129 9.801 3.207 14.755 4.705 24.714 7.755ZM1042.65 798.406c-11.97 13.635-21.34 25.616-30.06 40.938 10.02 3.136 15.34 5.653 24.64 7.323 8.31-16.121 15.93-31.199 29.19-45.266-9.59-1.098-14.32-1.741-23.77-2.995ZM1081.31 787.742c-9.76-.831-14.57-1.404-24.09-2.564-3.15 2.736-4.71 4.234-7.87 7.378 9.46 1.208 14.22 1.819 23.86 2.8 3.21-3.231 4.83-4.768 8.1-7.614ZM42.354 726.472l.716-.329c5.82-2.807-9.242-4.093-21.72-8.453-.295-.094.944 1.969.658 4.838 9.378 4.187 17.082 5.513 20.346 3.944Z"/><path d="M61.898 723.407c-9.9-.98-14.812-1.506-24.52-2.941-.307 0-2.513-.086-3.078-.164-1.06-.141-2.606-.377-5.613-.949-2.82-.525-4.224-.784-7.023-1.404-.107 0-.158-.086-.258-.18 2.04.627 3.072.925 5.12 1.482 19.808 5.363 30.44 4.603 35.373 4.156ZM109.206 771.707c14.054-8.303 22.487-20.441 31.379-31.968-26.747-2.665-50.966-10.24-77.412-13.486-10.274.831-11.255 2.987-13.653 3.623-2.398.635-4.94.101-8.176-1.098l-1.346-.502c-2.147.784-3.293 1.113-5.655.737a724.63 724.63 0 0 0 7.36 3.278c12.27 5.433 20.217 8.295 25.157 7.574 3.98-.588 8.333-3.089 13.695-9.503 10.102 2.869 14.74 6.633 25.358 10.005-7.417 9.331-12.027 13.282-19.802 15.682 8.934 6.022 13.538 9.495 23.095 15.658ZM152.054 740.21c-8.727 14.114-17.705 27.373-33.011 37.88 9.801 6.359 14.827 11.503 24.985 15.352 13.803-16.191 26.239-32.022 35.932-49.931-11.096-1.184-16.609-3.136-27.906-3.301ZM156.671 740.178c9.293.761 18.623.797 27.921.11 2.434-.306 3.028-1.67 4.725-4.195-8.384.29-15.364.22-26.489-.47-2.406 2.415-3.616 3.607-6.157 4.555ZM868.587 58.733l-.165.494c-2.685 8.179-4.024 12.546-6.637 20.732-.057.204-.093.298-.157.502-2.663 8.413-3.966 12.545-6.443 19.814 7.552 4.853 11.096 8.39 18.033 15.243 2.535-5.865 3.902-9.613 6.737-17.658.065-.188.1-.282.165-.478 2.778-7.889 4.231-12.287 7.159-21.046l.179-.533c3.014-8.97 4.561-13.627 7.582-22.276a226.543 226.543 0 0 0-19.624-14.655c-2.627 8.32-4.08 11.495-6.829 19.861ZM723.993 64.818c11.083-1.294 16.559-1.357 27.312-.196 4.604-12.28 10.023-24.307 14.562-36.626 10.803 2.596 15.564 4.454 24.692 6.508-5.09 11.848-9.013 24.017-13.18 36.069 10.324 3.654 13.946 5.998 23.167 9.198 4.238-13.965 8.183-28.009 13.18-41.832a149.744 149.744 0 0 1 22.745 5.292c-4.782 14.585-8.92 29.287-13.366 43.91 9.013 2.956 14.082 5.371 22.043 8.131 6.278-21.084 12.636-42.122 19.537-63.089-36.053-16.889-78.536-24.895-120.116-28.65-6.179 20.63-13.087 40.882-20.576 61.285ZM1367.72 118.105c11.37-.611 17.1-.886 28.73-2.031 8.68-.731 17.33-1.961 25.9-3.685 1.54-10.036 2.35-14.764 4.14-24.62-24.56 2.642-49.47 2.077-74.14 3.755a2092.52 2092.52 0 0 1 19.91-41.557c-10.86-.345-15.52-.98-27.21-.4-22.49 44.811-42.42 90.062-61.81 135.72 44.01-6.571 90.07-14.114 132.92-24.378.85-8.978 1.2-11.887 2.63-23.233-1.57.345-2.36.51-3.92.831-12.17 2.486-18.09 3.254-29.88 4.627-11.78 1.372-17.59 1.834-29.13 2.956-11.55 1.129-17.18 1.568-28.69 3.262 4.86-11.981 7.35-18.129 12.32-29.647 11.22-.777 16.85-.996 28.23-1.6ZM1256.38 348.623c-12.73 3.277-19.91 4.493-30.57 7.605-6.01 26.613-11.81 52.825-13.9 79.806 77.69-7.943 149.99-45.94 224.54-63.512-2.46-8.947-4.1-13.745-5.6-19.838-12.56 3.615-18.68 5.952-30.95 10.515-12.4 4.618-18.57 7.057-31.08 11.393-12.52 4.305-18.57 5.018-31.81 9.48-13.24 4.454-19.84 6.578-32.93 10.593-13.08 4.015-19.58 5.912-32.43 9.519-12.88 3.607-20.3 5.638-31.13 8.468a93.049 93.049 0 0 1 3.01-17.744c12.53-3.458 18.87-5.293 31.73-9.166 12.84-3.866 19.33-5.889 32.46-10.193h.04c13.11-4.305 19.99-7.12 32.77-10.711 12.79-3.583 19.09-5.677 31.67-9.966 12.57-4.289 18.8-6.61 31.41-10.844h.04c9.3-3.137 13.97-4.658 23.44-7.261-1.61-7.057-2.44-10.844-3.81-17.775-58.79 18.402-115.48 40.773-175.01 57.662 2.96-11.001 4.6-16.599 8.11-28.031ZM990.142 83.856a233.082 233.082 0 0 1 12.528 23.178c7.6-22.692 15.38-45.345 24.34-67.73-5.84-7.952-8.43-13.385-14.04-21.9-8.8 21.946-15.605 44.191-22.828 66.452ZM1240.25 251.841c-11.87.22-16.9.69-27-.36-8.52 26.087-15.87 52.142-22.06 78.621 10.1 2.157 15.3 2.753 25.78 1.992 6.14-27.287 13.2-53.664 23.28-80.253ZM1200.41 249.27c-47.43-10.743-74.21-49.25-96.87-80.206-27.69-37.825-46.24-79.672-69.38-119.183-9.45 22.927-17.22 46.191-25.35 69.424 5.46 8.351 8.02 13.643 13.1 24.589 5.67-16.191 11.61-32.328 17.37-48.504 14.23 30 28.79 60.046 47.44 88.603-6.25 17.909-12.08 35.904-17.67 53.946 6.24 9.472 9.47 13.942 16.22 21.242 5.87-17.768 10.73-35.724 16.91-53.429 19.81 24.048 36.16 43.431 66.27 60.376-5.07 16.764-9.74 33.489-13.74 50.425 8.97 3.866 13.83 6.759 23.62 10.005 6.18-26.008 13.68-51.633 22.08-77.288ZM65.506 89.533c-11.755 15.007-24.27 27.004-40.5 39.205 1.39-12.765 2.542-25.554 3.674-38.359-9.071 6.603-14.62 8.72-26.375 11.809-.623 3.505-.93 5.246-1.568 8.68 4.03 27.224 8.9 54.315 14.075 81.421 20.833-9.346 34.615-18.818 49.814-33.262.802-23.154.572-46.332.88-69.494Zm-20.983 65.864c-9.214 7.794-14.856 10.844-27.062 16.278 1.697-8.437 2.456-12.765 3.938-20.888 11.426-5.622 16.308-10.037 24.763-17.941-.565 8.814-.88 13.448-1.64 22.575v-.024ZM74.019 147.893c7.252-9.581 10.63-15.431 17.754-24.691-.078-22.292-.372-44.56.065-66.845-7.797 8.579-11.169 13.04-17.862 21.352.043 23.397.35 46.795.043 70.184ZM362.956 191.874c10.281 1.717 15.514 2.932 25.888 5.026 7.588-18.184 15.213-36.469 22.114-54.817-10.388-1.207-15.6-1.968-26.052-3.614-6.271 17.822-13.481 36.162-21.95 53.405ZM100.895 112.185c7.56-8.288 11.454-8.437 20.153-18.136.601-15.682 2.147-31.364 3.794-47.046 43.678-17 81.622 15.588 104.144 40.358-2.613 8.813-3.701 15.478-5.627 26.934 8.505 10.248 11.584 16.066 18.185 26.753a218.578 218.578 0 0 1 6.98-27.961c24.72 27.036 50.114 30.243 89.489 37.088-5.011 11.558-9.643 23.233-14.318 34.869 10.445 1.497 15.65 2.532 25.988 4.454 7.911-17.431 15.607-35.387 21.749-53.257-24.341-4.187-49.77-7.55-73.739-12.859-27.284-6.045-40.056-18.567-54.889-36.555-31.787-38.514-86.626-93.12-140.714-41.04-.916 22.136-1.024 44.255-1.195 66.398ZM357.314 312.742c34.264 5.771 70.955 17.102 105.14 20.34 15.084 1.427 28.973-.706 44.101 2.195 20.253 3.921 40.091 11.566 59.471 17.462 3.866-11.11 5.949-16.787 10.137-28.376.1-.275.143-.416.244-.69 4.095-11.331 6.199-17.117 10.209-28.887.1-.282.15-.423.243-.713 4.102-12.067 5.942-18.607 9.887-28.384-62.471-1.726-126.524-4.36-187.957-12.977 5.011-12.232 7.46-16.639 12.221-27.444-10.467-1.325-15.708-2.164-26.174-4.132-13.395 30.235-30.642 60.038-37.522 91.606Zm42.834-40.099c10.739 1.514 16.129 2.188 26.976 3.717 10.831 1.568 16.151 3.34 26.696 4.705 10.546 1.364 15.836 1.231 26.36 1.105 10.524-.117 15.75-.533 26.145.408 10.367.941 15.522 3.136 26.282 5.034 10.739 1.882 16.165 2.407 26.947 3.662l-.043.117c-3.766 10.978-5.727 16.278-9.622 26.66-10.545-2.188-15.836-3.239-26.374-5.944-10.553-2.705-15.572-4.595-25.967-5.583-10.395-.98-15.621-.572-26.066-.854-10.453-.29-15.629-.957-25.773-4.517-10.173-3.567-15.75-4.853-26.668-7.158-10.896-2.306-16.395-2.023-27.205-3.443 3.315-7.096 4.99-10.601 8.312-17.909ZM609.862 266.873c-10.095 29.952-20.562 59.819-30.849 89.732 10.438 3.027 15.7 4.148 25.773 7.582 9.851-30.501 20.589-60.822 30.419-91.332a138.755 138.755 0 0 0-25.343-5.982ZM769.74 352.002c-.086.259-.129.392-.222.651-3.58 10.687-5.42 16.066-9.615 26.973l-.25.659c-4.296 11.181-6.902 16.905-10.496 27.827 8.512 4.313 12.6 6.869 20.447 13.33 3.436-10.562 5.162-14.114 9.557-24.832.108-.251.158-.377.258-.635 4.296-10.492 6.164-15.73 9.851-26.291.086-.259.129-.385.222-.635 3.759-10.829 5.513-16.263 9.164-27.326-7.818-6.814-11.799-10.28-19.981-16.898-3.566 10.829-5.27 16.239-8.935 27.177ZM642.156 377.062c6.515-21.03 13.294-42.004 20.046-62.987 9.908 1.372 15.113 0 25.135 1.835-7.016 22.3-13.996 44.608-20.761 66.954a141.496 141.496 0 0 1 24.341 5.763c7.197-21.484 14.247-43 21.148-64.547 9.601 4.109 14.318 6.54 23.854 10.303-6.851 20.826-14.082 41.558-21.899 62.148a201.137 201.137 0 0 0 23.775 6.892c10.402-28.949 20.798-57.733 30.198-86.901-16.194-11.252-37.479-23.147-57.524-30.125-20.912-7.269-40.808-5.638-62.743-9.833-10.023 30.705-20.619 61.285-30.391 92.03 9.98 3.591 14.934 5.465 24.821 8.468ZM485.778 615.813c.079-.181.115-.275.193-.463 3.193-7.723 4.589-12.005 8.405-22.512.093-.258.143-.384.229-.643 3.902-10.765 5.685-17.908 8.706-28.494-12.858-3.204-24.131-1.68-33.82 4.572-8.381 5.624-18.149 7.234-29.302 4.83-13.087-2.008-10.209-6.469-25.179-4.83-25.58 2.791-41.481 10.24-68.886 6.657 1.933-13.738 3.687-27.499 5.37-41.26-9.343-1.207-15.149-4.579-24.506-4.155-3.58 41.557-5.728 82.824-5.828 124.444 21.184 18.034 41.86 14.02 68.263 3.223 8.541-3.49 17.848-9.896 26.768-12.217l12.765-.345c18.136 2.332 34.297-1.435 48.482-11.298a148.28 148.28 0 0 0 8.34-17.509Zm-20.912-14.898c-4.481 13.51-6.873 20.865-10.452 28.815-13.123 6.21-19.036 3.247-26.339-.909-7.302-4.164-9.958-.918-16.466.721-6.5 1.647-9.629 2.635-16.051 4.493-6.443 1.858-9.629 3.764-16.466 5.042a53.737 53.737 0 0 1-18.084.823c-7.732-.737-12.593-2.815-20.375-1.302.888-12.153 1.16-20.347 2.355-32.712 9.307 3.003 13.531 3.607 21.478 3.92 7.94.338 11.591-.094 18.757-1.38a136.968 136.968 0 0 0 17.483-4.273c6.937-2.054 10.38-3.23 17.575-5.387 7.195-2.156 9.257 3.137 18.199 7.582 8.935 4.431 15.185 5.834 28.372-5.551l.014.118ZM493.06 631.11c12.571-.509 18.878.479 31.5 4.885 11.669-15.329 18.113-30.415 23.912-47.673-13.059-7.245-18.922-14.114-30.642-19.603-6.386 21.242-13.509 42.318-24.77 62.391ZM684.946 646.384l-.122.283c-2.09 4.649-3.121 6.845-5.133 10.554l-.121.219c-2.062 3.764-3.007 5.356-5.176 6.626 7.753-1.372 11.626-1.051 19.379-1.082 2.499-4.344 3.816-3.497 6.279-7.261.046-.079.096-.155.15-.227 2.406-3.701 3.637-5.881 6.179-10.476l.15-.282c2.606-4.705 3.945-7.292 6.687-12.452-9.307.283-13.853.636-22.809 1.49-2.227 5.222-3.315 7.825-5.463 12.608ZM678.968 634.976c-16.988.98-32.674 10.287-48.99 6.273-9.135-5.437-16.583-12.055-22.344-19.854-13.402-9.901-27.759-18.155-42.811-24.613-5.219 17.415-10.102 31.647-24.342 45.815 13.603 5.669 20.361 7.418 33.842 11.236 6.708-5.488 10.023-10.013 16.28-20.049 13.23 5.159 18.735 9.731 26.338 14.898-3.135 8.092-2.792 11.761-9.443 15.094 13.367 4.563 12.636 6.272 20.146 7.59 3.473-2.886 5.069-6.72 7.875-15.596 7.16.557 10.675-.29 17.705-3.748-2.685 10.977-4.174 15.392-7.417 19.093 7.245-1.404 10.739-3.372 18.514-5.042 7.345-9.229 10.696-20.943 14.647-31.097ZM66.781 318.255c-9.987 5.653-15.263 8.029-27.205 11.291-8.083 16.097-11.268 33.159-16.666 49.892-5.993 29.67-14.147 59.152-18.07 89.066a54.963 54.963 0 0 0 15.177-5.724c10.567-48.105 29.381-97.581 46.764-144.525ZM317.566 491.141c2.577-33.129 6.315-65.982 12.171-98.867-10.216-4.109-14.999-4.627-24.9-9.104-5.441 30.149-10.023 60.376-13.566 90.681 9.578 8.445 16.136 14.867 26.295 17.29ZM31.716 456.005c9.035-5.073 13.173-10.609 21.828-17.015 7.195-33.504 20.676-65.119 32.753-97.667 17.326-7.708 73.976-45.376 89.712-29.286-3.852 24.354-8.484 48.308-14.318 72.403 7.216 6.218 11.254 9.998 19.873 17.619 5.663-23.641 10.99-47.14 15.07-70.992 20.497 21.084 39.197 46.497 68.378 61.089-3.308 21.061-5.685 42.2-8.219 63.324 8.591 2.956 13.101 4.171 22.365 9.589 2.971-29.795 6.701-59.16 12.887-88.666-42.497-27.216-66.137-60.015-100.372-92.696-20.146-19.234-27.999-19.187-54.095-5.363-20.496 10.86-40.692 18.944-58.762 32.289-13.889 48.771-36.433 96.131-47.1 145.372ZM844.481 292.019c17.132 21.115 35.131 41.714 51.096 63.363 8.455-27.444 14.876-55.185 23.231-82.637-9.386-15.462-18.098-31.756-32.503-44.929 4.539-16.583 8.756-33.214 13.911-49.696-6.615-8.35-10.023-9.825-16.552-16.968-13.481 43.549-25.802 87.294-39.183 130.867Zm33.763-38.421c6.63 7.19 10.023 10.82 16.538 20.896-3.229 11.761-4.897 18.348-8.069 30.023-6.643-9.738-10.08-12.248-16.752-20.339 3.3-12.217 5.019-18.905 8.283-30.58ZM904.024 367.025c6.823 9.214 10.26 13.832 17.182 22.081 6.229-25.93 14.24-51.618 20.497-77.579-5.827-10.883-8.82-15.557-15.099-25.813-7.531 27.122-14.719 54.244-22.58 81.311ZM1194.14 479.912c-10.56.996-15.96 1.396-27.58 1.851-2.31 14.349-4.45 28.808-4.81 43.282 11.58-.415 17.46-.784 29.52-1.568 1.32-14.49 1.86-29.035 2.87-43.565ZM929.876 399.456a166.083 166.083 0 0 0 17.762 21.837c2.627-14.796 7.818-29.106 10.739-43.839 18.563 24.307 37.342 46.003 60.403 67.88-2.5 11.032-3.52 22.566-3.97 33.716 8.41 5.975 12.71 8.978 21.48 14.67.35-12.702.22-19.014 1.92-31.701 24.76 13.667 53.86 27.561 83.32 33.074-1.62 11.69-2.79 17.924-2.63 29.435 10.25 2.862 16.69.925 28.08.831.26-14.514 2.37-29.012 4.8-43.408-110.2-5.355-161.731-88.25-202.739-157.22-5.634 25.091-13.323 49.743-19.165 74.725ZM1451.1 623.708v-.611c.19-10.107.24-15.22.19-25.178v-.603c-.07-10.194-.21-15.4-.51-26.001-71.27-19.414-142.76-19.375-216.7-11.856.06-10.585-.2-16.552.07-25.467a208.972 208.972 0 0 1-27.39 2.94c-2.67 25.138-2.77 50.504-5.01 75.689 38.65.988 76.72-4.446 115.11 1.02 46.38 6.594 89.85 18.818 133.66 31.999 2.47-3.231.38-11.613.58-21.932Zm-32.64-35.504c.1 9.331-.17 13.228-.45 23.123-13.09-4.179-19.71-6.194-32.87-9.283h-.03c-13.18-3.137-19.42-3.725-32.94-5.489-13.51-1.741-20.54-3.082-32.83-4.038a269.479 269.479 0 0 0-29.95-.894c-11.68.173-17.36.541-28.54 1.356-11.2.785-16.46 1.631-27.64 2.039.36-6.939.49-10.452.72-17.423 10.98-.784 16.46-1.364 27.65-2.352 11.19-.964 16.88-1.443 28.64-1.803h.03c10.13-.428 20.27-.263 30.37.494h.04c12.73.831 19.76 1.356 33.02 2.579 10.96.933 21.88 2.503 32.69 4.705 13.05 2.486 19.53 3.921 32.15 6.869l-.06.117ZM1372.17 726.574l.19-.18c3.25-2.964 4.81-6.461 8.06-7.982l.19-.094c3.33-1.568 4.96-2.839 8.19-5.599-67.17-1.748-134.75-1.019-202.07-1.136 3.58-4.925 5.61-10.123 9.86-16.137-11.06-.455-14.79-.51-23.24-.784-7.16 14.725-15.43 25.718-27.55 38.224 72.26 1.898 145.92 5.677 218 .463a75.471 75.471 0 0 0 8.37-6.775Zm-23.42-8.24c-3.24 2.211-4.29 4.963-6.99 8.625-10.64.611-16.2.392-27.34.039-11.15-.361-16.83-.69-27.92-.87-11.1-.173-16.84-.126-27.04.917-10.21 1.043-16.38.267-29.11.243-12.73 0-19.62-.086-30.94-.196-11.32-.102-14.65.141-22.91-.51a85.134 85.134 0 0 0 4.84-6.962c7.66 0 13.41 0 25.45.047 12.02.07 18.97.133 31.31.266h.04c12.34.126 17.03.212 27.78.047 10.74-.164 16.36-.164 27.56-.141 11.21 0 16.9.11 28-.086 11.09-.204 14.76-1.278 27.33-1.482l-.06.063ZM1404.24 712.719c-9.93 6.352-14.6 13.189-24.64 19.744 12.59-.784 18.62-1.984 31.05-3.387 9.89-5.489 14.87-10.578 25.06-15.118-12.65-.384-18.95-.556-31.47-1.239ZM783.378 474.416c-10.209 39.268-18.95 78.731-27.885 118.187 21.306 17.572 42.812 37.535 70.289 49.453 6.207-24.166 10.646-48.496 16.044-72.772-20.332-9.746-34.701-19.093-47.924-34.61a1240.359 1240.359 0 0 1 7.582-34.108c-7.174-11.393-10.739-16.717-18.106-26.15Zm27.613 105.218c-1.997 9.66-2.713 14.067-4.625 23.413-9.457-7.449-13.867-11.345-22.759-19.014 2.148-10.138 3.172-15.682 5.162-25.091 8.541 8.256 11.77 14.568 22.222 20.692ZM878.544 580.818c-9.528-1.482-14.361-2.031-24.269-6.053-5.219 24.252-9.687 48.496-16.123 72.584 9.808 3.685 14.598 5.081 23.504 6.437 7.145-24.158 12.321-48.441 16.888-72.968ZM1178.87 651.332c-10.91-.525-13.89-.65-23.63-1.889-3.4 11.463-6.72 22.362-14.06 32.775 10.8.455 16.06.627 25.19.917 5.87-9.903 8.73-21.398 12.5-31.803ZM1126.99 681.551c7.74-10.765 11.39-21.782 15.03-33.716-88.77-9.888-170.886-34.932-251.734-64.296-4.131 23.201-7.546 47.383-17.383 69.659 10.317-.486 15.092.275 24.656 1.568 7.21-12.263 8.992-26.824 11.77-39.989 27.921 8.625 56.558 15.918 85.316 22.786-3.107 14.616-5.863 17.509-10.674 25.876 10.259 1.27 15.421 1.968 25.769 3.528 4.65-8.202 7.37-9.738 10.13-23.688 29.83 5.646 60.03 12.805 90.45 15.722-3.98 9.479-6.27 13.69-11.04 20.7 10.8 1.152 16.58 1.294 27.71 1.85ZM1377.12 288.765c7.33-22.982 14.64-45.988 21.75-69.001-14.11 3.034-21.1 3.583-34.93 6.743-13.54 17.391-27.34 34.665-40.99 52.002-4.47-12.852-8.46-25.758-12.62-38.672-15.04 4.61-22.47 6.343-36.95 8.711-9.69 26.001-17.36 52.315-24.78 78.755 11.24-1.843 16.95-2.995 28.45-5.857 4.14-14.859 8.59-29.663 13.12-44.451 4.24 12.326 8.65 24.448 14.49 36.39 6.18-2.085 9.31-3.215 15.48-5.637 12.17-16.38 25.1-32.407 38.41-48.238a1617.548 1617.548 0 0 0-11.74 39.205c12.07-3.976 18.14-5.928 30.31-9.95ZM1396.7 252.092c-.35 1.082-.53 1.623-.88 2.698-6.5 10.577 3.05 26.118 20.6 20.512-1.67-16.2-2.55-32.36-2.93-48.614-8.95 8.656-14.16 17.461-16.79 25.404ZM936.419 152.551c-.179-19.681.201-39.362.437-59.05-7.56-10.531-11.455-15.165-19.745-23.398-7.388 21.17-14.175 42.663-23.547 63.379 5.993 5.128 9.307 6.272 15.321 13.376 5.412-13.392 7.489-15.297 12.987-29.717.164 16.584.773 33.144.716 49.72 2.935 4.987 4.381 7.605 7.252 12.851 10.588-4.367 15.965-4.822 24.978-9.754-4.481 10.977-8.175 22.096-12.17 33.144 5.77 10.138 7.603 14.404 12.442 25.248 7.159-20.826 14.576-41.558 21.077-62.532-5.42-12.209-8.111-18.458-13.696-29.623-9.872 9.142-15.399 13.4-26.052 16.356ZM968.536 207.03c-8.025 23.413-2.62 51.312 11.133 72.765 1.382 2.085 2.083 3.089 3.508 5.002 5.727 7.567 18.393 32.775 28.933 18.818v-.094c-5.44-9.817-8.06-15.18-13.255-25.24-.608 1.027-3.672 1.074-12.729-10.42l-.064-.079c-7.524-9.574-8.906-20.52-7.109-31.011 10.452 21.351 23.307 42.412 34.437 63.637.46-1.458.71-2.211 1.16-3.779 7.26-26.455 1.1-55.004-10.74-80.072-1.36-2.76-2.04-4.109-3.41-6.72-9.226-12.545-23.53-27.075-31.141-4.759-.265.799-.422 1.191-.723 1.952Zm28.522 21.876c.017.036.036.07.058.102 6.404 11.966 8.334 19.391 6.944 30.306-5.727-12.311-11.154-24.691-20.69-35.63 3.043-4.524 7.338-6.617 13.688 5.222ZM1074.45 295.32c-.82.501-1.93.235-3.93-2.4-3.58-4.704-5.35-7.26-8.8-12.49-20.15-27.891-33.65-24.182-41.42 6.813-.98 3.858-1.43 5.583-2.37 8.79-7.16 23.523.28 51.468 17.95 71.353l1.59 1.898c6.91 8.499 36.59 32.446 39.92 7.519.22-.784.33-1.207.55-2.023 4.92-18.504-7.97-36.5-18.52-52.354l-.46-.674c-11.84-17.682-20.76-23.845-24.29-19.987.07-.29.1-.439.17-.729 3.62-15.573 9.8-13.252 21.96 5.575 4 6.202 6.05 9.26 10.25 14.843 12.67 21.359 25.45-8.994 27.25-17.251-7.16-9.573-10.44-10.342-16.9-17.846-.29.745-2.53 8.861-2.95 8.963Zm-26.64 33.136c9.11 12.851 12.76 22.111 10.74 28.51-.13.399-.19.595-.31.995-1.78 5.771-8.11 5.418-17.58-6.398-9.47-11.816-11.82-20.637-9.9-27.781.13-.47.19-.705.32-1.184 2.12-7.778 7.7-6.884 16.73 5.858Z"/><path d="M1147.69 434.983c2.15-18.34 5.8-36.437 9.61-54.612-27.05-4.07-45.04-10.531-63.64-26.66-3.77 10.609-6.09 21.775-10.59 32.007-1.67 3.803-3.72 4.023-6.29 1.984l-1.06-.855c-1.43 5.889-2.19 9.927-3.46 15.957 2.42 1.843 3.63 2.736 6.1 4.446 10.42 7.213 17.42 5.112 20.88 0 2.86-4.164 5.06-10.688 8.94-24.801 8.46 4.657 12.85 5.982 21.92 8.123-3.05 13.447-5.67 26.659-7.71 40.201 9.84 2.697 14.89 3.364 25.3 4.21ZM1173.12 353.633c-1.78 8.939-2.49 11.762-3.88 17.776 9.52 1.678 14.44 2.352 24.43 2.642 1.43-5.92 2-6.853 3.77-15.58-9.95-.902-14.85-2.039-24.32-4.838ZM1191.24 384.519c-8.17-.23-16.32-1.063-24.39-2.494-3.64 17.839-6.44 35.567-8.41 53.57 10.66.361 14.94.596 24.88.549a401.658 401.658 0 0 1 7.92-51.625ZM485.012 174.678c-3.15-11.338-6.551-22.112-11.662-33.011-14.061.604-22.365 3.262-34.285 2.666-7.983 19.093-15.078 38.327-22.022 57.671 9.25 1.623 13.867 2.352 23.074 3.693 4.474-13.628 9.307-27.161 14.64-40.601 4.389 13.33 7.16 26.911 10.088 40.452 5.534 0 8.304.063 13.824.118 13.76-13.706 27.606-27.256 42.168-40.452-6.229 13.4-11.598 27.02-17.361 40.546 8.972.032 17.935-.589 26.832-1.859 8.921-23.609 17.533-47.281 26.489-70.898-11.884.243-17.833.878-30.068 6.336a44433.572 44433.572 0 0 1-41.717 35.339ZM613.82 130.816c-2.864.47-4.181.972-6.93 1.411-25.236 2.634-48.074 9.205-54.202 30.478-.444 1.2-.673 1.811-1.124 3.042-7.875 18.474-1.797 40.773 28.307 41.557 2.599.149 3.902.212 6.501.298 24.842.494 46.649-10.977 52.713-29.693l.05-.149a226.074 226.074 0 0 0-25.172-.157c-1.009 1.976-6.679 11.699-23.475 11.283h-.114c-13.954-.353-17.798-7.457-16.058-16.466 22.544 1.568 44.437-.573 67.031-.251.766-2.274 1.153-3.403 1.911-5.661 6.823-18.991 5.141-42.71-29.438-35.692Zm7.274 25.091c-16.724 1.011-24.735 3.215-40.808 1.701 4.668-7.057 11.741-9.338 24.341-11.095h.108c12.715-1.788 17.44 1.427 16.373 9.417l-.014-.023ZM738.533 97.923c-1.145.784-2.771 1.293-5.921 1.27-4.764-.1-9.53.13-14.268.69-36.834 4.548-56.414 23.523-65.606 50.37a874.537 874.537 0 0 0-3.58 10.382c-4.968 19.947-9.693 49.963 27.799 50.284h2.234c26.489-.854 51.317-13.925 59.084-33.763.451-1.074.716-2.023 1.217-3.536 3.58-14.945 8.427-44.153-22.193-43.988h-.716c-13.495 1.137-29.582 7.056-38.144 15.525l.251-.729c4.503-13.463 16.716-20.74 34.099-23.037a85.254 85.254 0 0 1 15.879 0c21.126 1.654 32.932-11.527 37.807-25.876a98.603 98.603 0 0 0-24.42-4.704c-.286.627-2.949 6.814-3.522 7.112Zm-39.375 53.616c14.318-2.297 18.807 5.128 14.74 17.117-.25.737-.379 1.114-.63 1.866-3.687 10.923-13.666 18.615-27.333 19.407-13.553.784-17.454-8.563-13.868-19.234l.587-1.749c3.845-11.4 12.329-15.133 26.511-17.407h-.007ZM744.253 185.216c-3.221 5.544-5.863 6.846-8.97 5.756l-1.289-.447c-3.293 8.468-5.011 13.118-8.39 22.237 2.863 1.09 4.295 1.686 7.101 2.94 11.892 5.269 20.762.784 26.382-8.499 7.875-12.922 12.958-26.974 17.59-40.899 8.262 5.026 12.307 7.441 20.232 12.436-6.966 19.955-14.319 39.832-21.335 59.772 8.241 5.637 12.279 8.585 20.29 14.113 10.073-29.874 20.511-59.67 29.717-89.708-19.802-9.904-40.721-18.921-61.368-27.695-6.493 16.505-10.789 34.289-19.96 49.994ZM804.004 258.185c7.961 5.269 11.898 7.794 19.859 11.448 9.028-29.161 18.958-58.306 27.091-87.592-6.494-7.7-9.429-10.734-17.29-14.898-9.07 30.47-19.659 60.728-29.66 91.042ZM864.133 139.652c-6.543-6.814-9.887-10.044-17.017-13.941-2.864 8.429-4.346 12.82-7.431 22.606 7.159 3.622 10.509 6.876 17.038 14.066 3.1-10.083 4.575-14.529 7.41-22.731ZM46.578 280.32c11.168-4.383 16-6.822 25.057-12.546a743.621 743.621 0 0 0 11.333-73.838c-8.47 11.565-13.13 15.682-24.341 23.303-8.935 15.682-19.674 29.568-32.095 43.721.594 7.308.845 11.182 1.232 19.195 10.879-11.639 20.675-24.433 29.245-38.193a1085.075 1085.075 0 0 1-10.431 38.358ZM84.256 225.08c-2.276 13.196 10.51 36.798 27.363 12.593a956.22 956.22 0 0 1 5.011-4.156c20.239-16.654 37.285-36.296 40.041-59.725v-.188c-9.672.635-14.812 11.534-22.845 14.764-.436 2.125-4.045 11.66-17.074 22.575l-.086.078c-10.825 9.08-14.498 7.222-14.684-1.568 15.951-16.466 33.992-29.976 55.691-41.769.273-2.203.409-3.285.681-5.426 3.379-20.528-11.255-42.169-34.944-18.301a34.837 34.837 0 0 0-5.434 3.552c-22.451 17.854-30.119 50.488-33.376 74.38a50.992 50.992 0 0 1-.344 3.191Zm35.402-62.156.086-.07c9.93-7.778 14.598-4.822 15.471 2.846-13.495 6.594-22.286 16.325-31.436 26.15 2.026-10.327 6.035-21.187 15.879-28.926ZM221.168 155.154c4.833 5.355 6.773 8.79 10.739 15.055 12.887 20.512 18.385 16.113 21.17 7.66-6.444-8.154-9.021-13.086-14.777-22.739-.172.181-1.217 2.572-1.553 2.353-.638-.314-1.554-1.326-3.458-4.376a121.926 121.926 0 0 0-9.257-13.329c-24.527-23.774-54.947-28.087-59.486 7.598a356.114 356.114 0 0 0-1.431 9.409c-4.124 28.839 9.378 40.608 33.784 59.286.787.595 1.174.909 1.961 1.521 5.964 5.026 38.216 32.148 42.018 13.369l.587-1.945c5.068-20.065-4.296-43.455-16.56-61.073l-.479-.675c-9.529-8.311-18.507-18.677-34.286-15.854l.158-.588c5.047-16.545 23.804-4.783 30.87 4.328Zm-9.357 19.179c9.4 8.421 15.035 19.508 12.608 30.713-.136.471-.201.698-.337 1.153-1.976 6.625-8.741 6.743-21.27-3.395-12.528-10.139-17.454-18.74-15.406-28.949.136-.667.2-1.004.336-1.694 2.212-11.213 10.538-9.942 24.069 2.172Z"/><path d="M299.325 294.277c6.651-18.607 14.383-36.978 21.363-55.515-26.403-7.943-46.921-11.04-65.721-28.643-6.279 26.001-7.875 28.879-9.615 31.748-1.74 2.87-3.58 2.306-5.727-.517l-.945-1.176c-1.747 4.885-2.657 7.119-4.539 11.918 2.047 2.674 3.071 3.983 5.161 6.524 8.813 10.718 15.357 10.585 18.922 6.39 2.914-3.426 5.455-8.515 9.987-24.087 8.162 5.034 13.517 5.363 22.702 7.362-4.854 13.173-9.687 26.291-14.097 39.558 8.756 2.948 13.474 2.98 22.509 6.438ZM335.171 229.306c9.65 2.556 14.461 3.709 24.055 4.117 2.785-6.665 4.202-10.476 7.066-18.034-9.694-.949-14.562-2.157-24.341-4.666-2.749 7.543-4.11 11.448-6.78 18.583ZM308.518 298.095c9.02 3.835 13.545 6.657 22.73 10.194 6.644-21.124 15.213-41.816 22.988-62.728-9.486-.651-14.24-2.039-23.804-4.274-7.088 19.015-15.013 37.794-21.914 56.808ZM39.813 656.405c14.232-19.72 28.407-43.015 25.723-66.217v-.172c-8.312 8.005-11.613 10.083-17.462 21.703 0 2.353-1.324 11.331-9.915 30.58l-.057.134c-7.16 15.987-9.4 18.355-9.765 13.392 8.032-23.1 14.268-54.409 36.712-72.02-.315-2.415-.48-3.614-.795-5.967-.716-5.802-.845-20.112-7.796-23.93-7.438-4.078-16.874-3.403-16.803 8.688-1.367 3.011-2.047 4.539-3.422 7.378-9.307 19.14-14.834 39.801-15.893 60.25 2.148 15.353 5.52 31.364 6.558 46.913a502.654 502.654 0 0 0 9.128-14.498 289.428 289.428 0 0 1 3.787-6.234Zm-4.038-52.989.05-.157c4.954-17.517 8.512-19.548 10.023-12.334-6.515 17.101-12.285 34.226-17.196 51.649.98-13.134 3.028-26.37 7.123-39.158ZM123.059 598.092c1.109-.235 1.668-.345 2.785-.564 29.016-5.568 56.328-8.869 53.171-37.543 0-1.412 0-2.125-.043-3.552.043-18.756-10.224-48.52-34.157-57.757l-1.116-.055c-23.733-.949-40.872 19.36-49.02 33.897.044-.361.058-.541.101-.91 1.99-18.567 14.411-44.348 42.346-46.748 9.909-.635 13.889 1.992 19.137 6.571 21.599 20.81 34.686-24.354 36.913-31.772-9.307-7.057-13.76-10.546-21.822-17.893-.386 1.043-3.644 12.428-4.202 12.765-1.081.996-2.527 1.098-4.911-1.317-4.296-4.336-4.589-8.492-13.739-8.233-54.216 2.391-82.359 78.951-81.994 111.938.08 5.104.18 7.425.487 11.416 6.257 30.212 17.855 37.763 56.064 29.757Zm-26.131-40.201c0-.784-.05-1.207-.079-2.007-.157-13.463 11.87-25.091 26.711-30.956 16.996-6.681 30.505 5.339 28.436 18.034l-.179 2.196c-.795 12.976-13.388 22.237-28.529 26.016-17.225 4.312-25.902-1.012-26.36-13.283ZM260.558 639.21c.788-31.278 1.21-62.548 2.42-93.817-27.055-4.815-47.322-12.844-70.876-24.245-3.902 16.662-2.076 33.716-4.181 50.52-.838 6.704-2.821 7.574-6.121 5.912l-1.367-.69c.322 9.503.537 15.431 1.009 26.604 2.978 1.568 4.475 2.353 7.46 3.984 12.607 6.798 19.136 2.571 21.37-8.461 2.921-14.443 3.15-29.451 4.066-44.16 10.668 5.488 14.734 7.598 23.869 9.871-.558 22.481-.795 44.969-1.131 67.433 9.314 3.67 14.018 4.822 23.482 7.049ZM273.938 528.683c9.715 3.003 14.698 5.128 24.771 12.311.587-9.817.816-14.937 1.761-25.476-9.872-9.181-14.733-12.624-24.069-16.701-1.21 12.412-1.689 18.952-2.463 29.866ZM270.237 641.374c9.515 2.039 14.319 2.941 23.926 5.168 1.504-29.796 1.625-59.592 3.616-89.341-10.066-5.23-15.035-6.845-24.85-9.456-1.274 31.207-1.725 62.414-2.692 93.629ZM844.89 454.774c-1.353-21.916-1.325-43.91-1.983-65.864-9.307-9.496-14.913-13.142-22.702-24.598-8.727 27.036-20.046 53.523-28.637 80.52 6.365 8.75 9.35 13.902 15.156 25.593 4.897-16.709 11.92-32.462 18.185-48.865-.373 22.417.93 44.764 1.882 67.166 4.539 3.81 6.816 5.684 11.384 9.283 8.655-11.542 16.909-30.297 33.648-36.429-7.346 16.09-8.785 34.046-12.844 50.755 9.436 5.63 13.316 4.312 21.549 6.735 6.15-26.996 12.364-53.546 19.015-80.441-8.648-8.295-12.958-12.388-21.478-18.692-7.817 12.498-19.236 25.977-33.175 34.837ZM895.176 477.333c-4.668 24.832-1.432 49.296 26.567 64.907a191.402 191.402 0 0 0 5.391 2.941c10.56 4.885 36.884 18.928 41.065 1.764v-.086a165.543 165.543 0 0 1-21.943-13.401c-.623 1.035-5.14 3.482-18.535-4.547l-.093-.055c-11.132-6.689-14.805-16.121-14.218-28.549 16.817 15.047 33.884 32.54 55.784 43.423.294-1.348.459-1.913.716-3.638 2.914-24.048-8.075-44.764-28.006-63.002a248.65 248.65 0 0 1-5.37-5.285c-19.802-15.471-27.248-16.333-40.671 2.532a38.882 38.882 0 0 0-.687 2.996Zm39.69 11.189.086.07c10.087 8.406 14.125 14.114 14.397 24.017-10.517-9.73-20.719-20.073-32.51-28.917 3.05-4.689 7.997-3.505 17.998 4.83h.029ZM1034.26 515.416c-.72.283-1.98.11-4.59-1.372a741.875 741.875 0 0 1-11.55-6.672c-23.969-16.106-45.31-4.266-43.492 19.218-.308 4.226-.458 6.5-.837 10.35-4.296 20.904 9.536 36.892 34.759 43.125l2.1.628c14.49 4.304 42.64 9.095 44.64-8.9.07-.682.09-1.019.16-1.701 1.04-14.953-17.42-29.012-32.13-36.728l-.61-.313c-15.95-7.951-25.724-6.124-29.253-1.859 0-.274 0-.407.05-.682.945-14.474 7.543-14.012 23.843-6.5 5.37 2.47 8.11 3.795 13.67 6.485 18.2 8.789 24.94 3.426 25.28-8.712-8.33-2.195-12.59-5.708-20.97-10.585-.13.431-.65 4.156-1.07 4.218Zm-21.13 30.667c12.22 4.986 18.23 10.405 17.65 16.411-.04.376-.05.564-.09.933-.53 5.426-7.28 8.045-19.91 4.007-12.627-4.039-17.388-9.7-16.829-16.2.043-.423.057-.635.093-1.066.644-7.002 6.956-9.033 19.086-4.085ZM1134.53 608.026c.46-14.819 1.43-29.646.79-44.466-23.69-3.183-46.22-10.052-69.45-14.6.52 27.844-1.27 25.875-2.48 28.957-1.22 3.082-3.35 3.576-6.55 2.533l-1.32-.424c-.49 4.862-.72 7.324-1.26 12.287l7.36 2.274c12.5 3.92 19.33.823 21.78-4.767 2.02-4.556 3.25-11.291 3.21-23.978 9.31 1.647 14.18 2.744 23.91 4.752.06 11.047-.5 22.15-1.23 33.183 10.16 1.67 15.36 2.611 25.24 4.249ZM1146.98 540.766c-.22 5.183-.33 7.786-.66 13.032 10.7-.659 16.09-1.137 27.1-2.039.46-5.01.64-7.496.99-12.475-11.16.737-16.62 1.09-27.43 1.482ZM1173.42 561.851c-11.09.502-16.52.784-27.27 1.427-.25 15.47-1.49 30.917-1.73 46.395 9.48 1.482 13.9 1.615 24.99 1.858 1.65-16.568 3.28-33.065 4.01-49.68ZM1290.66 651.136c-10.21 7.841-21.12 15.721-32.72 22.339-5.27-6.469-8-10.907-14.22-19.704-12.69.454-19.86.109-33.61-.659-4.33 10.538-11.19 21.335-18.8 30.705 9.56.33 15.08.588 26.01 1.004 5.01-7.245 7.57-8.625 11.82-15.847 5.85 7.473 8.49 8.978 13.87 16.725 5.47.165 8.12.235 12.94.353 12.44-7.535 19.44-10.499 32.68-18.199-3.71 7.535-5.67 10.193-9.71 18.685 10.65.204 16.15.306 27.11.549 5.22-11.926 11.69-22.974 16.88-34.9-13.08-.855-19.61-1.082-32.25-1.051ZM1392.82 659.769c-3.43-.784-5.01-.706-8.38-1.003-20.47-1.569-48.73-6.454-61.2 10.193-.29.431-.43.635-.72 1.035-7.8 16.293 27.79 19.602 39.03 21.515 3.17.487 4.77.738 7.94 1.184 17.57.926 45.23 5.756 59.64-4.563l.05-.055c-12.17-2.187-18.3-3.45-30.46-6.39-.96.705-6.14 5.065-26.94 1.96h-.14c-17.29-2.588-23.32-6.986-22.71-11.15 27.81 4.399 54.78 7.974 82.25 13.534a55.8 55.8 0 0 0 1.6-2.353c8.92-14.827-28.67-20.888-39.96-23.907Zm11.8 14.028c-16.83-2.353-33.6-3.544-50.5-5.567 4.85-2.031 13.93-2.533 29.35-1.482h.14c15.62 1.058 21.43 5.096 21.01 7.049ZM833.914 675.545c-10.853-2.235-16.423-3.92-27.57-7.927-13.652 1.756-19.637 5.144-32.932 4.156-2.656-2.721-4.775-11.621-8.097-21.171a201.981 201.981 0 0 1-25.308-13.675c-8.018 11.542-13.509 12.177-22.809 27.083 7.074 1.388 11.054 4.226 19.545 8.437 5.942-8.5 8.891-7.449 13.81-13.4 2.813 9.307 3.859 10.53 6.565 21.954 4.524 1.569 6.772 2.314 11.197 3.654 13.08-5.433 19.43-5.575 32.767-6.759-4.904 4.297-7.775 7.802-13.094 13.165a221.14 221.14 0 0 0 23.582 9.19c9.15-7.316 13.868-15.204 22.344-24.707ZM912.551 703.404c.616-.674.917-1.035 1.525-1.795 10.854-14.898-13.001-22.159-28.157-23.704-2.606-.204-3.923-.29-6.572-.462-14.161-.345-39.103 1.419-48.876 11.024l-.93 1.294c-9.085 15.509 13.223 17.117 27.104 18.395a89.406 89.406 0 0 0 5.778-.298c14.125.784 35.839 3.779 48.267-2.886l.043-.039c-9.486-.909-14.182-2.478-23.625-3.019-.881.581-6.844 1.075-21.721 1.851h-.1c-12.364.635-16.094-2.525-14.799-6.539 20.862 1.685 41.481 3.058 62.063 6.178Zm-35.13-19.163h.108c12.313.956 16.315 5.104 15.557 9.229-15.328-2.117-23.21-1.984-37.636-3.835 4.009-4.21 9.765-6.351 21.971-5.394ZM977.628 687.401l15.284 2.266c20.108 2.964 30.408-2.964 34.538-9.308-9.31-1.113-14.45-2.062-24.16-3.363-.28.251-2.35 2.807-2.9 2.901-1.042.251-2.581.329-5.609 0-5.427-.659-8.133-.972-13.524-1.568-22.694-2.956-49.713-1.631-59.049 17.25-1.124 1.858-1.689 2.713-2.863 4.297-11.455 13.471 20.16 17.399 30.727 17.869l2.262.189c17.569 1.434 41.588 3.371 55.926-6.532.35-.321.52-.478.86-.784 8.48-8.374-13.487-16.137-26.531-17.862l-.673-.086c-17.54-2.313-30.219.384-35.438 2.823l.2-.33c4.196-7.072 12.5-10.514 30.95-7.762Zm-10.739 13.196c13.409 1.38 18.614 4.548 15.75 7.551l-.451.463c-2.628 2.626-11.512 4.218-25.057 2.838-13.459-1.364-17.898-3.34-15.156-6.383l.451-.509c2.914-3.372 11.168-5.324 24.463-3.96ZM1079.65 728.339c8.18-8.9 12.52-11.942 20.65-22.982-23.35-3.654-47.25-4.705-70.7-7.692-8.75 15.972-11.46 14.772-14.05 16.238-2.59 1.466-5.27 1.819-8.65 1.498l-1.43-.133c-2.34 2.352-3.5 3.504-5.814 5.841l7.804.635c13.17 1.067 21.43-.102 25.88-2.258 3.58-1.748 7.04-3.176 12.45-11.048 9.31.784 14 1.035 23.63 1.811-5.73 8.124-8.85 9.66-14.6 15.894 9.75.855 14.71 1.27 24.83 2.196ZM1147.48 693.038c-10.17-.486-15.66-.784-26.43-1.568-2.24 3.685-3.4 5.403-5.72 8.853 10.74.784 16.26 1.027 26.69 1.489 2.24-3.567 3.35-5.229 5.46-8.774ZM1137.87 708.297c-10.57-.635-16.13-.972-26.82-1.85-8.32 11.957-12.73 14.019-21 22.864 10.27.98 15.51 1.568 26.22 2.109 8.62-8.868 13.48-10.013 21.6-23.123ZM398.386 452.963a3240.953 3240.953 0 0 1-5.591-54.707c-10.903.494-16.316.596-27.548-.604-7.288 32.933-12.307 66.233-19.846 99.15 8.541 1.984 12.436 2.031 19.967 1.309 5.513-18.52 6.952-37.848 10.918-56.612 2.456 17.572 5.727 35.175 6.794 52.849 4.009-1.239 5.985-1.953 9.98-3.403 9.851-20.519 21.051-40.226 33.512-58.965-5.835 17.517-11.526 34.94-16.079 52.692a111.409 111.409 0 0 1 20.654-5.191c10.023-25.875 22.802-50.966 32.882-76.842-11.734 2.525-17.404.722-27.921-5.245-17.075 15.987-27.513 36.664-37.722 55.569ZM517.172 403.071c-2.599-1.02-3.895-1.514-6.444-2.408-31.629-11.761-48.224 23.657-54.868 40.327-1.174 2.956-2.104 6.492-2.992 8.86-6.064 16.16-3.336 44.106 27.663 35.653a45.64 45.64 0 0 1 6.121-.102c19.516 1.89 44.752 4.399 51.324-14.255-9.93-6.649-14.562-9.997-24.162-14.576-1.776 2.038-7.252 6.735-23.103 4.587h-.114c-13.288-1.78-16.753-7.394-14.018-17.031 25.709-3.183 45.425 10.366 63.659 22.237a87.774 87.774 0 0 0 4.339-11.016c6.393-19.924-2.656-42.514-27.405-52.276Zm5.634 34.586c-15.378-7.66-23.239-10.687-39.075-9.989 4.89-8.484 11.934-13.573 24.177-9.566h.107c12.364 4.093 16.817 11.934 14.805 19.555h-.014ZM552.251 453.065a95.894 95.894 0 0 0-3.866 11.016c-7.488 26.111 2.957 53.962 33.763 68.719l2.491 1.286c27.921 13.494 41.523 8.774 48.811-17.25a95.62 95.62 0 0 0 2.384-9.809c2.864-17.8 3.093-40.186-20.239-50.967l-.615-.259c-5.553-2.362-11.515-3.347-17.457-2.883-5.942.463-11.716 2.364-16.907 5.565.077-.245.18-.479.308-.698 3.579-11.91 16.237-22.778 32.359-14.153a921.915 921.915 0 0 0 13.925 5.622c23.983 8.108 34.664-18.818 40.155-31.082-8.891-2.14-13.251-3.207-22.121-5.974-.33.784-6.601 8.625-7.246 8.993-1.124.91-2.67 1.302-5.441.306-4.968-1.788-7.467-2.729-12.471-4.642-35.323-14.835-58.526 14.192-67.833 36.21Zm20.762 31.583c3.143-12.608 15.385-15.203 27.083-9.409 12.106 6.014 14.683 15.274 12.664 26.267-2.52 13.691-9.6 16.921-24.291 9.762-14.125-6.845-18.034-16.45-15.499-26.62h.043ZM639.98 523.21c-3.014 7.881-5.649 8.406-7.768 7.692l-1.109-.376c-2.628 10.036-3.838 14.992-6.036 24.887a62.957 62.957 0 0 0 9.092 3.356c8.735 2.58 12.78-4.351 18.614-16.905 6.816-14.663 11.67-30.211 17.096-45.36 8.685 2.109 13.03 3.058 21.85 4.806-7.546 20.991-14.576 42.02-20.905 63.254 8.556 1.403 12.851 2.046 21.628 3.348 9.157-28.965 19.495-57.592 30.427-86.173-21.707-3.873-42.468-8.531-63.409-14.364-6.916 18.504-12.099 37.456-19.48 55.835ZM758.779 478.697c3.372-8.703 5.083-13.047 8.591-21.602-7.159-6.774-10.882-9.762-18.678-14.357-3.809 10.099-5.67 14.443-9.25 23.649 7.983 3.685 11.834 6.233 19.337 12.31ZM701.47 569.237c8.927 1.309 13.466 1.96 22.909 3.403 9.035-26.22 17.941-52.441 27.57-78.535-7.703-5.568-10.703-9.504-19.867-10.907-10.874 28.557-21.277 57.153-30.612 86.039ZM1319.71 454.672c-12.42 12.365-25.22 24.503-37.36 37.041-7.27-9.409-10.87-13.988-17.81-23.358-12.79 2.579-19.02 3.92-31.34 6.123-4.14 15.377-7.83 30.761-11.32 46.262 9.37-1.293 14.01-2.172 23.42-3.92 2.5-10.735 3.71-16.239 6.4-26.911 6.72 8.908 10.18 13.526 16.84 22.543 5.51-.972 8.29-1.435 13.98-2.211 11.67-11.244 23.22-22.527 35.19-33.575-3.69 12.154-5.93 17.689-9.64 29.114 11.67-1.819 17.77-2.415 29.79-3.631a1237.945 1237.945 0 0 0 16.91-55.514c-13.81 3.372-20.96 4.861-35.06 8.037ZM1418.72 432.984a463.5 463.5 0 0 0-8.09 1.082c-26.88 3.677-48.55 16.599-55.01 37.284a31.986 31.986 0 0 0-1.13 5.92c-2.07 20.387 25 20.002 43.67 20.583 2.94 0 4.43 0 7.41.125 25.83 2.094 48.13-3.262 53.85-24.229-11.75-.298-17.9-.619-29.98-.682-1.43 1.913-6.24 6.869-25.67 8.076h-.14c-16.28 1.028-22.02-1.74-21.81-8.272 26.45-3.693 51.95-3.92 78.75-3.583.52-1.993.93-4.017 1.24-6.061-2.86-10.037-4.19-14.953-6.76-24.307-6.23-4.964-17.84-8.273-36.33-5.936Zm15.34 23.335c-16.26.886-32.35 1.819-48.31 4.563 3.85-6.39 11.25-11.189 26.49-12.898h.14c15.34-1.733 21.48 1.615 21.68 8.335ZM1121.23 100.949c.55.612.83.918 1.38 1.568 13.4 19.932 34.45 17.729 45.6-1.325a94.302 94.302 0 0 0 4.74-10.02c7.1-18.427 11.34-38.555-6.32-54.887l-.47-.408c-11.65-10.272-22.39-11.025-27.64-9.41.1-.196.22-.378.37-.54 4.21-6.36 8.27-9.316 13.02-9.15-9.44-5.772-13.79-9.457-22.35-15.777a74.27 74.27 0 0 0-9.98 14.396 107.02 107.02 0 0 0-4.85 9.927c-10.18 23.836-11.08 53.358 6.5 75.626Zm6.02-51.358c5.16-12.2 13.97-10.86 22.35-1.82 8.66 9.363 9.03 18.458 4.44 29.06-5.73 13.211-14.63 13.91-22.98 3.92-8.02-9.574-7.97-21.304-3.81-31.16ZM1163.91 113.761l-.91-.854c-4.73 8.389-7.1 12.89-11.68 21.413 2.92 3.388 4.41 5.042 7.43 8.077 7.33 7.37 13.1 3.403 21.3-7.293 10.27-13.392 18.39-28.094 26.28-42.655a118.057 118.057 0 0 0 19.6 10.845c-11.37 21.625-23.38 43.023-34.5 64.743a92.46 92.46 0 0 0 20.56 9.871c15.64-31.575 31.42-63.096 49.4-93.927-22.96-5.959-39.76-12.851-58.5-24.777-10.52 16.466-17.9 34.923-30.19 50.621-4.49 6.132-7.04 5.559-8.79 3.936ZM1244.35 184.77c16.64-31.216 34.05-61.944 51.59-92.877a156.483 156.483 0 0 1-24.87-5.026c-18.13 30.98-34.62 61.944-50.2 93.786 8.82 2.321 13.15 2.705 23.48 4.117Z"/></g></svg>