<svg fill="none" xmlns="http://www.w3.org/2000/svg" viewBox="0 0 107 54"><path d="M.423 50.833c0-.549.169-.988.507-1.319.339-.334.789-.502 1.35-.502.464 0 .867.128 1.21.384.349.251.539.614.571 1.088h-.897a.732.732 0 0 0-.286-.51.955.955 0 0 0-.598-.18c-.31 0-.55.095-.716.286-.163.186-.244.437-.244.753s.081.57.244.76c.167.186.405.279.716.279.241 0 .44-.058.598-.174a.758.758 0 0 0 .286-.517h.897c-.032.475-.222.84-.57 1.096a1.995 1.995 0 0 1-1.21.376c-.562 0-1.012-.165-1.35-.495-.34-.33-.508-.772-.508-1.325ZM7.8 49.082v.781H6.486v2.72h-.898v-2.72H4.273v-.78H7.8ZM8.361 52.583v-3.5h1.482c.473 0 .833.06 1.079.18.245.121.368.338.368.65 0 .45-.243.694-.73.731v.238c.658.009.988.272.988.788 0 .609-.483.913-1.447.913H8.36Zm.849-2.12h.633c.232 0 .39-.02.473-.063.084-.046.125-.15.125-.313 0-.15-.044-.247-.132-.294-.088-.046-.243-.07-.466-.07H9.21v.74Zm0 1.479h.89c.219 0 .372-.028.46-.084.092-.056.139-.165.139-.328 0-.167-.046-.279-.14-.335-.087-.06-.24-.09-.458-.09H9.21v.837ZM12.644 52.165c-.357-.326-.536-.77-.536-1.332 0-.563.179-1.007.536-1.332.357-.326.819-.489 1.384-.489.562 0 1.02.163 1.378.489.357.325.536.77.536 1.332s-.179 1.006-.536 1.332c-.357.325-.816.488-1.378.488-.565 0-1.027-.163-1.384-.488Zm.633-2.093c-.18.186-.271.44-.271.76 0 .322.09.575.271.761.181.186.431.279.752.279.32 0 .57-.093.75-.279.182-.186.272-.44.272-.76 0-.321-.09-.575-.271-.76-.181-.187-.431-.28-.752-.28-.32 0-.57.093-.75.28ZM16.548 49.082h.898v.335l-.16.537h.23c.208-.628.672-.942 1.39-.942.488 0 .87.175 1.148.523.283.345.425.78.425 1.305 0 .52-.142.953-.425 1.297-.278.344-.66.516-1.147.516-.72 0-1.183-.311-1.392-.934h-.23l.16.53v1.639h-.897v-4.806Zm.898 1.758c0 .348.095.609.285.78.195.168.459.252.793.252s.594-.084.78-.251c.185-.172.277-.433.277-.781 0-.354-.092-.616-.278-.788-.185-.172-.445-.258-.78-.258-.333 0-.597.086-.792.258-.19.172-.286.434-.286.788ZM21.104 50.79c0-.548.164-.98.494-1.296.329-.321.758-.482 1.287-.482.528 0 .953.154 1.273.46.324.308.487.724.487 1.25v.292h-2.693c.01.274.098.495.265.663.171.162.429.244.772.244.496 0 .79-.188.883-.565h.898c-.06.32-.241.618-.543.893-.301.27-.714.404-1.238.404-.617 0-1.085-.177-1.405-.53-.32-.353-.48-.797-.48-1.332Zm.848-.32h1.844a.657.657 0 0 0-.23-.516c-.148-.135-.375-.202-.681-.202-.307 0-.538.07-.696.209a.642.642 0 0 0-.237.51ZM28.045 49.082h.89v3.501h-.89v-1.36h-1.774v1.36h-.898v-3.5h.898v1.36h1.774v-1.36ZM31.465 48.517a.634.634 0 0 1-.431.14.634.634 0 0 1-.432-.14.504.504 0 0 1-.16-.39c0-.163.054-.291.16-.384a.614.614 0 0 1 .432-.147.63.63 0 0 1 .431.147.486.486 0 0 1 .167.384.494.494 0 0 1-.167.39Zm-1.76 4.066v-.78h.988v-1.988l-.8.048v-.78l1.113-.07c.176-.01.31.032.403.125.093.093.14.225.14.398v2.266h.987v.781h-2.831ZM35.182 50.303c0-.688.147-1.212.439-1.57.297-.362.753-.639 1.37-.83.422-.13.703-.234.842-.313a.519.519 0 0 0 .264-.321h1.023a1.094 1.094 0 0 1-.16.446 1.31 1.31 0 0 1-.271.314c-.093.079-.23.153-.41.223-.182.07-.337.123-.467.16-.125.033-.306.077-.542.133-.474.107-.824.265-1.05.474-.228.205-.37.493-.425.865l-.237.537h.237c.078-.437.262-.78.55-1.032.287-.251.646-.377 1.078-.377.528 0 .95.168 1.266.502.315.33.473.756.473 1.277 0 .558-.167 1.009-.501 1.353-.334.34-.828.51-1.482.51-.64 0-1.134-.203-1.482-.608-.343-.404-.515-.985-.515-1.743Zm.898.544c0 .311.095.56.285.746.19.186.462.279.814.279.357 0 .626-.09.807-.272.186-.181.279-.442.279-.781 0-.33-.089-.584-.265-.76-.176-.177-.434-.265-.772-.265-.357 0-.638.093-.842.279-.204.18-.306.439-.306.774ZM42.622 49.082h1.002l-1.566 3.362v1.04c0 .357-.183.53-.55.515l-1.565-.056v-.78l1.225.041v-.76l-1.573-3.362h1.002l.898 2.246v.44h.236v-.44l.89-2.246ZM47.573 49.082v.781h-1.315v2.72h-.898v-2.72h-1.315v-.78h3.528ZM51.932 52.583h-.89v-2.776l.16-.488h-.23l-1.071 3.264h-1.768v-3.5h.898v2.754l-.16.516h.23l1.071-3.27h1.76v3.5ZM58.117 49.082v.781h-1.315v2.72h-.897v-2.72H54.59v-.78h3.527ZM60.435 48.517a.633.633 0 0 1-.432.14.633.633 0 0 1-.43-.14.504.504 0 0 1-.16-.39c0-.163.052-.291.16-.384a.614.614 0 0 1 .43-.147.63.63 0 0 1 .432.147.486.486 0 0 1 .167.384.494.494 0 0 1-.167.39Zm-1.76 4.066v-.78h.988v-1.988l-.8.048v-.78l1.113-.07c.176-.01.31.032.403.125.093.093.14.225.14.398v2.266h.987v.781h-2.831ZM65.448 49.082v3.501h-.89v-2.72h-1.003c-.004.312-.016.58-.034.802a5.528 5.528 0 0 1-.084.67c-.042.218-.1.4-.174.544a1.47 1.47 0 0 1-.278.384.985.985 0 0 1-.417.244 1.929 1.929 0 0 1-.578.076v-.78c.302 0 .49-.184.564-.552.074-.367.11-1.09.11-2.169h2.784ZM67.844 49.94c1.076 0 1.614.44 1.614 1.318 0 .884-.538 1.325-1.614 1.325h-1.482v-3.5h.897v.857h.585Zm-.585 1.862h.515c.288 0 .49-.032.605-.097.121-.07.181-.219.181-.447 0-.223-.06-.367-.18-.432-.117-.07-.318-.105-.606-.105h-.515v1.081ZM73.546 52.583h-.988l-.939-1.395c-.074.01-.136.014-.188.014h-.313v1.381h-.897v-3.5h.897v1.331h.293l.779-1.053c.144-.186.36-.279.647-.279h.591v.781h-.563l-.592.795 1.273 1.925ZM77.974 52.583h-.89v-2.776l.16-.488h-.23l-1.072 3.264h-1.767v-3.5h.898v2.754l-.16.516h.23l1.07-3.27h1.76v3.5ZM84.159 49.082v.781h-1.315v2.72h-.898v-2.72h-1.315v-.78h3.528ZM84.72 52.583v-3.5H86.2c.473 0 .833.06 1.079.18.245.121.368.338.368.65 0 .45-.243.694-.73.731v.238c.658.009.988.272.988.788 0 .609-.483.913-1.447.913h-1.74Zm.848-2.12h.633c.232 0 .39-.02.473-.063.084-.046.126-.15.126-.313 0-.15-.044-.247-.133-.294-.088-.046-.243-.07-.466-.07h-.633v.74Zm0 1.479h.89c.219 0 .372-.028.46-.084.093-.056.139-.165.139-.328 0-.167-.046-.279-.14-.335-.087-.06-.24-.09-.458-.09h-.89v.837ZM89.002 52.165c-.357-.326-.536-.77-.536-1.332 0-.563.179-1.007.536-1.332.357-.326.819-.489 1.385-.489.56 0 1.02.163 1.377.489.357.325.536.77.536 1.332s-.179 1.006-.536 1.332c-.357.325-.816.488-1.377.488-.566 0-1.028-.163-1.385-.488Zm.633-2.093c-.18.186-.271.44-.271.76 0 .322.09.575.271.761.181.186.432.279.752.279s.57-.093.751-.279c.18-.186.271-.44.271-.76 0-.321-.09-.575-.271-.76-.18-.187-.431-.28-.751-.28s-.57.093-.752.28ZM93.876 48.517c-.111.093-.262.14-.452.14s-.34-.047-.452-.14a.504.504 0 0 1-.16-.39c0-.163.053-.291.16-.384.111-.098.262-.147.452-.147s.341.05.452.147c.116.093.174.22.174.384a.485.485 0 0 1-.174.39Zm1.656 0c-.111.093-.262.14-.452.14s-.341-.047-.452-.14a.504.504 0 0 1-.16-.39c0-.163.053-.291.16-.384.111-.098.262-.147.452-.147s.34.05.452.147c.116.093.174.22.174.384a.485.485 0 0 1-.174.39Zm-2.511 4.066v-.78h.987v-1.988l-.8.048v-.78l1.107-.07c.176-.01.31.032.403.125.093.093.14.232.14.418v2.246h.994v.781h-2.831ZM96.48 52.583v-3.5h1.78l.502 3.27h.23l.5-3.27h1.788v3.5h-.897v-2.755l.167-.509h-.237l-.556 3.264h-1.76l-.55-3.264h-.23l.16.51v2.754h-.897ZM105.985 52.583h-.89v-2.776l.16-.488h-.23l-1.071 3.264h-1.767v-3.5h.897v2.754l-.16.516h.23l1.071-3.27h1.76v3.5ZM45.596 15.236H35.463v30.472h10.133V15.236ZM106.388 15.236H96.255v30.472h10.133V15.236ZM50.66 45.71h10.133V25.393h5.066V45.71h10.132V25.393h5.066V45.71h10.132V15.235H50.661v30.473ZM10.133 0H0v45.71h30.396V15.235H10.133V0Zm10.132 35.551H10.133V25.394h10.132v10.157Z" fill="#222"/></svg>