<svg fill="none" xmlns="http://www.w3.org/2000/svg" viewBox="0 0 110 110"><path d="M60.312 10.987c-.776-.095-1.362-.438-1.778-.989-.416-.57-.567-1.216-.473-1.996.095-.74.416-1.33.965-1.767.548-.438 1.191-.609 1.967-.495.756.095 1.343.438 1.777 1.008.435.57.606 1.216.511 1.958-.094.76-.435 1.35-1.002 1.786-.568.438-1.21.609-1.967.495ZM77.579 6.387a17.65 17.65 0 0 1 1.645.931c.454.304.87.665 1.267 1.084.379.418.643.836.795 1.273.15.437.189.95.132 1.54-.057.589-.265 1.216-.586 1.9-.397.837-.87 1.464-1.4 1.882-.53.438-1.116.666-1.759.685a5.436 5.436 0 0 1-1.91-.229 13.986 13.986 0 0 1-2.175-.874l-4.198-2.072L75.498 0l8.057 3.992-.965 1.996-5.787-2.87-1.134 2.318 1.91.95Zm-3.026 6.215c1.116.552 1.967.799 2.534.76.567-.056 1.06-.513 1.475-1.368.435-.874.492-1.559.19-2.053-.303-.494-1.022-1.007-2.138-1.558l-1.929-.95-2.061 4.219 1.929.95ZM82.685 13.724c1.002-1.179 2.156-1.806 3.442-1.882 1.286-.076 2.497.38 3.631 1.35 1.135.969 1.76 2.09 1.891 3.345.133 1.254-.283 2.452-1.248 3.573l-.53.628-5.786-4.961c-.492.608-.7 1.235-.643 1.92.056.665.453 1.31 1.19 1.957 1.06.913 2.043 1.065 2.932.418l1.93 1.654c-.72.57-1.646.874-2.8.913-1.153.018-2.288-.438-3.404-1.407-1.324-1.14-2.005-2.395-2.042-3.745-.02-1.35.453-2.604 1.437-3.763Zm2.402.893 3.953 3.421c.378-.456.53-.95.472-1.52-.075-.57-.435-1.14-1.097-1.71-.662-.571-1.286-.856-1.872-.837a1.782 1.782 0 0 0-1.456.646ZM91.139 23.133l1.38 1.957c-.7.495-1.078.97-1.115 1.426-.057.456.15 1.026.643 1.71.737 1.027 1.475 1.274 2.212.742.36-.266.549-.551.549-.874 0-.324-.151-.704-.473-1.14l-.643-.894 1.494-1.065.643.894c.53.76 1.116.931 1.702.494.322-.228.473-.513.473-.836-.019-.324-.208-.742-.567-1.274-.454-.627-.851-1.007-1.192-1.102-.34-.095-.756.019-1.21.36l-1.38-1.957c.888-.627 1.777-.818 2.666-.551.889.266 1.759 1.007 2.59 2.186.776 1.102 1.173 2.072 1.192 2.946.019.874-.302 1.54-.945 2.015-1.003.703-1.93.532-2.78-.533l-.53.38c.34.552.492 1.103.454 1.654-.038.552-.322 1.027-.889 1.426-.719.513-1.513.627-2.364.304-.851-.304-1.683-1.026-2.459-2.148-1.834-2.509-1.645-4.562.549-6.12ZM97.342 42.369l-1.078-2.585 2.61-3.992a3.892 3.892 0 0 1-.246-.475l-.34-.818-3.594 1.502-.983-2.357 9.116-3.82.983 2.357-3.461 1.444.322.76 3.593.894c.643.17 1.116.646 1.437 1.387l.643 1.559-2.042.855-.605-1.482-2.705-.684-3.65 5.455ZM98.799 43.756c.756-1.14 1.91-1.843 3.479-2.09 1.57-.248 2.875.056 3.953.93 1.059.856 1.721 2.092 1.967 3.67.246 1.577 0 2.927-.756 4.086-.757 1.14-1.911 1.844-3.48 2.091-1.57.247-2.875-.057-3.953-.931-1.06-.856-1.721-2.072-1.967-3.65-.246-1.597 0-2.965.757-4.106Zm6.108.875c-.605-.419-1.342-.57-2.231-.438-.889.134-1.57.514-2.005 1.103-.435.59-.586 1.33-.454 2.224.132.893.511 1.558 1.097 1.996.605.418 1.343.57 2.232.437.888-.133 1.569-.513 2.004-1.103.435-.589.587-1.33.454-2.224-.132-.912-.51-1.577-1.097-1.995ZM107.631 65.958l-.341 2.528-9.796-1.312 1.72-13.077 9.797 1.311-.34 2.529-7.603-1.008-.359 2.737 7.603 1.008-.341 2.528-7.603-1.008-.359 2.737 7.622 1.027ZM101.956 81.392l-2.004-.893 1.513-3.421-7.017-3.137 1.022-2.338 7.016 3.137 1.513-3.422 2.005.894-4.048 9.18ZM93.162 79.073c1.343-.247 2.648.095 3.915 1.065s1.967 2.129 2.08 3.497c.133 1.369-.302 2.7-1.266 3.973-.965 1.273-2.1 2.034-3.443 2.3-1.342.247-2.647-.095-3.914-1.065-1.268-.97-1.967-2.129-2.08-3.497-.133-1.369.283-2.68 1.247-3.954.965-1.292 2.119-2.072 3.461-2.319Zm3.631 5c-.113-.723-.529-1.37-1.248-1.92-.718-.552-1.456-.78-2.175-.685-.718.095-1.361.494-1.91 1.236-.548.741-.756 1.444-.643 2.186.114.722.53 1.368 1.248 1.92.72.55 1.457.779 2.175.684.719-.095 1.362-.494 1.91-1.236.549-.741.757-1.444.643-2.186ZM85.787 86.487l6.26 7.679-3.234 2.66c-1.04.856-1.93 1.37-2.686 1.54-.756.172-1.418-.076-1.967-.76-.813-.988-.718-1.958.284-2.927l-.416-.513c-1.456 1.16-2.648 1.178-3.575.057-1.097-1.33-.586-2.87 1.532-4.6l3.802-3.136Zm-.7 2.927-1.948 1.596c-.473.4-.757.723-.87 1.008-.113.285 0 .608.284.97.302.36.605.531.907.493.303-.037.7-.247 1.173-.646l1.948-1.596-1.494-1.825Zm2.648 3.231-1.38 1.14c-.511.419-.814.742-.909.989-.094.247-.019.551.284.912.265.323.53.457.813.4.284-.058.662-.286 1.135-.685l1.38-1.14-1.323-1.616ZM75.12 105.114l-2.288 1.065-4.18-8.991 2.288-1.064 1.627 3.497 4.539-2.129-1.627-3.497 2.308-1.084 4.18 8.991-2.308 1.083-1.627-3.497-4.539 2.129 1.627 3.497ZM66.25 99.05c1.154.742 1.872 1.883 2.137 3.46.265 1.578 0 2.89-.851 3.973-.832 1.084-2.043 1.768-3.612 2.034-1.57.266-2.913.038-4.066-.684-1.154-.742-1.873-1.882-2.137-3.46-.265-1.578 0-2.889.85-3.973.833-1.083 2.043-1.767 3.594-2.033 1.57-.285 2.931-.057 4.085.684Zm-.738 6.141c.416-.609.549-1.369.379-2.262-.152-.894-.53-1.559-1.135-1.996-.586-.437-1.343-.571-2.232-.418-.889.152-1.55.532-1.948 1.14-.416.608-.548 1.369-.378 2.262.151.893.53 1.559 1.135 1.996.586.437 1.343.57 2.231.418.87-.152 1.532-.532 1.948-1.14ZM47.81 98.347c.776.115 1.362.457 1.76 1.027.397.57.548 1.235.416 1.996a2.663 2.663 0 0 1-1.003 1.749c-.548.418-1.21.57-1.986.456-.756-.114-1.343-.456-1.759-1.046-.416-.57-.567-1.235-.453-1.958.113-.76.453-1.35 1.04-1.767.567-.419 1.229-.57 1.985-.457ZM30.45 102.605a13.687 13.687 0 0 1-1.627-.969 6.782 6.782 0 0 1-1.23-1.103 3.732 3.732 0 0 1-.775-1.292c-.132-.437-.17-.95-.095-1.54.076-.589.284-1.216.625-1.881.416-.818.907-1.445 1.437-1.863a3.158 3.158 0 0 1 1.778-.666 5.468 5.468 0 0 1 1.91.267c.624.19 1.343.494 2.156.912l4.16 2.167-6.373 12.374-7.98-4.144 1.02-1.958 5.73 2.985 1.192-2.3-1.929-.989Zm3.158-6.14c-1.097-.57-1.948-.836-2.516-.798-.567.038-1.078.495-1.513 1.35-.454.874-.53 1.54-.227 2.034.284.494.984 1.026 2.1 1.596l1.91.989 2.156-4.182-1.91-.988ZM25.494 95.173c-1.04 1.16-2.194 1.768-3.48 1.806-1.286.057-2.496-.418-3.612-1.426-1.116-1.007-1.721-2.129-1.816-3.383-.094-1.255.34-2.452 1.324-3.555l.549-.627 5.673 5.094c.492-.589.72-1.235.681-1.9-.037-.666-.435-1.331-1.153-1.977-1.04-.932-2.024-1.103-2.932-.476l-1.891-1.691c.738-.57 1.664-.856 2.818-.856 1.154 0 2.27.495 3.385 1.483 1.305 1.16 1.948 2.433 1.967 3.783 0 1.35-.51 2.585-1.513 3.725Zm-2.383-.931-3.877-3.498c-.397.438-.548.95-.492 1.52.057.571.416 1.141 1.06 1.73.643.59 1.267.875 1.853.875.586.019 1.059-.21 1.456-.627ZM17.23 85.593l-1.344-1.996c.7-.475 1.097-.95 1.154-1.406.057-.456-.132-1.027-.605-1.711-.7-1.045-1.437-1.312-2.194-.798-.36.247-.548.532-.567.855 0 .323.15.703.454 1.16l.624.912-1.513 1.026-.625-.912c-.529-.78-1.096-.95-1.702-.532-.321.228-.491.494-.472.817 0 .323.189.76.548 1.293.435.646.813 1.007 1.154 1.121.34.095.756 0 1.229-.342l1.343 1.996c-.908.608-1.797.78-2.686.494-.889-.285-1.74-1.045-2.553-2.243-.756-1.102-1.135-2.11-1.135-2.984 0-.874.322-1.54.984-1.996 1.002-.684 1.929-.494 2.78.59l.53-.362c-.322-.551-.473-1.102-.436-1.654.038-.55.34-1.007.908-1.406.738-.513 1.532-.59 2.383-.266.851.323 1.665 1.064 2.421 2.186 1.778 2.604 1.532 4.657-.68 6.158ZM11.423 66.224l1.022 2.604-2.686 3.935c.095.19.17.342.227.475l.321.836 3.632-1.425.926 2.376-9.191 3.63-.927-2.376 3.499-1.387-.303-.76-3.574-.97c-.643-.19-1.097-.666-1.4-1.426l-.605-1.558 2.043-.818.586 1.483 2.705.741 3.725-5.36ZM10.004 64.817c-.775 1.122-1.948 1.806-3.517 2.015-1.57.21-2.875-.114-3.934-1.007-1.04-.875-1.683-2.11-1.891-3.707-.208-1.577.075-2.927.85-4.068.776-1.12 1.949-1.805 3.518-2.014 1.57-.21 2.875.114 3.934 1.007 1.04.874 1.684 2.11 1.891 3.688.19 1.596-.075 2.965-.85 4.086Zm-6.09-.988c.587.437 1.325.59 2.232.475.89-.114 1.57-.475 2.024-1.045.454-.59.624-1.312.492-2.224-.133-.913-.473-1.578-1.06-2.015-.586-.437-1.323-.59-2.231-.475-.889.114-1.57.475-2.024 1.045-.454.59-.624 1.312-.491 2.224.113.913.472 1.578 1.059 2.015ZM1.608 42.445l.378-2.528 9.759 1.502-1.986 13.04L0 52.955l.378-2.528 7.584 1.16.416-2.737-7.584-1.14.379-2.529 7.583 1.16.417-2.737-7.565-1.16ZM7.584 27.125l1.985.93L8 31.44l6.942 3.27-1.078 2.3-6.941-3.27-1.57 3.384-1.986-.932 4.218-9.067ZM16.34 29.614c-1.342.229-2.647-.152-3.896-1.14-1.248-.988-1.91-2.167-2.023-3.535-.095-1.369.34-2.68 1.343-3.954.983-1.255 2.137-1.996 3.498-2.224 1.343-.228 2.648.152 3.896 1.14 1.249.989 1.91 2.167 2.024 3.536.095 1.368-.34 2.68-1.324 3.935-1.002 1.273-2.175 2.014-3.518 2.242Zm-3.536-5.075c.094.723.492 1.369 1.21 1.94.719.57 1.438.797 2.156.722.738-.076 1.38-.476 1.93-1.198.567-.722.794-1.445.699-2.167-.095-.722-.492-1.368-1.21-1.939-.719-.57-1.438-.798-2.156-.722-.738.076-1.381.475-1.93 1.197-.548.723-.794 1.445-.7 2.167ZM23.848 22.373l-6.108-7.794 3.29-2.604c1.06-.836 1.948-1.33 2.705-1.482.756-.171 1.4.095 1.948.798.794 1.007.662 1.977-.34 2.908l.416.532c1.475-1.14 2.666-1.121 3.574.02 1.06 1.349.53 2.889-1.626 4.58l-3.859 3.042Zm-1.796-6.216 1.4-1.102c.51-.4.831-.742.926-.97.113-.247.019-.551-.265-.912-.265-.323-.53-.476-.813-.418-.284.057-.662.266-1.154.665l-1.4 1.102 1.306 1.635Zm2.572 3.288 1.986-1.558c.491-.38.775-.723.889-1.008.094-.285.018-.608-.265-.97-.284-.38-.587-.55-.89-.512-.302.038-.699.228-1.172.627l-1.986 1.559 1.438 1.862ZM34.894 3.954 37.2 2.927l3.99 9.067-2.307 1.027-1.55-3.517-4.578 2.034 1.551 3.516-2.326 1.027-4.01-9.048 2.327-1.026 1.55 3.516 4.578-2.034-1.532-3.535ZM43.65 10.207c-1.135-.76-1.835-1.92-2.062-3.497-.246-1.578.057-2.89.927-3.973.851-1.064 2.08-1.73 3.65-1.977 1.57-.247 2.913.02 4.066.78 1.135.76 1.835 1.92 2.062 3.497.246 1.578-.057 2.89-.927 3.973-.851 1.064-2.08 1.73-3.631 1.957-1.589.248-2.95 0-4.085-.76Zm.87-6.14c-.416.609-.568 1.35-.435 2.243.132.894.492 1.578 1.078 2.015.586.438 1.324.59 2.213.457.888-.134 1.55-.514 1.985-1.103.416-.608.568-1.35.435-2.243-.132-.893-.492-1.578-1.078-2.015-.586-.437-1.324-.589-2.213-.456-.907.133-1.57.513-1.985 1.103Z" fill="#B9A0CA"/></svg>